<svg width="356" height="107" viewBox="0 0 356 107" fill="none" xmlns="http://www.w3.org/2000/svg">
<path d="M105.763 55.3112L106.726 60.8884C106.979 62.5236 107.164 64.1296 107.281 65.7064C107.398 67.2832 107.456 68.9087 107.456 70.5828C107.456 70.6996 107.437 71.0111 107.398 71.5172C107.378 72.0039 107.33 72.5879 107.252 73.2692C107.193 73.9311 107.106 74.6416 106.989 75.4008C106.892 76.16 106.765 76.8608 106.609 77.5032C106.454 78.1456 106.269 78.6809 106.055 79.1092C105.841 79.518 105.597 79.7224 105.325 79.7224C105.227 79.7224 105.159 79.6835 105.12 79.6056C105.101 79.5083 105.091 79.3233 105.091 79.0508C105.091 78.7783 105.111 78.496 105.149 78.204C105.188 77.912 105.227 77.62 105.266 77.328L105.354 76.014C105.373 75.7025 105.383 75.4008 105.383 75.1088C105.403 74.7973 105.412 74.4859 105.412 74.1744C105.412 74.0381 105.412 73.9116 105.412 73.7948C105.412 73.6585 105.393 73.5223 105.354 73.386L104.653 66.9912C104.439 65.3755 104.186 63.7889 103.894 62.2316C103.602 60.6548 103.29 59.0975 102.959 57.5596C102.629 56.0023 102.288 54.4547 101.937 52.9168C101.607 51.3789 101.295 49.8216 101.003 48.2448L100.507 45.792C100.409 45.3832 100.322 44.9744 100.244 44.5656C100.166 44.1568 100.088 43.748 100.01 43.3392L99.4847 40.8572L98.9007 38.4336C98.8228 38.1221 98.7449 37.8009 98.6671 37.47C98.5892 37.1391 98.5405 36.8179 98.5211 36.5064L98.1123 33.5572C98.1123 33.4793 98.1123 33.4015 98.1123 33.3236C98.1123 33.2457 98.1025 33.1581 98.0831 33.0608L98.0247 32.5936C98.0247 32.4573 98.0344 32.36 98.0539 32.3016L98.1707 31.6008C98.1707 31.5813 98.1804 31.5619 98.1999 31.5424C98.1999 31.5424 98.2096 31.5619 98.2291 31.6008C98.2096 31.5229 98.1901 31.4548 98.1707 31.3964C98.1707 31.3185 98.1707 31.2309 98.1707 31.1336C98.1707 31.0947 98.1707 31.0655 98.1707 31.046C98.1901 31.0265 98.1999 30.9973 98.1999 30.9584L98.4043 29.6152C98.4432 29.5179 98.4724 29.4205 98.4919 29.3232C98.5113 29.2064 98.5308 29.0993 98.5503 29.002L98.6087 28.3888C98.6087 28.4083 98.6184 28.3207 98.6379 28.126C98.6573 27.9313 98.6963 27.7172 98.7547 27.4836C98.8131 27.2305 98.8909 27.0067 98.9883 26.812C99.1051 26.5979 99.2413 26.4908 99.3971 26.4908C99.5139 26.4908 99.6307 26.7147 99.7475 27.1624C99.8837 27.5907 100.001 28.0773 100.098 28.6224C100.195 29.1675 100.273 29.6833 100.331 30.17C100.409 30.6567 100.448 30.9487 100.448 31.046L101.441 35.7764C101.616 36.594 101.782 37.4116 101.937 38.2292C102.093 39.0468 102.278 39.8644 102.492 40.682L103.66 45.5292C104.05 47.1644 104.419 48.7801 104.77 50.3764C105.12 51.9727 105.451 53.6176 105.763 55.3112ZM110.96 15.5116C110.785 15.9593 110.454 16.3584 109.967 16.7088C109.481 17.0397 108.936 17.3317 108.332 17.5848C107.748 17.8379 107.155 18.052 106.551 18.2272C105.967 18.4024 105.48 18.5387 105.091 18.636L104.215 18.8988C103.806 19.0351 103.397 19.1032 102.989 19.1032C102.833 19.1032 102.687 19.0837 102.551 19.0448C102.414 18.9864 102.346 18.8793 102.346 18.7236C102.346 18.5095 102.424 18.2369 102.58 17.906C102.736 17.5556 102.95 17.1857 103.222 16.7964C103.495 16.3876 103.806 15.9885 104.157 15.5992C104.527 15.2099 104.916 14.8595 105.325 14.548C105.733 14.2171 106.152 13.9543 106.58 13.7596C107.028 13.5455 107.456 13.4384 107.865 13.4384C108.254 13.4384 108.605 13.4968 108.916 13.6136C109.228 13.7109 109.52 13.8472 109.792 14.0224L110.493 14.7232C110.61 14.8595 110.717 15.0055 110.814 15.1612C110.912 15.3169 110.96 15.424 110.96 15.4824V15.5116ZM113.15 13.526C113.131 12.8447 112.995 12.2509 112.741 11.7448C112.488 11.2387 112.167 10.8201 111.778 10.4892C111.389 10.1388 110.941 9.88574 110.435 9.73C109.929 9.5548 109.403 9.4672 108.858 9.4672C107.106 9.4672 105.5 10.4697 104.04 12.4748L103.339 13.4384C103.242 13.5747 103.144 13.7012 103.047 13.818C102.969 13.9348 102.891 14.0613 102.813 14.1976L101.937 15.8036L101.353 17.2928L101.003 18.5484C100.945 18.7236 100.828 18.8112 100.653 18.8112C100.633 18.8112 100.614 18.8112 100.594 18.8112C100.594 18.7917 100.585 18.782 100.565 18.782L99.5431 18.5192C99.4652 18.4803 99.3873 18.4511 99.3095 18.4316C99.2316 18.3927 99.1537 18.3537 99.0759 18.3148L98.6087 18.0812C98.2388 17.906 97.9273 17.6919 97.6743 17.4388C97.4407 17.1857 97.1681 17.0592 96.8567 17.0592C96.6036 17.0592 96.3603 17.2149 96.1267 17.5264C95.8931 17.8184 95.6303 18.1591 95.3383 18.5484L93.4403 21.41L93.1775 21.994C93.0607 22.2471 92.9341 22.6072 92.7979 23.0744C92.6811 23.5221 92.6227 23.9309 92.6227 24.3008C92.6227 24.6512 92.7103 24.9043 92.8855 25.06C93.0607 25.1963 93.2261 25.2644 93.3819 25.2644C93.6155 25.2644 93.7809 25.2157 93.8783 25.1184C93.9756 25.0211 94.0437 24.8848 94.0827 24.7096C94.1216 24.5344 94.1508 24.33 94.1703 24.0964C94.1897 23.8628 94.2384 23.6097 94.3163 23.3372C94.3357 23.2788 94.3844 23.1425 94.4623 22.9284C94.5596 22.7143 94.6764 22.4904 94.8127 22.2568C94.9684 22.0232 95.1339 21.8188 95.3091 21.6436C95.4843 21.4489 95.6789 21.3516 95.8931 21.3516C96.0099 21.3516 96.1851 21.4003 96.4187 21.4976L98.2583 22.4612C98.706 22.7337 99.1927 22.9089 99.7183 22.9868C100.244 23.0647 100.75 23.1036 101.237 23.1036C102.541 23.1036 103.835 22.8603 105.12 22.3736C106.425 21.8675 107.719 21.3127 109.004 20.7092C109.452 20.4951 109.919 20.1349 110.405 19.6288C110.892 19.1032 111.34 18.5095 111.749 17.8476C112.157 17.1663 112.488 16.4655 112.741 15.7452C113.014 15.0055 113.15 14.3241 113.15 13.7012V13.526ZM56.8527 36.3896C56.6385 36.0392 56.4925 35.6888 56.4147 35.3384C56.3368 34.9685 56.2979 34.5889 56.2979 34.1996C56.2979 33.8297 56.3271 33.4501 56.3855 33.0608C56.4633 32.6715 56.5509 32.2821 56.6483 31.8928L57.2323 29.6152C57.3101 29.5179 57.3977 29.4497 57.4951 29.4108C57.5924 29.3524 57.6703 29.3232 57.7287 29.3232C57.826 29.3232 57.9039 29.4011 57.9623 29.5568C58.0207 29.6931 58.0499 29.8585 58.0499 30.0532C58.0499 30.2673 58.0304 30.4912 57.9915 30.7248C57.972 30.9584 57.9623 31.1531 57.9623 31.3088C57.9623 31.7565 58.0401 32.1459 58.1959 32.4768C58.3711 32.7883 58.5852 33.0511 58.8383 33.2652C59.1108 33.4793 59.4028 33.6448 59.7143 33.7616C60.0452 33.8589 60.3567 33.9076 60.6487 33.9076C60.8628 33.9076 61.0575 33.8881 61.2327 33.8492C61.4079 33.7908 61.6123 33.7129 61.8459 33.6156L62.4883 33.382C62.6245 33.3236 62.7511 33.2749 62.8679 33.236C63.0041 33.1971 63.1112 33.1387 63.1891 33.0608C63.2669 32.9635 63.3253 32.8369 63.3643 32.6812C63.4227 32.5255 63.4519 32.3016 63.4519 32.0096C63.4519 31.9512 63.4421 31.9025 63.4227 31.8636C63.4227 31.8052 63.4227 31.7468 63.4227 31.6884L63.4811 30.0532C63.52 29.294 63.5881 28.6127 63.6855 28.0092C63.7828 27.5031 63.8996 27.0359 64.0359 26.6076C64.1721 26.1599 64.3765 25.936 64.6491 25.936C64.7659 25.936 64.8632 26.0236 64.9411 26.1988C65.0384 26.374 65.1163 26.5687 65.1747 26.7828C65.2525 26.9969 65.3109 27.2111 65.3499 27.4252C65.3888 27.6393 65.4083 27.7756 65.4083 27.834C65.4083 27.9897 65.3985 28.1844 65.3791 28.418C65.3596 28.6321 65.3499 28.8657 65.3499 29.1188C65.3499 29.8585 65.4861 30.3939 65.7587 30.7248C66.0507 31.0363 66.5373 31.192 67.2187 31.192C67.9389 31.192 68.5035 31.0557 68.9123 30.7832C69.3211 30.5107 69.5255 30.2187 69.5255 29.9072C69.5255 29.6152 69.4573 29.294 69.3211 28.9436C69.2043 28.5932 69.1459 28.1552 69.1459 27.6296C69.1653 27.2792 69.2043 26.8996 69.2627 26.4908C69.3405 26.082 69.4281 25.7121 69.5255 25.3812C69.6423 25.0308 69.7591 24.7388 69.8759 24.5052C70.0121 24.2716 70.1484 24.1548 70.2847 24.1548C70.4015 24.1548 70.5085 24.2229 70.6059 24.3592C70.7032 24.4955 70.7908 24.6707 70.8687 24.8848C70.9465 25.0795 71.0147 25.2936 71.0731 25.5272C71.1315 25.7413 71.1801 25.936 71.2191 26.1112L71.6279 27.8048C71.7057 28.1357 71.7641 28.4861 71.8031 28.856C71.8615 29.2064 71.9004 29.5471 71.9199 29.878C71.8031 31.2212 71.4137 32.3113 70.7519 33.1484C70.1095 33.9855 69.1361 34.6473 67.8319 35.134L67.1311 35.3092C66.8585 35.3676 66.6055 35.3968 66.3719 35.3968C65.9631 35.3968 65.6224 35.3189 65.3499 35.1632C65.0773 35.0075 64.8535 34.9296 64.6783 34.9296H64.5907L64.3279 35.1632C64.2695 35.2216 64.2013 35.3481 64.1235 35.5428L63.9191 35.8932C63.4908 36.5356 62.9068 37.0709 62.1671 37.4992C61.4273 37.908 60.6487 38.1124 59.8311 38.1124C59.2276 38.1124 58.6631 37.9859 58.1375 37.7328C57.6313 37.4603 57.2031 37.0125 56.8527 36.3896ZM77.9935 90.1176C78.2271 90.1565 78.3828 90.2441 78.4607 90.3804C78.558 90.5361 78.6067 90.7211 78.6067 90.9352C78.6067 91.6165 78.5288 92.1811 78.3731 92.6288C78.2173 93.096 78.0032 93.4756 77.7307 93.7676C77.4776 94.0791 77.1856 94.3224 76.8547 94.4976C76.5237 94.6923 76.1831 94.848 75.8327 94.9648C75.0151 95.1789 74.1001 95.4709 73.0879 95.8408C72.0951 96.2301 71.1607 96.6 70.2847 96.9504L66.1383 98.6148C64.7951 99.2377 63.3837 99.7731 61.9043 100.221C60.4248 100.669 58.9745 101.116 57.5535 101.564L54.6627 102.674C54.4291 102.79 54.2247 102.849 54.0495 102.849C53.8548 102.849 53.7185 102.771 53.6407 102.615C53.5823 102.459 53.5531 102.284 53.5531 102.09C53.5531 101.72 53.6115 101.311 53.7283 100.863L53.9911 99.8996C54.0689 99.4908 54.2733 99.1599 54.6043 98.9068C54.9547 98.6537 55.3537 98.4396 55.8015 98.2644C56.2492 98.1087 56.7067 97.9724 57.1739 97.8556C57.6411 97.7583 58.0499 97.6512 58.4003 97.5344L63.4519 95.8408C64.1916 95.5293 64.9313 95.2373 65.6711 94.9648C66.4108 94.7117 67.1505 94.4392 67.8903 94.1472L70.0803 93.2712C70.82 92.9792 71.5695 92.658 72.3287 92.3076C73.1073 91.9767 73.8763 91.6749 74.6355 91.4024L75.4239 91.052C75.5601 90.9936 75.7353 90.906 75.9495 90.7892C76.1636 90.6919 76.3777 90.5945 76.5919 90.4972C76.8255 90.3999 77.0493 90.3123 77.2635 90.2344C77.4971 90.1565 77.7015 90.1176 77.8767 90.1176H77.9935ZM90.8707 67.0204L91.3963 72.1596C91.5131 73.1524 91.5715 74.116 91.5715 75.0504C91.5715 76.2379 91.4839 77.4253 91.3087 78.6128C91.1335 79.7808 90.7831 80.8417 90.2575 81.7956C89.7513 82.73 89.0311 83.4892 88.0967 84.0732C87.1817 84.6572 85.9748 84.9492 84.4759 84.9492C84.106 84.9492 83.7751 84.9103 83.4831 84.8324C82.7239 84.6572 82.0815 84.4528 81.5559 84.2192C81.0303 83.9856 80.5825 83.7325 80.2127 83.46C79.8623 83.2069 79.5703 82.9539 79.3367 82.7008C79.1031 82.4477 78.8889 82.2141 78.6943 82L77.7307 81.0072C77.2829 80.54 76.8547 80.0436 76.4459 79.518C76.0565 78.9924 75.7159 78.4473 75.4239 77.8828L74.5771 75.9264C74.4603 75.6733 74.3532 75.4203 74.2559 75.1672C74.1585 74.8947 74.0904 74.5929 74.0515 74.262L73.8763 73.5028C73.7789 73.2497 73.7011 73.0064 73.6427 72.7728C73.5843 72.5197 73.4772 72.3153 73.3215 72.1596V72.1888C73.3215 72.3056 73.2144 72.5197 73.0003 72.8312L72.1243 74.1452C71.9685 74.3983 71.8128 74.6319 71.6571 74.846C71.5013 75.0601 71.3456 75.2743 71.1899 75.4884L70.6935 76.1892L69.8175 77.1528L68.8539 78.058C68.6981 78.2137 68.5229 78.35 68.3283 78.4668C68.1531 78.5836 67.9779 78.6907 67.8027 78.788C67.7637 78.8269 67.4231 79.0021 66.7807 79.3136C66.1383 79.6056 65.3207 79.9365 64.3279 80.3064C63.3351 80.6763 62.2352 81.0072 61.0283 81.2992C59.8408 81.5912 58.6825 81.7372 57.5535 81.7372C56.95 81.7372 56.3757 81.6885 55.8307 81.5912C55.3051 81.4744 54.8379 81.2797 54.4291 81.0072C54.0397 80.7152 53.7283 80.3453 53.4947 79.8976C53.2611 79.4304 53.1443 78.8464 53.1443 78.1456C53.1248 77.3669 53.154 76.6564 53.2319 76.014C53.2903 75.4884 53.3973 75.0017 53.5531 74.554C53.7088 74.1063 53.9327 73.8824 54.2247 73.8824C54.3609 73.8824 54.5264 73.9505 54.7211 74.0868L55.5971 74.7C56.0448 75.0309 56.4925 75.2451 56.9403 75.3424C57.388 75.4203 57.9039 75.4689 58.4879 75.4884C59.2471 75.4884 60.0355 75.4495 60.8531 75.3716C61.6901 75.2743 62.5175 75.138 63.3351 74.9628C64.1721 74.7681 64.9897 74.5151 65.7879 74.2036C66.6055 73.8921 67.3744 73.5125 68.0947 73.0648C68.5035 72.8117 68.9512 72.4905 69.4379 72.1012C69.944 71.6924 70.4112 71.2447 70.8395 70.758C71.2872 70.2519 71.6571 69.7068 71.9491 69.1228C72.2411 68.5388 72.3871 67.9256 72.3871 67.2832C72.3871 66.5629 72.2703 65.8621 72.0367 65.1808C71.8225 64.48 71.6279 63.8084 71.4527 63.166L70.9855 61.4432C70.8492 60.976 70.7324 60.5088 70.6351 60.0416C70.5377 59.5549 70.4404 59.0683 70.3431 58.5816L70.1095 57.5012C70.0121 57.1313 69.9343 56.7615 69.8759 56.3916C69.8369 56.0217 69.8175 55.6519 69.8175 55.282C69.8175 54.7175 69.9051 54.1724 70.0803 53.6468C70.2749 53.1212 70.4015 52.5664 70.4599 51.9824C70.4599 52.0213 70.4793 51.8948 70.5183 51.6028C70.5572 51.3108 70.6156 50.9896 70.6935 50.6392C70.7908 50.2693 70.8979 49.9384 71.0147 49.6464C71.1509 49.3349 71.2969 49.1792 71.4527 49.1792C71.55 49.1792 71.6473 49.2376 71.7447 49.3544C71.842 49.4517 71.9101 49.6075 71.9491 49.8216L72.0367 50.5224V51.2232C72.0172 51.2816 72.0075 51.3789 72.0075 51.5152C71.988 51.7293 71.9977 51.9435 72.0367 52.1576C72.0951 52.3523 72.1535 52.5469 72.2119 52.7416L72.7083 54.6396C73.1171 56.158 73.4383 57.7737 73.6719 59.4868C74.1585 62.2316 74.7328 64.772 75.3947 67.108C76.076 69.444 76.8936 71.4685 77.8475 73.1816C78.8208 74.8752 79.9694 76.2087 81.2931 77.182C82.6363 78.1359 84.2131 78.6128 86.0235 78.6128C86.0819 78.6128 86.1403 78.6128 86.1987 78.6128C86.2571 78.5933 86.3252 78.5836 86.4031 78.5836C86.5588 78.5836 86.8021 78.5447 87.1331 78.4668C87.464 78.3889 87.7949 78.2721 88.1259 78.1164C88.4568 77.9412 88.7488 77.7368 89.0019 77.5032C89.2549 77.2696 89.3815 76.9873 89.3815 76.6564V76.5396C89.1673 74.4177 88.8851 72.3348 88.5347 70.2908C88.1843 68.2273 87.7852 66.1444 87.3375 64.042L86.0235 57.8808C85.6731 56.2261 85.3227 54.6007 84.9723 53.0044C84.6413 51.4081 84.3396 49.7827 84.0671 48.128L82.8699 41.0032C82.7725 40.4387 82.6655 39.8644 82.5487 39.2804C82.4319 38.6769 82.3053 38.0735 82.1691 37.47C82.0523 37.0028 82.0036 36.5064 82.0231 35.9808C82.062 35.4552 82.0328 34.9588 81.9355 34.4916C81.8965 34.3164 81.7603 34.0536 81.5267 33.7032C81.2931 33.3333 81.04 32.9148 80.7675 32.4476C80.4949 31.9609 80.2419 31.4353 80.0083 30.8708C79.7941 30.3063 79.6871 29.732 79.6871 29.148C79.6871 28.6224 79.8039 28.126 80.0375 27.6588L80.9135 25.8776C80.9524 25.7997 81.0205 25.6343 81.1179 25.3812C81.2347 25.1087 81.3612 24.8459 81.4975 24.5928C81.6337 24.3203 81.7895 24.0769 81.9647 23.8628C82.1399 23.6487 82.3248 23.5416 82.5195 23.5416C82.792 23.5416 83.0159 23.8141 83.1911 24.3592L83.7459 26.2864C83.8432 26.6757 84.0087 27.0748 84.2423 27.4836C84.4953 27.8729 84.8165 28.272 85.2059 28.6808L85.7607 29.294C86.0137 29.5665 86.2571 29.9072 86.4907 30.316C86.7243 30.7053 86.8508 31.1239 86.8703 31.5716C86.8703 31.8441 86.8021 32.1459 86.6659 32.4768C86.5491 32.7883 86.4128 33.0803 86.2571 33.3528C86.1403 33.5669 85.9845 33.7908 85.7899 34.0244C85.6147 34.258 85.4395 34.5013 85.2643 34.7544C85.0891 34.988 84.9431 35.2216 84.8263 35.4552C84.7095 35.6693 84.6511 35.8543 84.6511 36.01C84.6511 36.2436 84.6997 36.5356 84.7971 36.886L85.0599 38.0248C85.0988 38.3168 85.1377 38.6088 85.1767 38.9008C85.2351 39.1928 85.3129 39.4653 85.4103 39.7184L86.4031 44.624L87.8047 51.0188C87.9215 51.5639 88.0383 52.0992 88.1551 52.6248C88.2719 53.1504 88.3789 53.6857 88.4763 54.2308C88.6709 55.2236 88.8851 56.2456 89.1187 57.2968C89.3717 58.348 89.6053 59.4187 89.8195 60.5088C90.0531 61.5989 90.2575 62.6891 90.4327 63.7792C90.6273 64.8693 90.7733 65.9497 90.8707 67.0204ZM47.7131 84.4236C47.9856 84.482 48.2873 84.6085 48.6183 84.8032C48.9492 85.0173 49.2607 85.2412 49.5527 85.4748C49.8447 85.7279 50.1075 85.9712 50.3411 86.2048C50.5747 86.4384 50.7401 86.5941 50.8375 86.672L51.2755 87.0808L51.6259 87.548C51.7427 87.7037 51.8497 87.8887 51.9471 88.1028C52.0639 88.3169 52.1223 88.5116 52.1223 88.6868C52.1223 89.0372 52.0152 89.3779 51.8011 89.7088C51.5869 90.0592 51.3339 90.3609 51.0419 90.614C50.9835 90.6724 50.8861 90.8184 50.7499 91.052C50.6331 91.3051 50.4968 91.5581 50.3411 91.8112C50.1853 92.0837 50.0101 92.3271 49.8155 92.5412C49.6208 92.7553 49.4261 92.8624 49.2315 92.8624C49.0173 92.8624 48.7935 92.7456 48.5599 92.512C48.3263 92.2979 48.0635 92.0935 47.7715 91.8988L46.8079 91.2856C46.6716 91.2077 46.4964 91.1007 46.2823 90.9644C46.0876 90.8476 45.8832 90.7308 45.6691 90.614C45.4744 90.4972 45.2895 90.3901 45.1143 90.2928C44.9391 90.2149 44.8125 90.176 44.7347 90.176C44.6179 90.176 44.4913 90.2344 44.3551 90.3512C44.2383 90.4875 44.1117 90.6529 43.9755 90.8476C43.8587 91.0423 43.7321 91.2467 43.5959 91.4608C43.4791 91.6944 43.3817 91.9085 43.3039 92.1032L43.0119 92.7164C42.7393 93.2809 42.4765 93.6508 42.2235 93.826C41.9704 94.0207 41.6492 94.118 41.2599 94.118C40.7927 94.118 40.2768 93.9428 39.7123 93.5924C39.1672 93.2615 38.6319 92.9403 38.1063 92.6288L37.4055 92.22C37.1135 92.0643 36.8604 91.8793 36.6463 91.6652C36.4516 91.4705 36.3543 91.2272 36.3543 90.9352C36.3543 90.8184 36.4029 90.6335 36.5003 90.3804L36.8799 89.446L37.3471 88.4824C37.7559 87.6064 38.0965 86.9737 38.3691 86.5844C38.6416 86.1951 38.9239 86.0004 39.2159 86.0004C39.43 86.0004 39.6539 86.0685 39.8875 86.2048C40.1211 86.3411 40.3644 86.5065 40.6175 86.7012C40.7343 86.7985 40.9289 86.9445 41.2015 87.1392C41.4935 87.3533 41.8147 87.5577 42.1651 87.7524C42.5155 87.9471 42.8659 88.1125 43.2163 88.2488C43.5861 88.4045 43.9073 88.4824 44.1799 88.4824C44.4719 88.4824 44.7639 88.4045 45.0559 88.2488C45.3479 88.0931 45.6009 87.7232 45.8151 87.1392L46.2531 85.8836C46.3699 85.5527 46.5353 85.2217 46.7495 84.8908C46.9636 84.5793 47.2264 84.4236 47.5379 84.4236H47.7131ZM14.7755 53.9096C14.6976 53.8512 14.5321 53.7636 14.2791 53.6468C14.026 53.5105 13.7632 53.3548 13.4907 53.1796C13.2376 52.9849 13.004 52.7708 12.7899 52.5372C12.5952 52.2841 12.4979 52.0213 12.4979 51.7488C12.4979 51.6125 12.5271 51.4665 12.5855 51.3108L13.4031 49.3836C13.442 49.2863 13.4712 49.1792 13.4907 49.0624C13.5296 48.9456 13.5685 48.8288 13.6075 48.712C13.6269 48.5952 13.6853 48.42 13.7827 48.1864C13.8995 47.9528 14.026 47.7192 14.1623 47.4856C14.318 47.252 14.4835 47.0476 14.6587 46.8724C14.8339 46.6972 15.0091 46.6096 15.1843 46.6096C15.3595 46.6096 15.6028 46.6972 15.9143 46.8724C16.2257 47.0476 16.5567 47.2715 16.9071 47.544C17.2575 47.7971 17.5981 48.0891 17.9291 48.42C18.2795 48.7509 18.5812 49.0721 18.8343 49.3836L19.7395 50.5516C19.9536 50.8631 20.0607 51.1843 20.0607 51.5152C20.0607 51.8461 19.9536 52.1576 19.7395 52.4496C19.5448 52.7416 19.3112 53.0531 19.0387 53.384C19.0192 53.4229 18.9511 53.5495 18.8343 53.7636C18.7369 53.9583 18.6007 54.1821 18.4255 54.4352C18.2697 54.6883 18.0945 54.9121 17.8999 55.1068C17.7052 55.3015 17.5203 55.3988 17.3451 55.3988C17.1504 55.3988 16.9168 55.3112 16.6443 55.136C16.3912 54.9608 16.1284 54.7953 15.8559 54.6396L15.3011 54.2892C15.2037 54.2308 15.1161 54.1724 15.0383 54.114C14.9604 54.0556 14.8728 53.9875 14.7755 53.9096ZM28.8499 94.4976C29.1419 94.5755 29.3268 94.7215 29.4047 94.9356C29.502 95.1692 29.5507 95.432 29.5507 95.724C29.5507 95.8213 29.5409 95.9187 29.5215 96.016C29.5215 96.1328 29.5117 96.2399 29.4923 96.3372C29.3365 97.0769 29.1224 97.6415 28.8499 98.0308C28.5773 98.4396 28.2756 98.7413 27.9447 98.936C27.6137 99.1501 27.2633 99.3059 26.8935 99.4032C26.5236 99.5005 26.1537 99.6271 25.7839 99.7828L21.4915 101.36C20.7712 101.632 20.0509 101.885 19.3307 102.119C18.6104 102.372 17.8901 102.605 17.1699 102.82C15.8072 103.228 14.5029 103.696 13.2571 104.221C12.0112 104.766 10.7069 105.233 9.34428 105.623L7.35868 106.178C7.20295 106.217 7.03748 106.255 6.86228 106.294C6.68708 106.353 6.52161 106.411 6.36588 106.47C6.17121 106.528 5.95708 106.616 5.72348 106.732C5.48988 106.849 5.29521 106.908 5.13948 106.908C5.04215 106.908 4.95455 106.839 4.87668 106.703C4.81828 106.586 4.78908 106.45 4.78908 106.294C4.78908 106.1 4.81828 105.866 4.87668 105.594L4.96428 105.097C4.98375 104.941 5.00321 104.747 5.02268 104.513C5.06161 104.28 5.12001 104.046 5.19788 103.812C5.27575 103.579 5.39255 103.355 5.54828 103.141C5.70401 102.946 5.92788 102.8 6.21988 102.703L7.27108 102.352C7.44628 102.313 7.62148 102.255 7.79668 102.177C7.97188 102.119 8.14708 102.07 8.32228 102.031L9.40268 101.739L12.2059 100.776C12.4979 100.678 12.7899 100.571 13.0819 100.454C13.3739 100.338 13.6659 100.221 13.9579 100.104L17.4619 98.8192L22.6011 97.038L27.2731 95.2276L28.4995 94.556C28.5773 94.5171 28.6552 94.4976 28.7331 94.4976H28.8499ZM52.2391 53.676C52.1807 52.8584 52.0736 52.0797 51.9179 51.34C51.7621 50.5808 51.5383 49.8216 51.2463 49.0624L50.6623 47.5732C50.3897 47.0087 50.1269 46.5609 49.8739 46.23C49.6403 45.8796 49.4067 45.7044 49.1731 45.7044C49.0173 45.7044 48.8227 45.8699 48.5891 46.2008C48.3749 46.5123 48.2192 47.0281 48.1219 47.7484L47.9759 49.004C47.9369 49.3739 47.8785 49.7048 47.8007 49.9968C47.7228 50.2693 47.6839 50.5419 47.6839 50.8144C47.6839 51.0091 47.7033 51.1843 47.7423 51.34C47.7812 51.4763 47.8396 51.6417 47.9175 51.8364C47.9759 51.9921 48.1024 52.2647 48.2971 52.654C48.5112 53.0433 48.7351 53.4813 48.9687 53.968C49.2023 54.4352 49.4067 54.9219 49.5819 55.428C49.7571 55.9341 49.8447 56.3916 49.8447 56.8004C49.8447 57.3844 49.6403 57.8029 49.2315 58.056C47.8883 58.932 46.4477 59.5647 44.9099 59.954C43.372 60.3239 41.8147 60.5088 40.2379 60.5088C39.7123 60.5088 39.1867 60.4893 38.6611 60.4504C38.1355 60.392 37.6099 60.3141 37.0843 60.2168C36.6755 60.1389 36.218 60.0416 35.7119 59.9248C35.2252 59.7885 34.7483 59.6328 34.2811 59.4576C33.8333 59.2824 33.4245 59.0877 33.0547 58.8736C32.6848 58.6595 32.4123 58.4259 32.2371 58.1728C31.9061 57.6861 31.6628 57.1897 31.5071 56.6836C31.3708 56.1775 31.254 55.72 31.1567 55.3112C31.0788 54.8829 30.9912 54.5325 30.8939 54.26C30.7965 53.9875 30.6408 53.8512 30.4267 53.8512C30.3099 53.8512 30.1833 53.9388 30.0471 54.114C29.9303 54.2892 29.8232 54.5131 29.7259 54.7856C29.6285 55.0581 29.5312 55.3696 29.4339 55.72C29.356 56.0509 29.2879 56.3819 29.2295 56.7128L28.9375 57.9976C28.8012 58.348 28.7331 58.7763 28.7331 59.2824C28.7331 60.0221 28.8693 60.8397 29.1419 61.7352C29.4144 62.6307 29.7356 63.458 30.1055 64.2172L30.8939 66.1152C31.0107 66.4072 31.1469 66.7965 31.3027 67.2832C31.4779 67.7504 31.6336 68.2857 31.7699 68.8892C31.9256 69.4927 32.0521 70.1351 32.1495 70.8164C32.2663 71.4977 32.3247 72.1791 32.3247 72.8604C32.3247 73.7559 32.1203 74.6124 31.7115 75.43C31.0885 76.6953 30.1736 77.8147 28.9667 78.788C27.7792 79.7419 26.4457 80.5595 24.9663 81.2408C23.4868 81.9027 21.9295 82.3991 20.2943 82.73C18.6591 83.0804 17.1017 83.2556 15.6223 83.2556C15.2135 83.2556 14.8047 83.2459 14.3959 83.2264C13.9871 83.2069 13.588 83.168 13.1987 83.1096C12.6731 83.0317 12.0112 82.876 11.2131 82.6424C10.4344 82.4283 9.64601 82.1363 8.84788 81.7664C8.04975 81.3771 7.30028 80.9196 6.59948 80.394C5.89868 79.8489 5.39255 79.226 5.08108 78.5252C4.90588 78.1164 4.70148 77.7076 4.46788 77.2988C4.25375 76.8705 4.04935 76.452 3.85468 76.0432C3.67948 75.6149 3.52375 75.1964 3.38748 74.7876C3.27068 74.3593 3.21228 73.9505 3.21228 73.5612C3.21228 73.1135 3.29015 72.6365 3.44588 72.1304C3.62108 71.6243 3.75735 71.1181 3.85468 70.612L4.20508 68.8308C4.32188 68.2468 4.44841 67.6628 4.58468 67.0788C4.74041 66.4948 4.93508 65.9108 5.16868 65.3268L5.51908 64.188C5.63588 63.7987 5.72348 63.3996 5.78188 62.9908C5.85975 62.5625 5.90841 62.1732 5.92788 61.8228C5.92788 61.5697 5.89868 61.3459 5.84028 61.1512C5.80135 60.9371 5.70401 60.83 5.54828 60.83C5.23681 60.83 4.95455 61.0149 4.70148 61.3848C4.44841 61.7352 4.28295 62.1537 4.20508 62.6404L4.08828 63.3996C4.04935 63.6721 3.97148 63.9057 3.85468 64.1004C3.25121 65.0932 2.77428 66.232 2.42388 67.5168C2.07348 68.7821 1.79121 70.0572 1.57708 71.342L1.13908 73.824C1.10015 74.2523 0.983346 74.7292 0.788679 75.2548C0.613479 75.7804 0.525879 76.2963 0.525879 76.8024C0.525879 77.4837 0.594012 78.1359 0.730279 78.7588C0.866546 79.3817 1.05148 79.9949 1.28508 80.5984L1.63548 81.7956C1.83015 82.4769 2.13188 83.1291 2.54068 83.752C2.96895 84.3944 3.46535 84.9784 4.02988 85.504C4.59441 86.0491 5.20761 86.5357 5.86948 86.964C6.55081 87.3923 7.25161 87.7427 7.97188 88.0152L9.08148 88.4824C9.56814 88.6965 10.0645 88.8717 10.5707 89.008C11.0768 89.1443 11.6024 89.2124 12.1475 89.2124C12.3032 89.2124 12.4589 89.2027 12.6147 89.1832C12.7899 89.1637 12.9748 89.154 13.1695 89.154C13.6561 89.154 14.172 89.1929 14.7171 89.2708C15.2621 89.3681 15.7585 89.4168 16.2063 89.4168C16.7124 89.4168 17.1991 89.3097 17.6663 89.0956C18.1335 88.9009 18.6104 88.7841 19.0971 88.7452L20.0315 88.57C20.3819 88.5116 20.7323 88.4337 21.0827 88.3364C21.4331 88.2585 21.7737 88.1417 22.1047 87.986L23.2435 87.548C23.4381 87.4701 23.6231 87.3923 23.7983 87.3144C23.9929 87.2365 24.1876 87.1489 24.3823 87.0516L25.4919 86.4676C27.9252 85.1244 29.8037 83.6547 31.1275 82.0584C32.4707 80.4621 33.3272 78.7491 33.6971 76.9192C33.7165 76.5883 33.7749 76.2573 33.8723 75.9264C33.9891 75.576 34.1059 75.2353 34.2227 74.9044C34.3589 74.554 34.4757 74.2036 34.5731 73.8532C34.6704 73.5028 34.7191 73.1524 34.7191 72.802C34.7191 72.6852 34.7191 72.5295 34.7191 72.3348C34.7191 72.1401 34.7093 71.9065 34.6899 71.634L34.5731 69.2104C34.5341 68.7043 34.5049 68.2176 34.4855 67.7504C34.466 67.2637 34.466 66.8257 34.4855 66.4364C34.4855 66.0471 34.5244 65.8524 34.6023 65.8524C34.7775 65.8719 34.9527 65.8913 35.1279 65.9108C35.3031 65.9303 35.4783 65.9595 35.6535 65.9984L37.8435 66.4948C38.3885 66.6311 38.9531 66.6992 39.5371 66.6992C39.576 66.6992 39.6149 66.6992 39.6539 66.6992C39.7123 66.6797 39.7609 66.67 39.7999 66.67L40.6467 66.6116L42.3695 66.3488C43.0508 66.2709 43.7419 66.1249 44.4427 65.9108C45.1435 65.6772 45.8345 65.3949 46.5159 65.064L47.8591 64.4508C48.5988 64.0809 49.2023 63.7208 49.6695 63.3704C50.1561 63.02 50.5357 62.6404 50.8083 62.2316C51.1003 61.8228 51.3144 61.3751 51.4507 60.8884C51.5869 60.3823 51.6843 59.7885 51.7427 59.1072L51.8303 58.1436C51.8887 57.4817 51.9665 56.8393 52.0639 56.2164C52.1807 55.574 52.2488 54.9219 52.2683 54.26C52.2683 54.1627 52.2585 54.0653 52.2391 53.968C52.2391 53.8707 52.2391 53.7733 52.2391 53.676Z" fill="black"/>
<path d="M141.091 34.2288C141.266 34.4624 141.499 34.6571 141.791 34.8128L142.58 35.2508C142.833 35.3871 143.115 35.5136 143.427 35.6304L144.711 36.3604C144.789 36.3993 144.857 36.4285 144.916 36.448C144.974 36.4675 145.042 36.4869 145.12 36.5064C145.315 36.5064 145.549 36.3507 145.821 36.0392C146.113 35.7083 146.386 35.3287 146.639 34.9004C146.911 34.4721 147.135 34.0341 147.31 33.5864C147.505 33.1387 147.602 32.7883 147.602 32.5352C147.602 32.0096 147.378 31.4645 146.931 30.9C146.814 30.7637 146.619 30.5593 146.347 30.2868C146.074 30.0143 145.772 29.7417 145.441 29.4692C145.111 29.1967 144.76 28.9631 144.39 28.7684C144.02 28.5737 143.689 28.4764 143.397 28.4764C143.144 28.4764 142.95 28.6029 142.813 28.856C142.677 29.0896 142.56 29.3524 142.463 29.6444L142.229 30.2868C142.191 30.3841 142.152 30.4912 142.113 30.608C142.093 30.7248 142.064 30.8319 142.025 30.9292L141.791 31.5716L141.441 32.1848C141.305 32.3989 141.178 32.6228 141.061 32.8564C140.945 33.09 140.886 33.3431 140.886 33.6156C140.886 33.7129 140.896 33.8103 140.915 33.9076C140.935 34.0049 140.993 34.112 141.091 34.2288ZM163.37 92.804L163.808 91.636C164.022 91.0909 164.129 90.614 164.129 90.2052C164.129 89.9327 164.071 89.6991 163.954 89.5044C163.837 89.3292 163.633 89.2416 163.341 89.2416C163.224 89.2416 163.049 89.2611 162.815 89.3C162.601 89.3389 162.446 89.3876 162.348 89.446L162.115 89.6504C162.037 89.7088 161.969 89.7769 161.91 89.8548L160.363 90.6724C160.265 90.7308 160.158 90.7892 160.041 90.8476C159.944 90.906 159.847 90.9547 159.749 90.9936L159.107 91.3148C158.659 91.5095 158.221 91.6944 157.793 91.8696C157.365 92.0448 156.937 92.2297 156.508 92.4244L153.909 93.5632C152.741 94.0693 151.564 94.556 150.376 95.0232C149.189 95.4904 147.953 95.9187 146.668 96.308L144.741 97.0088C144.41 97.1061 144.079 97.2132 143.748 97.33C143.436 97.4663 143.115 97.5831 142.784 97.6804L140.799 98.2936C140.39 98.4299 140.078 98.7511 139.864 99.2572C139.65 99.7828 139.524 100.328 139.485 100.892L139.397 101.973C139.397 102.265 139.563 102.411 139.893 102.411C140.01 102.411 140.156 102.382 140.331 102.323C140.507 102.284 140.682 102.226 140.857 102.148C141.032 102.07 141.188 101.973 141.324 101.856C141.461 101.759 141.548 101.652 141.587 101.535C141.762 101.593 141.976 101.622 142.229 101.622C142.638 101.603 143.125 101.515 143.689 101.36C144.273 101.223 144.848 101.029 145.412 100.776L147.544 99.8412C148.089 99.6076 148.605 99.3935 149.091 99.1988C149.578 99.0236 150.036 98.8581 150.464 98.7024C150.912 98.5467 151.35 98.3812 151.778 98.206C152.226 98.0503 152.683 97.8751 153.15 97.6804C153.929 97.4079 154.688 97.0672 155.428 96.6584C156.187 96.2691 156.927 95.9576 157.647 95.724L158.435 95.3736C158.572 95.3347 158.698 95.286 158.815 95.2276C158.932 95.1692 159.058 95.1108 159.195 95.0524L159.954 94.6728C160.051 94.6144 160.256 94.5365 160.567 94.4392C160.898 94.3419 161.239 94.2251 161.589 94.0888C161.959 93.9525 162.309 93.7773 162.64 93.5632C162.991 93.3491 163.234 93.096 163.37 92.804ZM153.296 54.1724C153.608 53.8025 153.763 53.4619 153.763 53.1504C153.763 52.9947 153.744 52.8681 153.705 52.7708C153.666 52.654 153.598 52.5177 153.501 52.362L153.033 51.6612C152.878 51.4276 152.703 51.2135 152.508 51.0188C152.313 50.8241 152.109 50.6197 151.895 50.4056C151.778 50.2888 151.603 50.1428 151.369 49.9676C151.135 49.7729 150.873 49.588 150.581 49.4128C150.308 49.2376 150.016 49.0916 149.705 48.9748C149.393 48.8385 149.101 48.7704 148.829 48.7704C148.595 48.7704 148.391 48.8288 148.215 48.9456C148.04 49.0429 147.846 49.2279 147.631 49.5004L147.135 50.172C146.863 50.5419 146.59 50.9604 146.317 51.4276C146.064 51.8948 145.938 52.2939 145.938 52.6248C145.938 52.7416 145.957 52.8389 145.996 52.9168C146.522 53.8123 147.135 54.4741 147.836 54.9024C148.556 55.3307 149.306 55.5448 150.084 55.5448C150.668 55.5448 151.223 55.428 151.749 55.1944C152.274 54.9608 152.79 54.6201 153.296 54.1724ZM140.74 91.928C140.156 91.9669 139.582 91.9961 139.017 92.0156C138.453 92.0351 137.898 92.0448 137.353 92.0448C134.725 92.0448 132.477 91.6457 130.608 90.8476C128.759 90.0495 127.23 89.008 126.023 87.7232C124.836 86.4384 123.96 84.9881 123.395 83.3724C122.85 81.7567 122.578 80.1215 122.578 78.4668C122.578 76.6175 122.831 74.7876 123.337 72.9772C123.843 71.1473 124.486 69.3856 125.264 67.692C125.342 67.5363 125.42 67.2443 125.498 66.816C125.595 66.3877 125.731 65.9595 125.907 65.5312C126.082 65.0835 126.296 64.6941 126.549 64.3632C126.822 64.0128 127.172 63.8376 127.6 63.8376C127.678 63.8376 127.795 63.8473 127.951 63.8668C128.126 63.8863 128.213 63.9544 128.213 64.0712C128.194 64.2659 128.106 64.6163 127.951 65.1224C127.814 65.6285 127.649 66.1639 127.454 66.7284L126.753 68.7432C126.637 69.0741 126.549 69.3467 126.491 69.5608C126.452 69.7555 126.413 69.9015 126.374 69.9988C126.277 70.4855 126.169 70.9332 126.053 71.342C125.936 71.7313 125.829 72.1109 125.731 72.4808C125.634 72.8507 125.547 73.2205 125.469 73.5904C125.41 73.9603 125.381 74.3593 125.381 74.7876C125.556 76.8511 126.072 78.6128 126.929 80.0728C127.785 81.5133 128.836 82.6911 130.082 83.606C131.348 84.5209 132.739 85.1828 134.258 85.5916C135.796 86.0199 137.334 86.234 138.871 86.234C141.032 86.234 143.115 85.9225 145.12 85.2996C147.145 84.6767 149.101 83.898 150.989 82.9636L152.771 82C152.79 82 152.936 81.9124 153.209 81.7372C153.501 81.562 153.851 81.3381 154.26 81.0656C154.688 80.7736 155.146 80.4524 155.632 80.102C156.119 79.7516 156.567 79.4012 156.975 79.0508C157.384 78.6809 157.725 78.3305 157.997 77.9996C158.27 77.6687 158.406 77.3864 158.406 77.1528C158.406 76.9581 158.26 76.7829 157.968 76.6272C157.696 76.4715 157.326 76.3352 156.859 76.2184C156.391 76.0821 155.866 75.9751 155.282 75.8972C154.698 75.7999 154.104 75.722 153.501 75.6636C152.917 75.5857 152.342 75.5273 151.778 75.4884C151.213 75.4495 150.727 75.4203 150.318 75.4008L147.223 75.1672C147.145 75.1477 147.047 75.138 146.931 75.138C146.833 75.138 146.717 75.1283 146.58 75.1088L145.792 75.0212C145.48 74.9628 145.218 74.8752 145.003 74.7584C144.789 74.6416 144.682 74.4664 144.682 74.2328C144.682 74.1549 144.692 74.1063 144.711 74.0868L144.916 73.5612C144.994 73.4444 145.052 73.2984 145.091 73.1232C145.13 72.9285 145.159 72.7533 145.179 72.5976L145.295 71.926C145.393 71.1279 145.626 70.5633 145.996 70.2324C146.386 69.9015 146.833 69.6776 147.339 69.5608C147.865 69.4245 148.42 69.3369 149.004 69.298C149.588 69.2396 150.143 69.0936 150.668 68.86L152.245 68.2176C152.751 67.984 153.277 67.7017 153.822 67.3708C154.367 67.0204 154.854 66.5921 155.282 66.086C155.73 65.5604 156.09 64.9472 156.362 64.2464C156.654 63.5456 156.8 62.7085 156.8 61.7352C156.8 61.4821 156.771 61.2388 156.713 61.0052L156.567 60.0124C156.528 59.7204 156.479 59.4089 156.421 59.078C156.362 58.7471 156.284 58.4356 156.187 58.1436C156.109 57.8321 156.012 57.5499 155.895 57.2968C155.778 57.0437 155.642 56.8491 155.486 56.7128V56.742C155.486 56.7809 155.467 56.8491 155.428 56.9464C155.389 57.0437 155.311 57.1703 155.194 57.326L154.347 58.5232C154.192 58.7373 154.036 58.9417 153.88 59.1364C153.725 59.3311 153.569 59.5257 153.413 59.7204L152.917 60.3336C152.527 60.8397 152.021 61.1999 151.398 61.414C150.775 61.6281 150.182 61.7449 149.617 61.7644C149.014 61.7644 148.439 61.6768 147.894 61.5016C147.349 61.3069 146.785 60.9955 146.201 60.5672L145.295 59.7788C144.497 59.0975 143.962 58.4745 143.689 57.91C143.417 57.3455 143.281 56.7712 143.281 56.1872C143.281 55.5837 143.359 54.9803 143.514 54.3768C143.67 53.7733 143.787 53.1893 143.865 52.6248C143.981 51.632 144.176 50.6684 144.449 49.734C144.741 48.7996 145.13 47.8749 145.617 46.96L146.405 45.4708C146.58 45.1593 146.785 44.8381 147.018 44.5072C147.271 44.1568 147.544 43.8356 147.836 43.5436C148.128 43.2516 148.439 43.0083 148.77 42.8136C149.121 42.6189 149.471 42.5216 149.821 42.5216C150.094 42.5216 150.396 42.58 150.727 42.6968C151.077 42.8136 151.418 42.9693 151.749 43.164C152.099 43.3587 152.43 43.5728 152.741 43.8064C153.072 44.04 153.355 44.2736 153.588 44.5072C154.659 45.5389 155.535 46.668 156.216 47.8944C156.898 49.1013 157.433 50.3375 157.822 51.6028C158.231 52.8681 158.513 54.1335 158.669 55.3988C158.825 56.6641 158.903 57.8613 158.903 58.9904C158.903 59.6133 158.873 60.246 158.815 60.8884C158.757 61.5113 158.689 62.1343 158.611 62.7572L158.085 65.3852C157.988 65.8135 157.861 66.2417 157.705 66.67C157.55 67.0788 157.375 67.4876 157.18 67.8964C157.083 68.0911 156.937 68.3149 156.742 68.568C156.567 68.8211 156.382 69.0741 156.187 69.3272C155.992 69.5803 155.827 69.8236 155.691 70.0572C155.554 70.2908 155.486 70.4855 155.486 70.6412C155.992 70.6801 156.557 70.7288 157.18 70.7872C157.803 70.8261 158.406 70.9235 158.99 71.0792C159.38 71.196 159.74 71.3323 160.071 71.488C160.402 71.6437 160.684 71.8773 160.917 72.1888C161.171 72.4808 161.365 72.8701 161.501 73.3568C161.638 73.8435 161.706 74.4761 161.706 75.2548C161.706 76.4812 161.618 77.4643 161.443 78.204C161.268 78.9243 161.054 79.4985 160.801 79.9268C160.548 80.3551 160.275 80.686 159.983 80.9196C159.711 81.1532 159.477 81.3965 159.282 81.6496L158.056 83.1096C157.803 83.4211 157.589 83.6547 157.413 83.8104L156.041 85.0368C155.944 85.1341 155.837 85.2315 155.72 85.3288C155.603 85.4261 155.486 85.5235 155.369 85.6208L154.669 86.234C154.513 86.3703 154.347 86.4968 154.172 86.6136C153.997 86.7304 153.812 86.8472 153.617 86.964L151.369 88.2196C151.116 88.3753 150.843 88.5505 150.551 88.7452C150.279 88.9399 150.065 89.0567 149.909 89.0956L149.179 89.3C149.101 89.3195 149.033 89.3389 148.975 89.3584C148.916 89.3779 148.848 89.4071 148.77 89.446L147.982 89.7964C147.846 89.8743 147.709 89.9424 147.573 90.0008C147.437 90.0592 147.301 90.1176 147.164 90.176L146.347 90.5264L145.5 90.7892L140.74 91.928Z" fill="black"/>
<path d="M355.4 93.4756C355.4 93.0863 355.331 92.8137 355.195 92.658C355.059 92.5023 354.835 92.4244 354.524 92.4244C354.115 92.4244 353.686 92.512 353.239 92.6872C352.81 92.8624 352.382 93.0571 351.954 93.2712L350.757 93.8552L342.668 96.6876C341.929 96.9017 341.199 97.1451 340.478 97.4176C339.778 97.7096 339.057 98.0211 338.318 98.352L336.536 99.1112C335.952 99.3643 335.349 99.5687 334.726 99.7244C334.103 99.8801 333.529 99.9872 333.003 100.046C332.886 100.065 332.779 100.153 332.682 100.308C332.585 100.484 332.487 100.688 332.39 100.922C332.312 101.155 332.244 101.399 332.186 101.652C332.127 101.924 332.088 102.158 332.069 102.352L331.981 103.024C331.942 103.102 331.923 103.209 331.923 103.345C331.923 103.657 331.962 103.842 332.04 103.9C332.117 103.978 332.263 104.017 332.478 104.017C332.633 104.017 332.828 103.968 333.062 103.871C333.315 103.793 333.538 103.705 333.733 103.608L335.427 102.966L338.814 101.71C339.456 101.476 340.079 101.272 340.683 101.097C341.306 100.922 341.929 100.717 342.552 100.484L346.552 99.0236L348.596 98.4396C349.219 98.3033 349.91 98.1184 350.669 97.8848C351.448 97.6707 352.178 97.3689 352.859 96.9796C353.56 96.6097 354.144 96.1328 354.611 95.5488C355.098 94.9843 355.361 94.2932 355.4 93.4756ZM323.163 15.6868C323.221 16.0956 323.357 16.4557 323.572 16.7672C323.805 17.0592 324.087 17.3025 324.418 17.4972C324.749 17.6724 325.1 17.8087 325.47 17.906C325.859 17.9839 326.248 18.0228 326.638 18.0228C327.144 18.0228 327.63 17.9449 328.098 17.7892C328.584 17.6335 329.003 17.4388 329.353 17.2052L330.959 16.154C331.115 15.9983 331.271 15.9009 331.426 15.862C331.582 15.8231 331.757 15.8036 331.952 15.8036C332.224 15.8036 332.497 15.8328 332.77 15.8912C333.062 15.9301 333.363 15.9496 333.675 15.9496C333.967 15.9496 334.249 15.8912 334.522 15.7744C334.95 15.5797 335.378 15.3753 335.806 15.1612C336.235 14.9471 336.624 14.7037 336.974 14.4312C337.344 14.1587 337.665 13.8375 337.938 13.4676C338.21 13.0977 338.415 12.6597 338.551 12.1536L338.814 11.19C338.853 11.0343 338.882 10.8883 338.902 10.752C338.94 10.5963 338.979 10.4405 339.018 10.2848L339.106 9.3796C339.125 9.22387 339.135 9.06813 339.135 8.9124C339.135 8.7372 339.135 8.55227 339.135 8.3576C339.116 8.26026 339.106 8.16293 339.106 8.0656C339.106 7.9488 339.106 7.84173 339.106 7.7444V7.102L339.018 6.4596C338.979 6.18707 338.892 5.9048 338.756 5.6128C338.619 5.30134 338.444 5.1456 338.23 5.1456C337.938 5.1456 337.734 5.39867 337.617 5.9048L337.266 7.2772C337.208 7.5108 337.14 7.76387 337.062 8.0364C337.004 8.28947 336.974 8.5328 336.974 8.7664C336.974 8.80534 336.974 8.854 336.974 8.9124C336.994 8.95134 337.013 9.00973 337.033 9.0876L337.091 9.73C337.111 9.82733 337.12 9.92467 337.12 10.022C337.14 10.1193 337.15 10.2167 337.15 10.314C337.13 10.4892 337.091 10.606 337.033 10.6644L336.244 11.1316C336.166 11.1705 336.089 11.2095 336.011 11.2484C335.952 11.2679 335.884 11.2971 335.806 11.336L335.398 11.5112C335.125 11.628 334.891 11.7253 334.697 11.8032C334.522 11.8616 334.356 11.8908 334.2 11.8908C333.869 11.8908 333.607 11.8324 333.412 11.7156C333.237 11.5793 333.091 11.4041 332.974 11.19C332.877 10.9564 332.808 10.6936 332.77 10.4016C332.75 10.0901 332.74 9.76893 332.74 9.438C332.74 9.3212 332.74 9.2044 332.74 9.0876C332.74 8.9708 332.75 8.854 332.77 8.7372C332.77 8.40627 332.682 8.124 332.507 7.8904C332.332 7.6568 332.156 7.54 331.981 7.54C331.767 7.54 331.592 7.69573 331.456 8.0072C331.319 8.31867 331.212 8.63987 331.134 8.9708L331.018 9.4964C330.959 9.73 330.91 9.94413 330.872 10.1388C330.833 10.3335 330.794 10.5476 330.755 10.7812L330.667 11.628C330.648 11.8616 330.57 12.0952 330.434 12.3288C330.297 12.5624 330.083 12.7863 329.791 13.0004C329.519 13.1951 329.158 13.3605 328.711 13.4968C328.263 13.6136 327.718 13.672 327.076 13.672C326.569 13.672 326.102 13.5941 325.674 13.4384C325.265 13.2632 325.061 12.9615 325.061 12.5332C325.061 12.2607 325.139 11.9492 325.294 11.5988L325.47 11.2192C325.547 11.0635 325.616 10.898 325.674 10.7228C325.752 10.5281 325.791 10.3335 325.791 10.1388C325.791 9.9052 325.664 9.7884 325.411 9.7884C325.236 9.7884 325.032 9.9052 324.798 10.1388C324.564 10.3529 324.37 10.5963 324.214 10.8688L323.98 11.2776C323.766 11.7643 323.562 12.3385 323.367 13.0004C323.172 13.6428 323.075 14.2755 323.075 14.8984C323.075 15.1709 323.104 15.4337 323.163 15.6868ZM332.244 95.2276L333.5 94.2932C334.006 93.9428 334.453 93.534 334.843 93.0668C335.232 92.6191 335.427 92.1421 335.427 91.636C335.427 91.2467 335.242 90.8573 334.872 90.468C334.638 90.2344 334.317 89.9424 333.908 89.592C333.519 89.2611 333.091 88.9399 332.624 88.6284C332.176 88.3364 331.728 88.0736 331.28 87.84C330.833 87.6259 330.434 87.5188 330.083 87.5188H329.879C329.665 87.5577 329.412 87.8011 329.12 88.2488C328.828 88.6965 328.516 89.1735 328.185 89.6796C327.874 90.2052 327.552 90.6821 327.222 91.1104C326.91 91.5387 326.628 91.7528 326.375 91.7528C326.375 91.7528 326.297 91.7333 326.141 91.6944L324.01 90.5264C323.795 90.4485 323.572 90.3415 323.338 90.2052C323.124 90.0689 322.9 89.9327 322.666 89.7964C322.433 89.6796 322.199 89.5725 321.966 89.4752C321.751 89.3973 321.547 89.3584 321.352 89.3584C320.924 89.3584 320.564 89.4947 320.272 89.7672C319.98 90.0592 319.727 90.3804 319.513 90.7308C319.318 91.1007 319.153 91.4608 319.016 91.8112C318.88 92.1616 318.754 92.4049 318.637 92.5412L317.994 93.3004C317.8 93.5535 317.693 93.7968 317.673 94.0304C317.673 94.1667 317.702 94.2932 317.761 94.41C317.839 94.5463 317.975 94.6631 318.17 94.7604L318.578 94.994L319.046 95.1692C319.357 95.2276 319.659 95.3444 319.951 95.5196C320.106 95.578 320.301 95.6851 320.535 95.8408C320.788 95.9965 321.051 96.162 321.323 96.3372C321.596 96.5124 321.868 96.6584 322.141 96.7752C322.433 96.9115 322.715 96.9796 322.988 96.9796C323.338 96.9796 323.62 96.8823 323.834 96.6876C324.068 96.4929 324.272 96.2593 324.448 95.9868C324.642 95.7143 324.817 95.432 324.973 95.14C325.129 94.848 325.304 94.6047 325.499 94.41L325.762 94.0888C325.839 94.0109 325.917 93.9136 325.995 93.7968C326.073 93.6995 326.141 93.5729 326.2 93.4172L326.375 93.0668C326.433 92.9305 326.521 92.8527 326.638 92.8332C326.754 92.8332 326.891 92.8624 327.046 92.9208L327.835 93.388C328.01 93.4659 328.312 93.6313 328.74 93.8844L330.054 94.6436C330.385 94.8383 330.716 94.994 331.047 95.1108C331.397 95.2471 331.679 95.3249 331.894 95.3444C332.049 95.3444 332.166 95.3055 332.244 95.2276ZM306.285 32.5644L306.022 33.3236L305.76 34.1412C305.682 34.3943 305.633 34.6668 305.614 34.9588C305.594 35.2313 305.575 35.5039 305.555 35.7764C305.555 36.01 305.662 36.1268 305.876 36.1268C306.032 36.1268 306.207 36.0879 306.402 36.01C306.616 35.9321 306.811 35.8543 306.986 35.7764C307.181 35.6791 307.356 35.5915 307.512 35.5136C307.667 35.4163 307.774 35.3579 307.833 35.3384L312.213 33.4404C312.466 33.3431 312.709 33.236 312.943 33.1192C313.176 33.0024 313.42 32.8856 313.673 32.7688L314.695 32.3308C315.006 32.1945 315.337 32.0777 315.688 31.9804C316.057 31.8636 316.427 31.7273 316.797 31.5716L317.819 31.1336C318.52 30.7443 319.289 30.4036 320.126 30.1116C320.982 29.8001 321.82 29.4205 322.637 28.9728L322.988 28.7976C323.026 28.7587 323.065 28.7295 323.104 28.71C323.163 28.6711 323.231 28.6321 323.309 28.5932L323.659 28.418L324.039 28.3304C324.253 28.3109 324.457 28.1941 324.652 27.98C324.866 27.7659 325.051 27.5128 325.207 27.2208C325.362 26.9288 325.479 26.6173 325.557 26.2864C325.654 25.936 325.703 25.6245 325.703 25.352C325.703 25.06 325.654 24.7972 325.557 24.5636C325.479 24.3105 325.304 24.184 325.032 24.184C324.934 24.184 324.808 24.2132 324.652 24.2716C324.496 24.3105 324.321 24.3689 324.126 24.4468C323.932 24.5052 323.737 24.5733 323.542 24.6512C323.367 24.7291 323.211 24.7972 323.075 24.8556L319.338 26.6368L316.213 28.0384C315.941 28.1552 315.678 28.272 315.425 28.3888C315.172 28.4861 314.909 28.5932 314.636 28.71L309.964 30.6372C309.672 30.754 309.4 30.9 309.147 31.0752C308.894 31.2309 308.611 31.3575 308.3 31.4548L307.541 31.7176C306.937 31.9317 306.519 32.214 306.285 32.5644ZM313.819 49.8508C313.682 49.6951 313.546 49.5296 313.41 49.3544C313.274 49.1792 313.128 49.0137 312.972 48.858C312.836 48.7217 312.631 48.5173 312.359 48.2448C312.106 47.9723 311.814 47.6997 311.483 47.4272C311.171 47.1547 310.84 46.9211 310.49 46.7264C310.159 46.5123 309.838 46.4052 309.526 46.4052C309.273 46.4052 308.972 46.5804 308.621 46.9308C308.29 47.2812 307.969 47.6705 307.658 48.0988C307.288 48.6049 306.996 49.0429 306.782 49.4128C306.567 49.7827 306.392 50.0844 306.256 50.318C306.12 50.5516 306.003 50.7268 305.906 50.8436C305.808 50.9409 305.682 50.9896 305.526 50.9896C305.312 50.9896 305 50.8631 304.592 50.61C304.202 50.3375 303.774 50.0455 303.307 49.734C302.859 49.4031 302.411 49.1111 301.964 48.858C301.516 48.5855 301.136 48.4492 300.825 48.4492C300.669 48.4492 300.542 48.4881 300.445 48.566C300.367 48.6244 300.289 48.712 300.212 48.8288C300.134 48.9456 300.046 49.0819 299.949 49.2376C299.871 49.3933 299.764 49.5588 299.628 49.734L298.518 51.0772C298.206 51.4471 297.934 51.8169 297.7 52.1868C297.486 52.5567 297.379 52.8876 297.379 53.1796C297.379 53.4327 297.457 53.6371 297.613 53.7928C297.768 53.9485 297.963 54.0848 298.197 54.2016C298.43 54.2989 298.674 54.3963 298.927 54.4936C299.199 54.5715 299.452 54.6591 299.686 54.7564C299.842 54.8343 299.988 54.9608 300.124 55.136C300.28 55.2917 300.455 55.4572 300.65 55.6324C300.844 55.7881 301.068 55.9341 301.321 56.0704C301.574 56.1872 301.895 56.2456 302.285 56.2456C302.869 56.2456 303.278 56.1191 303.511 55.866C303.764 55.5935 303.969 55.3015 304.124 54.99L304.446 54.3476C304.543 54.1724 304.66 54.0167 304.796 53.8804C304.932 53.7441 305.049 53.5981 305.146 53.4424L305.906 52.2744C306.042 52.0797 306.178 51.9824 306.314 51.9824C306.509 51.9824 306.733 52.0797 306.986 52.2744C307.258 52.4691 307.502 52.6345 307.716 52.7708C307.794 52.8292 307.95 52.9655 308.183 53.1796C308.417 53.3743 308.68 53.5884 308.972 53.822C309.283 54.0361 309.594 54.2405 309.906 54.4352C310.237 54.6104 310.519 54.698 310.753 54.698C310.967 54.698 311.22 54.5715 311.512 54.3184C311.804 54.0459 312.038 53.7831 312.213 53.53L312.709 52.9752C312.962 52.7221 313.186 52.5177 313.381 52.362C313.595 52.2063 313.77 52.07 313.906 51.9532C314.043 51.8364 314.14 51.7196 314.198 51.6028C314.276 51.486 314.315 51.3303 314.315 51.1356C314.315 50.9409 314.276 50.7365 314.198 50.5224C314.12 50.2888 313.994 50.0649 313.819 49.8508ZM284.998 32.6812C284.998 32.7007 285.018 32.7104 285.057 32.7104C285.135 32.7104 285.329 32.6617 285.641 32.5644C285.972 32.4476 286.371 32.3016 286.838 32.1264C287.305 31.9317 287.811 31.7176 288.356 31.484C288.921 31.2504 289.485 31.0071 290.05 30.754L297.554 27.4252L300.066 26.4324C300.28 26.374 300.484 26.3059 300.679 26.228C300.893 26.1307 301.107 26.0333 301.321 25.936L302.489 25.498C302.976 25.3033 303.492 25.1184 304.037 24.9432C304.601 24.7485 305.107 24.4955 305.555 24.184C306.003 23.8725 306.373 23.4637 306.665 22.9576C306.976 22.432 307.132 21.7409 307.132 20.8844C307.132 20.3393 306.869 20.0668 306.344 20.0668C305.993 20.0668 305.575 20.1641 305.088 20.3588C304.601 20.534 304.115 20.7384 303.628 20.972C303.161 21.2056 302.723 21.4295 302.314 21.6436C301.925 21.8577 301.652 21.994 301.496 22.0524L297.35 23.8044C296.649 24.0964 295.958 24.3884 295.277 24.6804C294.595 24.9724 293.914 25.2839 293.233 25.6148L286.721 28.5056C286.468 28.6224 286.225 28.8073 285.991 29.0604C285.777 29.3135 285.582 29.6055 285.407 29.9364C285.232 30.2479 285.096 30.5788 284.998 30.9292C284.901 31.2796 284.852 31.6105 284.852 31.922C284.852 32.1945 284.901 32.4476 284.998 32.6812ZM283.188 46.376C283.149 46.2787 283.091 46.1813 283.013 46.084C282.954 45.9867 282.876 45.8893 282.779 45.792L282.166 45.208L281.494 44.6824C281.397 44.6045 281.3 44.5364 281.202 44.478C281.105 44.4001 281.017 44.3125 280.94 44.2152C280.901 44.1957 280.774 44.0789 280.56 43.8648C280.365 43.6507 280.132 43.4268 279.859 43.1932C279.606 42.9401 279.324 42.7163 279.012 42.5216C278.72 42.3269 278.458 42.2296 278.224 42.2296C277.951 42.2296 277.679 42.3561 277.406 42.6092C277.134 42.8623 276.861 43.1835 276.589 43.5728C276.336 43.9427 276.092 44.3515 275.859 44.7992C275.645 45.2275 275.45 45.6265 275.275 45.9964C275.119 46.3663 274.992 46.668 274.895 46.9016C274.798 47.1157 274.749 47.2033 274.749 47.1644C274.749 47.3591 274.817 47.5343 274.954 47.69C275.109 47.8263 275.284 47.9528 275.479 48.0696L276.18 48.5076L278.399 50.172C278.769 50.464 279.139 50.5905 279.509 50.5516C279.82 50.5516 280.064 50.4932 280.239 50.3764C280.433 50.2401 280.589 50.0844 280.706 49.9092C280.842 49.7145 280.978 49.5101 281.115 49.296C281.27 49.0624 281.475 48.8483 281.728 48.6536L282.516 47.8944C282.73 47.6803 282.906 47.4759 283.042 47.2812C283.178 47.0671 283.246 46.8627 283.246 46.668C283.246 46.5512 283.227 46.4539 283.188 46.376ZM262.368 30.6664C262.368 30.6859 262.388 30.6956 262.427 30.6956C262.524 30.6956 262.738 30.6372 263.069 30.5204C263.4 30.3841 263.78 30.2284 264.208 30.0532C264.636 29.8585 265.084 29.6541 265.551 29.44C266.018 29.2064 266.427 28.9923 266.778 28.7976L267.77 28.3304L269.347 27.6004C269.483 27.5225 269.629 27.4641 269.785 27.4252C269.941 27.3668 270.116 27.3084 270.311 27.25L271.362 26.958C271.712 26.8801 272.053 26.7731 272.384 26.6368C272.715 26.4811 272.987 26.3059 273.202 26.1112C273.532 25.8192 273.99 25.5661 274.574 25.352C275.158 25.1184 275.732 24.9335 276.297 24.7972L277.319 24.476C277.689 24.3592 278.029 24.2424 278.341 24.1256C278.672 23.9893 279.012 23.8433 279.363 23.6876L281.319 22.7824C281.942 22.4904 282.38 22.1497 282.633 21.7604C282.906 21.3711 283.159 20.8649 283.392 20.242L283.509 19.6288C283.529 19.512 283.538 19.4049 283.538 19.3076C283.538 19.1908 283.538 19.0837 283.538 18.9864C283.538 18.7333 283.509 18.4997 283.451 18.2856C283.392 18.0715 283.285 17.9644 283.13 17.9644C282.974 17.9644 282.828 18.0325 282.692 18.1688C282.01 18.7139 281.241 19.1713 280.385 19.5412C279.528 19.9111 278.662 20.242 277.786 20.534L274.34 21.702C274.048 21.7993 273.756 21.9064 273.464 22.0232C273.172 22.14 272.88 22.2568 272.588 22.3736L270.866 23.0744L267.946 24.4176L263.682 26.5492C263.371 26.7049 263.157 26.8801 263.04 27.0748C262.923 27.25 262.806 27.5128 262.69 27.8632L262.514 28.4472C262.32 29.0701 262.213 29.6152 262.193 30.0824C262.193 30.3355 262.252 30.5301 262.368 30.6664ZM257.492 34.404C257.239 34.0536 256.976 33.7519 256.704 33.4988C256.431 33.2263 256.149 32.9732 255.857 32.7396L254.952 32.0388C254.854 31.9609 254.747 31.8636 254.63 31.7468C254.533 31.63 254.426 31.5229 254.309 31.4256C254.192 31.3088 254.076 31.2115 253.959 31.1336C253.861 31.0557 253.774 31.0168 253.696 31.0168C253.482 31.0168 253.238 31.1531 252.966 31.4256C252.693 31.6787 252.479 31.9415 252.324 32.214L252.002 32.7396C251.847 32.9537 251.73 33.1581 251.652 33.3528L251.36 33.966C251.321 34.0633 251.272 34.1704 251.214 34.2872C251.156 34.3845 251.097 34.4819 251.039 34.5792L250.659 35.1632C250.562 35.2995 250.474 35.3871 250.396 35.426C250.318 35.4455 250.221 35.4552 250.104 35.4552C249.929 35.4552 249.764 35.4163 249.608 35.3384C249.452 35.2411 249.296 35.1243 249.141 34.988L248.644 34.6084C248.45 34.4721 248.236 34.3164 248.002 34.1412C247.768 33.9465 247.525 33.7713 247.272 33.6156C247.019 33.4599 246.756 33.3333 246.484 33.236C246.23 33.1192 245.977 33.0608 245.724 33.0608C245.53 33.0608 245.374 33.1095 245.257 33.2068C245.16 33.3041 245.062 33.4307 244.965 33.5864C244.887 33.7421 244.8 33.9368 244.702 34.1704C244.624 34.3845 244.508 34.6084 244.352 34.842C244.255 34.9977 244.109 35.1924 243.914 35.426C243.719 35.6401 243.525 35.8835 243.33 36.156C243.155 36.4091 242.989 36.6816 242.834 36.9736C242.697 37.2656 242.629 37.5576 242.629 37.8496C242.629 38.0248 242.824 38.2876 243.213 38.638C243.602 38.9884 244.05 39.3291 244.556 39.66C245.082 39.9909 245.608 40.2829 246.133 40.536C246.659 40.7891 247.068 40.9156 247.36 40.9156C247.69 40.9156 247.963 40.7793 248.177 40.5068C248.411 40.2343 248.596 39.9715 248.732 39.7184L249.112 38.9592C249.248 38.6477 249.404 38.4044 249.579 38.2292L250.25 37.5284L250.484 37.178C250.484 37.0417 250.513 36.9444 250.572 36.886C250.63 36.8276 250.679 36.7984 250.718 36.7984C250.815 36.7984 250.912 36.8276 251.01 36.886C251.126 36.9249 251.233 36.9833 251.331 37.0612L252.557 38.1124L254.514 39.8352C254.591 39.9131 254.708 39.952 254.864 39.952C255.039 39.952 255.214 39.8644 255.39 39.6892C255.565 39.4945 255.73 39.2901 255.886 39.076C256.042 38.8424 256.178 38.6185 256.295 38.4044C256.412 38.1903 256.499 38.054 256.558 37.9956L257.317 37.178C257.745 36.7303 257.959 36.2436 257.959 35.718C257.959 35.5039 257.92 35.2995 257.842 35.1048C257.764 34.9101 257.648 34.6765 257.492 34.404ZM240.001 22.1108C240.06 22.0329 240.118 21.8383 240.176 21.5268C240.235 21.2153 240.283 20.9233 240.322 20.6508C240.322 20.4951 240.303 20.3491 240.264 20.2128C240.225 20.0765 240.157 20.0084 240.06 20.0084C240.021 20.0084 239.894 20.0863 239.68 20.242C239.388 20.5145 239.135 20.8552 238.921 21.264C238.707 21.6728 238.522 22.1108 238.366 22.578C238.23 23.0257 238.123 23.4832 238.045 23.9504C237.986 24.3981 237.957 24.8069 237.957 25.1768C237.957 25.7413 238.045 26.2475 238.22 26.6952C238.395 27.1429 238.638 27.5225 238.95 27.834C239.261 28.1455 239.622 28.3888 240.03 28.564C240.439 28.7392 240.877 28.8268 241.344 28.8268C242.162 28.8268 242.931 28.5737 243.651 28.0676L244.06 27.7756C244.294 27.6393 244.566 27.4252 244.878 27.1332L245.257 26.812C245.393 26.6952 245.53 26.5881 245.666 26.4908C245.802 26.3935 245.919 26.3351 246.016 26.3156C246.114 26.3156 246.25 26.3643 246.425 26.4616C246.6 26.5589 246.795 26.6076 247.009 26.6076C247.223 26.6076 247.467 26.5784 247.739 26.52L249.141 26.0236C249.764 25.7705 250.338 25.4883 250.864 25.1768C251.409 24.8653 251.866 24.4955 252.236 24.0672C252.625 23.6195 252.927 23.0841 253.141 22.4612C253.355 21.8383 253.462 21.0791 253.462 20.1836C253.462 19.6969 253.433 19.2005 253.375 18.6944L253.258 17.7308C253.238 17.6335 253.219 17.5361 253.2 17.4388C253.2 17.3415 253.2 17.2441 253.2 17.1468C253.219 17.0495 253.229 16.9521 253.229 16.8548C253.229 16.7575 253.229 16.6601 253.229 16.5628C253.229 16.0177 253.131 15.6089 252.937 15.3364C252.762 15.0444 252.596 14.8984 252.44 14.8984C252.324 14.8984 252.216 14.9568 252.119 15.0736C252.022 15.1904 251.934 15.3364 251.856 15.5116C251.798 15.6868 251.74 15.8815 251.681 16.0956C251.623 16.2903 251.574 16.4849 251.535 16.6796L251.331 17.5264C251.311 17.5848 251.302 17.7113 251.302 17.906C251.302 18.0033 251.302 18.0909 251.302 18.1688C251.302 18.2467 251.311 18.3343 251.331 18.4316L251.418 19.5704C251.418 19.6677 251.418 19.7651 251.418 19.8624C251.438 19.9403 251.448 20.0279 251.448 20.1252C251.448 20.3977 251.418 20.6411 251.36 20.8552C251.321 21.0499 251.224 21.1861 251.068 21.264L250.017 21.7896C249.744 21.9453 249.452 22.0621 249.141 22.14C248.849 22.1984 248.576 22.2276 248.323 22.2276C247.953 22.2276 247.632 22.1108 247.36 21.8772C247.106 21.6241 246.98 21.2445 246.98 20.7384C246.98 20.5437 246.98 20.3685 246.98 20.2128C246.999 20.0376 247.009 19.8624 247.009 19.6872C247.009 19.5704 246.999 19.4341 246.98 19.2784C246.96 19.1032 246.922 18.9377 246.863 18.782C246.805 18.6263 246.717 18.4997 246.6 18.4024C246.503 18.2856 246.357 18.2272 246.162 18.2272C246.026 18.2272 245.9 18.344 245.783 18.5776C245.666 18.7917 245.559 19.0351 245.462 19.3076L245.053 21.0888C245.033 21.1083 245.024 21.1764 245.024 21.2932C245.024 21.41 245.033 21.4976 245.053 21.556V22.1984C245.053 22.4515 245.033 22.6753 244.994 22.87C244.975 23.0452 244.946 23.1523 244.907 23.1912L244.44 23.6C244.284 23.7168 244.109 23.8336 243.914 23.9504L243.359 24.2132C243.145 24.3105 242.931 24.3884 242.717 24.4468C242.522 24.5052 242.298 24.5344 242.045 24.5344C241.442 24.5344 240.916 24.3689 240.468 24.038C240.021 23.7071 239.797 23.3177 239.797 22.87C239.797 22.6559 239.865 22.4028 240.001 22.1108ZM230.657 14.84C230.657 14.8789 230.686 14.8984 230.745 14.8984C230.823 14.8984 231.008 14.84 231.3 14.7232L232.701 14.1392C233.246 13.8861 233.762 13.672 234.249 13.4968C234.735 13.3216 235.203 13.1561 235.65 13.0004C236.118 12.8252 236.575 12.6597 237.023 12.504C237.49 12.3288 237.967 12.1244 238.454 11.8908L240.147 11.1024C240.77 10.8104 241.393 10.5476 242.016 10.314C242.658 10.0609 243.301 9.79813 243.943 9.5256L246.104 8.562C246.844 8.23107 247.564 7.9196 248.265 7.6276C248.985 7.3356 249.715 7.05334 250.455 6.7808L251.331 6.4304C251.603 6.3136 251.886 6.1968 252.178 6.08C252.489 5.9632 252.791 5.82693 253.083 5.6712C253.375 5.5544 253.725 5.42787 254.134 5.2916C254.543 5.13587 254.932 4.92173 255.302 4.6492C255.691 4.3572 256.022 3.9776 256.295 3.5104C256.567 3.02374 256.704 2.38134 256.704 1.5832C256.704 0.979735 256.46 0.678001 255.974 0.678001C255.837 0.697465 255.691 0.726665 255.536 0.765599C255.399 0.785068 255.234 0.833734 255.039 0.911597L252.119 2.1964L247.36 4.1236L242.104 6.372C241.656 6.56667 241.218 6.7516 240.79 6.9268C240.361 7.102 239.923 7.2772 239.476 7.4524L233.402 10.0804L232.876 10.2556C232.701 10.314 232.487 10.3919 232.234 10.4892C232 10.5671 231.806 10.6644 231.65 10.7812C231.494 10.8785 231.348 11.0635 231.212 11.336C231.076 11.5891 230.959 11.8908 230.862 12.2412C230.764 12.5721 230.686 12.9128 230.628 13.2632C230.57 13.6136 230.54 13.9251 230.54 14.1976C230.54 14.4507 230.579 14.6648 230.657 14.84ZM221.576 30.5204C221.829 30.6761 222.14 30.8611 222.51 31.0752C222.9 31.2699 223.221 31.3672 223.474 31.3672C223.649 31.3477 223.756 31.2309 223.795 31.0168C223.834 30.7832 223.854 30.5399 223.854 30.2868C223.854 28.7684 223.659 27.6491 223.27 26.9288C222.88 26.1891 222.403 25.8192 221.839 25.8192C221.41 25.8192 221.011 25.9457 220.642 26.1988C220.272 26.4324 219.941 26.7049 219.649 27.0164C219.376 27.3279 219.162 27.6393 219.006 27.9508C218.851 28.2428 218.773 28.4375 218.773 28.5348C218.773 28.8073 218.87 29.0409 219.065 29.2356C219.279 29.4108 219.532 29.5763 219.824 29.732C220.116 29.8683 220.418 30.0045 220.729 30.1408C221.06 30.2576 221.342 30.3841 221.576 30.5204ZM206.888 47.2812C206.674 47.3396 206.489 47.3785 206.334 47.398C206.197 47.398 206.08 47.4077 205.983 47.4272C205.73 47.4272 205.604 47.3493 205.604 47.1936C205.604 47.0963 205.672 46.9795 205.808 46.8432C205.944 46.7069 206.119 46.5609 206.334 46.4052L207.122 45.8796C208.543 44.9257 209.974 43.9913 211.414 43.0764C212.874 42.142 214.334 41.1492 215.794 40.098L218.568 38.054C218.666 37.9761 218.763 37.908 218.86 37.8496C218.977 37.7717 219.084 37.6841 219.182 37.5868L219.795 37.1196C219.989 36.9833 220.184 36.8179 220.379 36.6232L220.934 36.0684C221.187 35.8153 221.362 35.6499 221.459 35.572C221.556 35.4747 221.605 35.3676 221.605 35.2508C221.605 35.1535 221.566 35.0853 221.488 35.0464C221.43 34.988 221.323 34.9101 221.167 34.8128L219.795 34.1412C218.568 33.6935 217.634 33.0997 216.992 32.36C216.349 31.6203 216.028 30.6664 216.028 29.4984C216.028 28.8755 216.116 28.2817 216.291 27.7172C216.485 27.1332 216.738 26.5784 217.05 26.0528C217.303 25.6051 217.653 25.1184 218.101 24.5928C218.568 24.0672 219.065 23.5805 219.59 23.1328C220.116 22.6656 220.642 22.286 221.167 21.994C221.693 21.6825 222.15 21.5268 222.54 21.5268C223.162 21.5268 223.678 21.7507 224.087 22.1984C224.496 22.6267 224.817 23.162 225.051 23.8044C225.284 24.4468 225.45 25.1281 225.547 25.8484C225.644 26.5687 225.693 27.2013 225.693 27.7464C225.635 29.8683 225.362 31.7371 224.876 33.3528C224.408 34.9491 223.776 36.3604 222.978 37.5868C222.179 38.8132 221.245 39.8741 220.174 40.7696C219.123 41.6456 217.984 42.4243 216.758 43.1056C216.154 43.4755 215.59 43.7869 215.064 44.04C214.558 44.2736 214.072 44.478 213.604 44.6532C213.157 44.8284 212.719 44.9841 212.29 45.1204C211.862 45.2567 211.424 45.4124 210.976 45.5876L208.29 46.7556C207.842 46.9697 207.375 47.1449 206.888 47.2812ZM181.397 54.3184C180.832 50.6781 180.2 47.0281 179.499 43.3684C178.798 39.6892 178.01 36.0295 177.134 32.3892L177.046 31.7468C176.988 31.2796 176.9 30.8319 176.783 30.4036C176.666 29.9753 176.452 29.7612 176.141 29.7612C175.868 29.8391 175.693 30.0045 175.615 30.2576C175.557 30.5107 175.528 30.7637 175.528 31.0168C175.528 31.1336 175.537 31.2504 175.557 31.3672C175.576 31.4645 175.586 31.5619 175.586 31.6592C175.586 32.2237 175.479 32.8077 175.265 33.4112C175.07 34.0147 174.973 34.6279 174.973 35.2508C174.973 35.3481 174.973 35.4455 174.973 35.5428C174.992 35.6401 175.012 35.7375 175.031 35.8348L175.382 37.9956C175.498 38.7159 175.615 39.4361 175.732 40.1564C175.868 40.8767 176.004 41.5969 176.141 42.3172L178.126 52.5664L180.404 65.1808C180.599 66.2709 180.774 67.3805 180.93 68.5096C181.105 69.6387 181.192 70.7969 181.192 71.9844L181.251 74.3204C181.251 74.554 181.26 74.9531 181.28 75.5176C181.299 76.0627 181.329 76.6272 181.368 77.2112C181.406 77.7952 181.465 78.3111 181.543 78.7588C181.621 79.1871 181.737 79.4012 181.893 79.4012C182.029 79.4012 182.185 79.2455 182.36 78.934C182.555 78.6031 182.711 78.2721 182.828 77.9412L183.032 77.328C183.071 77.1917 183.1 77.0555 183.12 76.9192C183.139 76.7829 183.158 76.6467 183.178 76.5104L183.353 74.8168C183.353 74.6805 183.353 74.5443 183.353 74.408C183.353 74.2717 183.363 74.1257 183.382 73.97V71.6924C183.382 71.2057 183.402 70.7191 183.441 70.2324C183.499 69.7457 183.528 69.2493 183.528 68.7432C183.528 67.5557 183.45 66.3683 183.295 65.1808C183.158 63.9739 182.974 62.7669 182.74 61.56C182.526 60.3336 182.292 59.1169 182.039 57.91C181.806 56.7031 181.591 55.5059 181.397 54.3184ZM171.819 19.6288C171.722 19.9208 171.673 20.1739 171.673 20.388C171.673 20.7189 171.78 20.9915 171.994 21.2056C172.208 21.4003 172.481 21.556 172.812 21.6728C173.143 21.7896 173.503 21.8675 173.892 21.9064C174.282 21.9453 174.642 21.9648 174.973 21.9648C175.206 21.9648 175.576 21.9161 176.082 21.8188C176.608 21.702 177.134 21.5365 177.659 21.3224C178.185 21.0888 178.642 20.8163 179.032 20.5048C179.44 20.1739 179.645 19.7943 179.645 19.366C179.645 19.0351 179.538 18.636 179.324 18.1688C179.129 17.7016 178.856 17.2636 178.506 16.8548C178.175 16.4265 177.786 16.0664 177.338 15.7744C176.89 15.4629 176.433 15.3072 175.966 15.3072C175.518 15.3072 175.08 15.4532 174.652 15.7452C174.243 16.0372 173.853 16.3973 173.484 16.8256C173.133 17.2539 172.812 17.7211 172.52 18.2272C172.228 18.7333 171.994 19.2005 171.819 19.6288ZM172.929 26.1112C172.306 25.9944 171.79 25.8095 171.381 25.5564C170.992 25.2839 170.68 24.9724 170.447 24.622C170.213 24.2521 170.048 23.8433 169.95 23.3956C169.872 22.9479 169.834 22.4709 169.834 21.9648C169.834 21.5365 169.902 20.972 170.038 20.2712C170.194 19.5704 170.408 18.8209 170.68 18.0228C170.953 17.2247 171.294 16.4168 171.702 15.5992C172.111 14.7816 172.578 14.0516 173.104 13.4092C173.63 12.7473 174.204 12.212 174.827 11.8032C175.469 11.3749 176.16 11.1608 176.9 11.1608C177.601 11.1997 178.233 11.4431 178.798 11.8908C179.382 12.3385 179.878 12.8933 180.287 13.5552C180.696 14.2171 181.007 14.9471 181.222 15.7452C181.436 16.5239 181.543 17.2636 181.543 17.9644C181.543 18.9183 181.377 19.8819 181.046 20.8552C180.715 21.8285 180.238 22.7143 179.616 23.5124C179.012 24.3105 178.263 24.9627 177.367 25.4688C176.472 25.9749 175.469 26.228 174.36 26.228C174.106 26.228 173.853 26.2183 173.6 26.1988C173.367 26.1793 173.143 26.1501 172.929 26.1112ZM286.225 69.0936C286.848 68.6848 287.159 68.0619 287.159 67.2248C287.159 66.6797 287.062 66.086 286.867 65.4436C286.672 64.8012 286.41 64.2075 286.079 63.6624C285.767 63.0979 285.397 62.6307 284.969 62.2608C284.56 61.8909 284.142 61.706 283.714 61.706C283.519 61.706 283.285 61.7839 283.013 61.9396L282.108 62.6696C281.582 63.0005 281.105 63.3801 280.677 63.8084C280.248 64.2367 279.869 64.6455 279.538 65.0348L278.837 65.8232C278.448 66.2709 278.078 66.7673 277.728 67.3124C277.397 67.8575 277.231 68.3636 277.231 68.8308C277.231 69.0449 277.426 69.298 277.815 69.59C278.224 69.882 278.672 70.1643 279.158 70.4368L281.553 71.8092C281.708 71.9065 281.874 71.9552 282.049 71.9552C282.263 71.9552 282.507 71.8968 282.779 71.78C283.071 71.6632 283.363 71.5075 283.655 71.3128C283.967 71.1181 284.268 70.904 284.56 70.6704C284.852 70.4368 285.115 70.2129 285.349 69.9988L286.225 69.0936ZM253.842 64.4216C254.523 64.1491 255.156 63.7987 255.74 63.3704C256.324 62.9421 256.898 62.4944 257.463 62.0272L258.485 61.0344C258.738 60.7813 258.942 60.5575 259.098 60.3628C259.254 60.1681 259.332 59.9443 259.332 59.6912C259.332 59.3019 259.156 58.7373 258.806 57.9976C258.475 57.2384 258.037 56.4889 257.492 55.7492C256.966 54.99 256.363 54.3379 255.682 53.7928C255.02 53.2283 254.358 52.946 253.696 52.946C253.365 52.946 252.995 53.1309 252.586 53.5008C252.197 53.8512 251.827 54.3184 251.477 54.9024C251.126 55.4669 250.834 56.1191 250.601 56.8588C250.367 57.5791 250.25 58.3091 250.25 59.0488C250.25 59.5355 250.318 60.0027 250.455 60.4504C250.61 60.8787 250.776 61.3264 250.951 61.7936L251.769 64.8596C251.808 65.0348 251.856 65.1419 251.915 65.1808C251.993 65.2197 252.08 65.2392 252.178 65.2392C252.431 65.2392 252.703 65.1419 252.995 64.9472C253.307 64.7331 253.589 64.5579 253.842 64.4216ZM233.577 82.2044C233.733 81.9319 233.811 81.6885 233.811 81.4744C233.811 80.9683 233.538 80.54 232.993 80.1896C232.468 79.8392 231.854 79.5569 231.154 79.3428C230.472 79.1287 229.81 78.9729 229.168 78.8756C228.526 78.7783 228.097 78.7296 227.883 78.7296C227.669 78.7296 227.465 78.7296 227.27 78.7296C227.075 78.7296 226.881 78.7393 226.686 78.7588L223.24 78.934C222.968 78.9535 222.686 78.9632 222.394 78.9632C222.102 78.9632 221.819 78.9632 221.547 78.9632C221.819 79.5667 222.17 80.1117 222.598 80.5984C223.026 81.0656 223.454 81.5036 223.883 81.9124L224.788 82.7884C225.06 83.0609 225.382 83.314 225.752 83.5476C226.141 83.8007 226.55 84.0148 226.978 84.19C227.426 84.3847 227.883 84.5307 228.35 84.628C228.818 84.7448 229.275 84.8032 229.723 84.8032C231.163 84.8032 232.224 84.2776 232.906 83.2264L233.577 82.2044ZM221.43 68.4804C222.423 68.0911 223.299 67.6628 224.058 67.1956C224.837 66.7089 225.567 66.1249 226.248 65.4436C226.423 65.2684 226.696 64.9959 227.066 64.626C227.435 64.2367 227.796 63.7987 228.146 63.312C228.516 62.8253 228.837 62.3192 229.11 61.7936C229.382 61.2485 229.518 60.7229 229.518 60.2168C229.518 59.8664 229.431 59.5257 229.256 59.1948C228.38 57.5207 227.562 56.6836 226.803 56.6836C226.277 56.6836 225.781 56.9853 225.314 57.5888C224.866 58.1728 224.438 58.9125 224.029 59.808C223.639 60.684 223.279 61.6379 222.948 62.6696C222.617 63.7013 222.325 64.6552 222.072 65.5312C221.839 66.4072 221.634 67.1372 221.459 67.7212C221.303 68.3052 221.187 68.5875 221.109 68.568C221.148 68.568 221.177 68.5583 221.196 68.5388H221.284C221.303 68.5193 221.323 68.5096 221.342 68.5096H221.372C221.372 68.5096 221.391 68.4999 221.43 68.4804ZM203.501 72.4224C203.501 72.4224 203.452 72.2764 203.355 71.9844L202.479 70.0572C202.362 69.8625 202.304 69.7457 202.304 69.7068L201.778 68.8016C201.331 68.0619 200.902 67.4973 200.494 67.108C200.085 66.7187 199.647 66.5143 199.18 66.4948C198.693 66.4948 198.274 66.6505 197.924 66.962C197.593 67.2735 197.34 67.6336 197.165 68.0424L196.756 68.9476C196.659 69.1617 196.59 69.3467 196.552 69.5024C196.513 69.6581 196.503 69.8139 196.522 69.9696C196.522 70.3589 196.649 70.6899 196.902 70.9624C197.174 71.2349 197.515 71.4588 197.924 71.634C198.352 71.8092 198.819 71.9455 199.326 72.0428C199.851 72.1401 200.367 72.218 200.873 72.2764C201.399 72.3153 201.895 72.3445 202.362 72.364C202.83 72.3835 203.209 72.4029 203.501 72.4224ZM321.148 79.8684C320.564 80.1799 319.96 80.4037 319.338 80.54C318.715 80.6763 318.082 80.7444 317.44 80.7444C316.622 80.7444 315.814 80.6665 315.016 80.5108C314.237 80.3551 313.439 80.1409 312.622 79.8684C312.33 79.7711 312.028 79.664 311.716 79.5472C311.405 79.4109 311.093 79.2941 310.782 79.1968C310.49 79.08 310.208 78.9827 309.935 78.9048C309.663 78.8269 309.41 78.788 309.176 78.788C308.903 78.788 308.611 78.8269 308.3 78.9048C307.988 78.9827 307.696 79.0897 307.424 79.226L306.139 79.8392C305.672 80.0533 305.234 80.2091 304.825 80.3064C304.436 80.4037 304.027 80.5011 303.599 80.5984L299.744 81.3868C299.53 81.4257 299.316 81.4744 299.102 81.5328C298.888 81.5912 298.674 81.6204 298.46 81.6204L295.832 81.6788C295.617 81.6788 295.403 81.6885 295.189 81.708C294.975 81.708 294.761 81.7177 294.547 81.7372L292.474 81.9416C292.376 81.9611 292.289 81.9708 292.211 81.9708C292.152 81.9708 292.074 81.9708 291.977 81.9708C291.763 81.9708 291.52 81.9611 291.247 81.9416C290.994 81.9221 290.712 81.8735 290.4 81.7956L289.203 81.6204C288.814 81.562 288.376 81.4841 287.889 81.3868C287.422 81.2895 286.984 81.1727 286.575 81.0364C286.166 80.9001 285.816 80.7444 285.524 80.5692C285.251 80.3745 285.115 80.1604 285.115 79.9268C284.901 80.0631 284.677 80.1312 284.444 80.1312C284.229 80.1117 283.976 80.0728 283.684 80.0144C283.412 79.9365 283.159 79.8392 282.925 79.7224C282.711 79.6251 282.477 79.4985 282.224 79.3428C281.991 79.1676 281.757 79.0119 281.524 78.8756C281.29 78.7199 281.066 78.5933 280.852 78.496C280.638 78.3792 280.463 78.3208 280.326 78.3208C280.151 78.3208 279.937 78.3597 279.684 78.4376C279.45 78.496 279.197 78.5836 278.925 78.7004C278.652 78.7977 278.38 78.9145 278.107 79.0508C277.835 79.1871 277.582 79.3136 277.348 79.4304C276.608 79.8197 275.839 80.0923 275.041 80.248C274.262 80.4037 273.494 80.6081 272.734 80.8612L270.895 81.3868C269.902 81.6788 268.89 81.8929 267.858 82.0292C266.846 82.1655 265.804 82.2336 264.734 82.2336C263.663 82.2336 262.602 82.146 261.551 81.9708C260.519 81.7761 259.516 81.4841 258.543 81.0948C257.589 80.686 256.684 80.1701 255.828 79.5472C254.99 78.9048 254.231 78.1359 253.55 77.2404L250.776 72.364C250.62 72.0915 250.484 71.9065 250.367 71.8092C250.27 71.6924 250.202 71.634 250.163 71.634L247.973 72.3932L245.87 73.2984C245.345 73.5904 244.829 73.824 244.323 73.9992C243.817 74.1549 243.31 74.3009 242.804 74.4372C242.298 74.5735 241.802 74.7 241.315 74.8168C240.848 74.9141 240.381 75.0504 239.914 75.2256L238.278 75.8096C238.006 75.9069 237.743 75.9653 237.49 75.9848L236.059 76.2184C235.962 76.2379 235.835 76.2768 235.68 76.3352C235.543 76.3741 235.475 76.4715 235.475 76.6272C235.475 76.6467 235.475 76.6661 235.475 76.6856C235.495 76.6856 235.504 76.6953 235.504 76.7148L235.592 77.2696L235.884 78.3208L236.03 79.2552L236.088 80.2188C236.088 80.5497 236.079 80.8807 236.059 81.2116C236.04 81.5425 236.01 81.8735 235.972 82.2044C235.757 83.8201 235.436 85.1731 235.008 86.2632C234.58 87.3728 234.083 88.2683 233.519 88.9496C232.954 89.6504 232.341 90.1468 231.679 90.4388C231.017 90.7503 230.346 90.906 229.664 90.906C228.866 90.906 228.058 90.7697 227.241 90.4972C226.443 90.2441 225.664 89.8937 224.905 89.446C224.165 88.9983 223.474 88.4629 222.832 87.84C222.189 87.2365 221.654 86.5941 221.226 85.9128L220.466 84.7156C220.311 84.4625 220.194 84.1997 220.116 83.9272L219.532 82.2628C219.435 82.0487 219.337 81.8248 219.24 81.5912C219.143 81.3381 219.006 81.124 218.831 80.9488L218.481 80.4232C218.267 80.1117 218.111 79.8489 218.014 79.6348C217.936 79.4012 217.848 79.2163 217.751 79.08C217.673 78.9243 217.556 78.8172 217.4 78.7588C217.264 78.6809 217.03 78.642 216.7 78.642C216.369 78.642 216.018 78.6615 215.648 78.7004C215.298 78.7393 214.996 78.7588 214.743 78.7588C214.704 78.7588 214.665 78.7588 214.626 78.7588C214.607 78.7393 214.578 78.7296 214.539 78.7296L213.926 78.642C213.692 78.6225 213.507 78.5349 213.371 78.3792C213.254 78.204 213.147 78.0191 213.05 77.8244C212.972 77.6297 212.894 77.4545 212.816 77.2988C212.738 77.1431 212.631 77.0652 212.495 77.0652C212.339 77.0652 212.164 77.0944 211.969 77.1528C211.794 77.1917 211.628 77.2307 211.473 77.2696C211.298 77.3085 210.967 77.3377 210.48 77.3572C210.013 77.3767 209.516 77.4253 208.991 77.5032C208.465 77.5811 207.969 77.7076 207.502 77.8828C207.034 78.058 206.713 78.3305 206.538 78.7004L205.604 80.7444C205.448 81.0753 205.292 81.416 205.136 81.7664C205 82.1168 204.854 82.4575 204.698 82.7884C204.212 83.7812 203.676 84.6669 203.092 85.4456C202.508 86.2437 201.954 87.0516 201.428 87.8692L199.53 90.322C199.141 90.7892 198.654 91.2467 198.07 91.6944C197.486 92.1616 196.941 92.5607 196.435 92.8916L193.894 94.5268C193.544 94.7409 193.174 94.9648 192.785 95.1984C192.395 95.4515 192.045 95.578 191.734 95.578C191.344 95.578 191.052 95.5488 190.858 95.4904C190.682 95.432 190.488 95.4028 190.274 95.4028L187.529 95.7532C187.198 95.7921 186.857 95.8116 186.507 95.8116C186.156 95.8311 185.816 95.8408 185.485 95.8408C185.271 95.8408 185.056 95.8408 184.842 95.8408C184.628 95.8408 184.414 95.8311 184.2 95.8116L181.66 95.6364C180.375 95.578 179.09 95.3931 177.805 95.0816C176.52 94.7896 175.236 94.556 173.951 94.3808L172.432 94.1764C172.043 94.118 171.634 94.0401 171.206 93.9428C170.778 93.8455 170.388 93.7189 170.038 93.5632C169.688 93.4269 169.396 93.2712 169.162 93.096C168.928 92.9208 168.812 92.7261 168.812 92.512C168.812 92.3757 168.86 92.2297 168.958 92.074C169.055 91.9377 169.172 91.8112 169.308 91.6944C169.464 91.5776 169.619 91.4803 169.775 91.4024C169.95 91.344 170.106 91.3148 170.242 91.3148C170.476 91.3148 170.7 91.344 170.914 91.4024C171.148 91.4803 171.371 91.5581 171.586 91.636C171.819 91.7333 172.053 91.8209 172.286 91.8988C172.52 91.9767 172.754 92.0253 172.987 92.0448L175.907 92.2784C176.18 92.3173 176.442 92.3465 176.696 92.366C176.949 92.3855 177.211 92.3952 177.484 92.3952C178.165 92.4147 178.866 92.3952 179.586 92.3368C180.307 92.2784 181.017 92.2005 181.718 92.1032L184.609 91.6652C185.095 91.5873 185.572 91.5095 186.04 91.4316C186.526 91.3732 187.003 91.3245 187.47 91.2856C188.015 91.2272 188.492 91.1299 188.901 90.9936C189.329 90.8573 189.69 90.7113 189.982 90.5556C190.274 90.3999 190.517 90.2539 190.712 90.1176C190.926 89.9813 191.111 89.884 191.266 89.8256L191.471 89.7672C191.51 89.7477 191.578 89.738 191.675 89.738C191.734 89.738 191.792 89.7672 191.85 89.8256C191.87 89.8256 191.967 89.7867 192.142 89.7088C192.337 89.6504 192.541 89.5725 192.756 89.4752L193.34 89.2124C193.515 89.1345 193.612 89.0664 193.632 89.008C194.04 88.4629 194.663 87.9763 195.5 87.548L196.668 86.964C197.291 86.5941 197.856 86.1756 198.362 85.7084C198.868 85.2607 199.326 84.774 199.734 84.2484L202.129 81.1824C202.304 80.9877 202.479 80.7736 202.654 80.54C202.849 80.3064 203.024 80.0631 203.18 79.81C203.355 79.5569 203.491 79.3039 203.589 79.0508C203.706 78.7977 203.764 78.5544 203.764 78.3208C203.764 78.3597 203.598 78.3792 203.268 78.3792L201.019 78.3208C200.786 78.3013 200.62 78.2916 200.523 78.2916C200.425 78.2721 200.357 78.2624 200.318 78.2624C200.279 78.2429 200.24 78.2332 200.202 78.2332C200.182 78.2332 200.133 78.2332 200.056 78.2332L199.53 78.35C199.491 78.3695 199.433 78.3889 199.355 78.4084C199.277 78.4279 199.189 78.4473 199.092 78.4668C198.936 78.4668 198.771 78.4279 198.596 78.35C198.44 78.2527 198.284 78.1845 198.128 78.1456L197.544 78.0288C197.233 77.9704 196.951 77.9023 196.698 77.8244C196.444 77.7465 196.182 77.5519 195.909 77.2404L195.296 76.5688C195.023 76.2768 194.722 75.8972 194.391 75.43C194.079 74.9433 193.875 74.4177 193.778 73.8532L193.69 73.386C193.651 73.1913 193.632 73.0648 193.632 73.0064C193.632 72.9675 193.632 72.9383 193.632 72.9188C193.651 72.8993 193.661 72.8701 193.661 72.8312L193.865 71.6632C193.924 71.488 193.962 71.3225 193.982 71.1668C194.001 70.9916 194.021 70.8067 194.04 70.612L194.099 69.59C194.118 69.3175 194.177 69.0449 194.274 68.7724C194.391 68.4804 194.488 68.1884 194.566 67.8964L194.858 66.67L195.325 65.502C195.403 65.3073 195.481 65.1224 195.559 64.9472C195.637 64.7525 195.724 64.5579 195.822 64.3632L196.376 63.2536C196.941 62.2608 197.486 61.5211 198.012 61.0344C198.557 60.5283 199.111 60.2752 199.676 60.2752C200.377 60.2752 201.039 60.5185 201.662 61.0052C202.284 61.4724 202.849 62.0564 203.355 62.7572C203.881 63.4385 204.328 64.1783 204.698 64.9764C205.088 65.7551 205.389 66.4656 205.604 67.108L205.779 67.7796C205.818 67.9159 205.847 68.0424 205.866 68.1592C205.886 68.2565 205.905 68.3539 205.925 68.4512L206.246 70.4076C206.285 70.758 206.343 71.0695 206.421 71.342C206.48 71.5756 206.548 71.7897 206.626 71.9844C206.723 72.1596 206.83 72.2472 206.947 72.2472C206.966 72.2472 206.976 72.2472 206.976 72.2472C206.995 72.2277 207.025 72.218 207.064 72.218L207.589 72.1596C208.095 72.1012 208.553 72.0331 208.962 71.9552C209.37 71.8773 209.799 71.8092 210.246 71.7508L211.998 71.4588C212.31 71.4199 212.612 71.3712 212.904 71.3128C213.196 71.2544 213.488 71.1765 213.78 71.0792L216.787 70.32L218.043 69.9112C218.296 69.7944 218.52 69.6095 218.714 69.3564C218.928 69.0839 219.104 68.7724 219.24 68.422C219.396 68.0716 219.522 67.7115 219.62 67.3416C219.717 66.9523 219.795 66.5824 219.853 66.232C219.95 65.6869 220.116 64.9083 220.35 63.896C220.583 62.8643 220.885 61.7644 221.255 60.5964C221.644 59.4089 222.092 58.2215 222.598 57.034C223.124 55.8465 223.708 54.8148 224.35 53.9388C224.428 53.8415 224.593 53.6176 224.846 53.2672C225.099 52.9168 225.401 52.5567 225.752 52.1868C226.102 51.7975 226.482 51.4568 226.89 51.1648C227.299 50.8533 227.688 50.6976 228.058 50.6976C228.779 50.6976 229.382 50.9507 229.869 51.4568C230.355 51.9435 230.745 52.5372 231.037 53.238C231.329 53.9388 231.533 54.6883 231.65 55.4864C231.786 56.2651 231.854 56.9464 231.854 57.5304C231.854 58.3869 231.786 59.2532 231.65 60.1292C231.514 61.0052 231.329 61.8617 231.095 62.6988C230.862 63.5164 230.57 64.3048 230.219 65.064C229.888 65.8037 229.518 66.4656 229.11 67.0496C229.11 67.0301 229.002 67.1567 228.788 67.4292C228.574 67.6823 228.302 68.0132 227.971 68.422C227.659 68.8308 227.309 69.2785 226.92 69.7652C226.53 70.2324 226.151 70.6704 225.781 71.0792C225.43 71.488 225.119 71.8287 224.846 72.1012C224.574 72.3737 224.389 72.51 224.292 72.51C224.33 72.5489 224.438 72.5684 224.613 72.5684C224.827 72.5684 225.07 72.5489 225.343 72.51C225.615 72.4711 225.917 72.4419 226.248 72.4224L229.226 72.0136C229.363 71.9941 229.489 71.9747 229.606 71.9552C229.723 71.9357 229.849 71.9065 229.986 71.8676L231.533 71.634C232.604 71.5172 233.704 71.342 234.833 71.1084C235.962 70.8748 237.081 70.6023 238.191 70.2908L240.352 69.7068C240.994 69.5316 241.627 69.3467 242.25 69.152C242.892 68.9573 243.525 68.7529 244.148 68.5388L248.469 67.0788C248.683 66.9815 248.79 66.8647 248.79 66.7284C248.79 66.7089 248.781 66.6895 248.761 66.67C248.761 66.6505 248.761 66.6213 248.761 66.5824L248.586 65.9984C248.391 65.356 248.294 64.6455 248.294 63.8668C248.294 62.4263 248.323 60.8105 248.382 59.0196C248.401 58.3383 248.459 57.5693 248.557 56.7128C248.654 55.8563 248.81 54.9803 249.024 54.0848C249.258 53.1699 249.54 52.2841 249.871 51.4276C250.221 50.5711 250.64 49.8021 251.126 49.1208C251.613 48.4395 252.178 47.8944 252.82 47.4856C253.462 47.0768 254.202 46.8724 255.039 46.8724C255.954 46.8724 256.742 47.1157 257.404 47.6024C258.066 48.0696 258.631 48.6536 259.098 49.3544C259.565 50.0552 259.954 50.8144 260.266 51.632C260.577 52.4301 260.84 53.1601 261.054 53.822L261.638 55.6324C261.891 56.4695 262.037 57.3065 262.076 58.1436C262.076 59.6036 261.784 61.0149 261.2 62.3776C260.616 63.7403 259.799 64.9472 258.748 65.9984L257.93 66.816L256.12 68.3052L255.536 68.6556C255.244 68.8308 254.961 69.0157 254.689 69.2104C254.436 69.3856 254.309 69.5803 254.309 69.7944C254.309 69.9112 254.338 70.0085 254.397 70.0864L255.185 71.1668C255.341 71.3615 255.487 71.5464 255.623 71.7216C255.779 71.8968 255.935 72.0623 256.09 72.218L257.083 73.1524C258.465 74.3009 259.954 75.0991 261.551 75.5468C263.147 75.9751 264.772 76.1892 266.427 76.1892C267.595 76.1892 268.763 76.1016 269.931 75.9264C271.099 75.7512 272.248 75.5273 273.377 75.2548L274.516 74.992C274.593 74.9725 274.7 74.9433 274.837 74.9044C274.973 74.846 275.1 74.7973 275.216 74.7584C275.353 74.7 275.46 74.6513 275.538 74.6124C275.635 74.554 275.684 74.5053 275.684 74.4664C275.684 74.3885 275.625 74.2717 275.508 74.116L275.041 73.6196C274.885 73.3471 274.778 73.0648 274.72 72.7728C274.662 72.4613 274.613 72.1401 274.574 71.8092C274.574 71.6535 274.574 71.488 274.574 71.3128C274.574 71.1376 274.584 70.9721 274.603 70.8164L274.72 69.9112C274.739 69.7944 274.769 69.6776 274.808 69.5608C274.846 69.444 274.885 69.3369 274.924 69.2396L275.187 68.6848C275.226 68.5875 275.275 68.4999 275.333 68.422C275.392 68.3247 275.45 68.2273 275.508 68.13L275.771 67.546L275.946 66.6992L276.063 65.794C276.18 65.2489 276.365 64.6844 276.618 64.1004C276.871 63.4969 277.173 62.9129 277.523 62.3484C277.893 61.7644 278.292 61.2096 278.72 60.684C279.149 60.1389 279.596 59.6425 280.064 59.1948L281.173 58.1144C281.426 57.8613 281.718 57.5888 282.049 57.2968C282.4 56.9853 282.76 56.6933 283.13 56.4208C283.519 56.1483 283.898 55.9244 284.268 55.7492C284.658 55.5545 285.028 55.4572 285.378 55.4572C285.65 55.4572 285.923 55.5351 286.196 55.6908C286.468 55.8271 286.731 56.012 286.984 56.2456C287.12 56.3819 287.364 56.6641 287.714 57.0924C288.064 57.5012 288.415 58.0755 288.765 58.8152C289.135 59.5549 289.456 60.4699 289.729 61.56C290.021 62.6307 290.167 63.896 290.167 65.356C290.167 65.8816 290.138 66.3391 290.079 66.7284C290.021 67.0983 289.914 67.4876 289.758 67.8964L289.262 69.2396C289.164 69.4537 289.086 69.6873 289.028 69.9404C288.989 70.174 288.931 70.3881 288.853 70.5828C288.755 70.8943 288.58 71.1863 288.327 71.4588C288.094 71.7313 287.84 72.0136 287.568 72.3056C287.315 72.5781 287.072 72.8604 286.838 73.1524C286.624 73.4444 286.478 73.7656 286.4 74.116C286.38 74.1549 286.517 74.2328 286.809 74.3496C287.101 74.4664 287.461 74.5929 287.889 74.7292C288.317 74.846 288.765 74.9725 289.232 75.1088C289.7 75.2451 290.099 75.3521 290.43 75.43L291.393 75.6636C291.977 75.8193 292.551 75.9167 293.116 75.9556C293.68 75.9751 294.245 75.9751 294.81 75.9556C295.082 75.9556 295.364 75.9556 295.656 75.9556C295.948 75.9361 296.231 75.9167 296.503 75.8972L299.452 75.722C299.744 75.7025 300.085 75.6831 300.474 75.6636C300.883 75.6247 301.311 75.5857 301.759 75.5468C302.207 75.4884 302.664 75.4203 303.132 75.3424C303.599 75.2645 304.046 75.1477 304.475 74.992L307.044 74.116C307.258 74.0381 307.473 73.97 307.687 73.9116C307.92 73.8337 308.144 73.7656 308.358 73.7072C309.234 73.4931 309.935 73.1135 310.461 72.5684C311.006 72.0039 311.473 71.3712 311.862 70.6704C312.018 70.3979 312.213 70.0183 312.446 69.5316C312.68 69.0449 312.923 68.568 313.176 68.1008C313.449 67.6141 313.721 67.1956 313.994 66.8452C314.266 66.4948 314.52 66.3196 314.753 66.3196C314.87 66.3196 314.948 66.4267 314.987 66.6408C315.045 66.8549 315.074 67.0885 315.074 67.3416C315.074 67.7504 315.045 68.1689 314.987 68.5972L314.87 69.4148L314.315 71.1668C314.179 71.4393 314.052 71.7313 313.936 72.0428C313.838 72.3348 313.692 72.6073 313.498 72.8604L312.68 73.9408C312.544 74.116 312.417 74.3009 312.3 74.4956C312.203 74.6708 312.154 74.8557 312.154 75.0504V75.138C312.115 75.0991 312.368 75.0796 312.914 75.0796C313.225 75.0796 313.595 75.0893 314.023 75.1088C314.471 75.1088 314.909 75.1185 315.337 75.138C315.785 75.1575 316.194 75.1769 316.564 75.1964C316.933 75.1964 317.216 75.1964 317.41 75.1964C317.916 75.1964 318.5 75.1769 319.162 75.138C319.824 75.0796 320.467 74.9531 321.09 74.7584C321.615 74.6027 322.073 74.3107 322.462 73.8824C322.851 73.4541 323.202 72.9772 323.513 72.4516C323.844 71.9065 324.126 71.3517 324.36 70.7872C324.613 70.2032 324.856 69.6873 325.09 69.2396L325.557 68.4512C325.713 68.1787 325.898 67.9451 326.112 67.7504C326.346 67.5557 326.54 67.4584 326.696 67.4584C326.793 67.4584 326.861 67.5265 326.9 67.6628C326.959 67.7991 327.007 68.0327 327.046 68.3636C327.085 68.8113 327.183 69.1812 327.338 69.4732C327.514 69.7652 327.776 69.9793 328.127 70.1156L328.886 70.4952L331.28 71.488L332.565 71.9552C333.227 72.1888 333.918 72.3737 334.638 72.51C335.378 72.6268 336.089 72.6852 336.77 72.6852C337.743 72.6852 338.395 72.4419 338.726 71.9552C339.057 71.4685 339.223 70.6996 339.223 69.6484C339.223 69.0839 339.174 68.4999 339.077 67.8964C338.999 67.2929 338.892 66.7089 338.756 66.1444L338.318 64.188C338.22 63.7403 338.133 63.3023 338.055 62.874C337.977 62.4263 337.899 61.9785 337.821 61.5308L336.916 56.2456C336.76 55.3696 336.585 54.4936 336.39 53.6176L335.252 48.9748C334.94 47.7289 334.706 46.5123 334.551 45.3248C334.395 44.1179 334.171 42.9012 333.879 41.6748L332.624 36.5356C332.429 35.7959 332.293 35.0659 332.215 34.3456C332.156 33.6253 332.127 32.8272 332.127 31.9512L331.981 30.6372L331.806 30.1116L331.31 28.9728C331.154 28.4861 330.979 27.9897 330.784 27.4836C330.589 26.9775 330.492 26.4713 330.492 25.9652C330.492 25.6343 330.58 25.3423 330.755 25.0892C330.93 24.8167 331.125 24.5441 331.339 24.2716L332.01 23.454C332.127 23.3567 332.224 23.2301 332.302 23.0744C332.4 22.9187 332.507 22.7629 332.624 22.6072C332.701 22.5099 332.779 22.3639 332.857 22.1692C332.935 21.9745 333.023 21.7799 333.12 21.5852C333.237 21.3905 333.373 21.2251 333.529 21.0888C333.684 20.9331 333.869 20.8552 334.084 20.8552C334.181 20.8552 334.268 20.9136 334.346 21.0304C334.424 21.1277 334.492 21.2543 334.551 21.41C334.609 21.5463 334.658 21.6923 334.697 21.848C334.736 22.0037 334.765 22.14 334.784 22.2568L334.901 22.8992C334.998 23.5027 335.222 24.0964 335.573 24.6804C335.943 25.2644 336.332 25.8095 336.741 26.3156C336.877 26.5103 337.052 26.7341 337.266 26.9872C337.5 27.2403 337.724 27.5128 337.938 27.8048C338.172 28.0773 338.366 28.3499 338.522 28.6224C338.678 28.8949 338.756 29.148 338.756 29.3816C338.756 29.6152 338.678 29.8585 338.522 30.1116C338.366 30.3647 338.181 30.608 337.967 30.8416C337.753 31.0752 337.51 31.2991 337.237 31.5132C336.984 31.7273 336.76 31.9025 336.566 32.0388L335.398 33.0316C335.242 33.1873 335.164 33.2749 335.164 33.2944L335.631 35.3092C335.69 35.5623 335.758 35.8153 335.836 36.0684C335.913 36.3215 335.982 36.5843 336.04 36.8568L336.595 40.0396C336.731 40.8961 336.935 41.9279 337.208 43.1348C337.5 44.3417 337.811 45.6655 338.142 47.106C338.473 48.5465 338.814 50.0844 339.164 51.7196C339.515 53.3548 339.826 55.0289 340.099 56.742C340.391 58.4356 340.624 60.1487 340.8 61.8812C340.975 63.5943 341.062 65.2587 341.062 66.8744C341.062 68.4512 340.946 70.0085 340.712 71.5464C340.498 73.0648 340.099 74.5832 339.515 76.1016C339.359 76.5104 339.106 76.8803 338.756 77.2112C338.405 77.5421 338.006 77.8244 337.558 78.058C337.111 78.2721 336.643 78.4376 336.157 78.5544C335.67 78.6712 335.203 78.7296 334.755 78.7296C333.646 78.7296 332.526 78.5641 331.397 78.2332C330.268 77.9023 329.149 77.474 328.039 76.9484C327.806 76.8316 327.562 76.7051 327.309 76.5688C327.056 76.4131 326.803 76.2671 326.55 76.1308C326.316 75.9751 326.073 75.8485 325.82 75.7512C325.567 75.6539 325.324 75.6052 325.09 75.6052C324.856 75.6052 324.632 75.6636 324.418 75.7804C324.224 75.8972 324.019 76.1016 323.805 76.3936L322.666 78.2916C322.452 78.6225 322.219 78.934 321.966 79.226C321.712 79.4985 321.44 79.7127 321.148 79.8684Z" fill="black"/>
</svg>
