<svg width="335" height="335" viewBox="0 0 335 335" fill="none" xmlns="http://www.w3.org/2000/svg">
<path d="M295.742 86.04H300.649V95.2002C299.786 95.2002 298.922 95.2002 298.032 95.2002V155.068H305.557V172.08H307.52V180.586C306.872 180.586 306.224 180.586 305.557 180.586V308.174C298.107 308.174 290.658 308.174 282.983 308.174C282.971 304.806 282.959 301.439 282.946 297.97C282.936 295.83 282.926 293.691 282.915 291.551C282.897 288.159 282.88 284.767 282.87 281.375C282.863 278.903 282.852 276.432 282.837 273.961C282.829 272.654 282.823 271.348 282.821 270.041C282.819 268.807 282.812 267.574 282.802 266.34C282.798 265.679 282.798 265.019 282.799 264.358C282.716 256.092 279.668 248.916 273.823 243.071C273.62 242.868 273.416 242.664 273.206 242.454C267.573 237.199 260.472 235.284 252.96 235.425C246.939 235.685 241.057 238.127 236.528 242.09C236.312 242.259 236.096 242.429 235.874 242.604C230.984 246.558 228.437 252.562 226.714 258.447C226.656 258.644 226.598 258.841 226.538 259.044C226.349 259.935 226.317 260.789 226.287 261.7C226.274 262.09 226.26 262.48 226.247 262.882C226.234 263.303 226.222 263.724 226.209 264.157C226.202 264.375 226.196 264.592 226.189 264.816C226.041 269.535 225.988 274.253 225.956 278.973C225.949 279.825 225.942 280.676 225.935 281.528C225.919 283.509 225.905 285.49 225.89 287.47C225.872 289.957 225.852 292.444 225.833 294.931C225.798 299.345 225.765 303.759 225.732 308.174C216.664 308.174 207.595 308.174 198.252 308.174C198.251 305.553 198.249 302.933 198.248 300.233C198.242 291.836 198.229 283.439 198.21 275.041C198.208 273.736 198.205 272.43 198.202 271.124C198.201 270.864 198.201 270.604 198.2 270.336C198.192 266.135 198.189 261.934 198.188 257.733C198.187 253.417 198.18 249.102 198.167 244.787C198.159 242.127 198.156 239.467 198.159 236.807C198.161 234.98 198.157 233.152 198.148 231.325C198.143 230.273 198.141 229.221 198.145 228.169C198.166 221.844 197.739 216.416 193.263 211.513C189.789 208.167 185.777 206.614 181.004 206.615C176.582 206.753 172.695 208.888 169.688 212.074C166.828 215.711 165.712 220.031 165.734 224.574C165.732 224.934 165.729 225.294 165.727 225.664C165.721 226.86 165.722 228.056 165.723 229.252C165.72 230.113 165.717 230.974 165.713 231.835C165.705 233.684 165.701 235.533 165.7 237.382C165.698 240.056 165.69 242.729 165.681 245.402C165.667 249.74 165.658 254.078 165.65 258.416C165.644 262.628 165.635 266.84 165.623 271.052C165.622 271.312 165.622 271.572 165.621 271.84C165.617 273.144 165.614 274.448 165.61 275.753C165.579 286.56 165.556 297.367 165.537 308.174C162.19 308.174 158.844 308.174 155.396 308.174C155.394 307.09 155.393 306.006 155.392 304.889C155.38 294.934 155.362 284.979 155.337 275.025C155.334 273.718 155.331 272.412 155.328 271.106C155.327 270.846 155.326 270.586 155.326 270.318C155.316 266.114 155.31 261.911 155.306 257.707C155.302 253.39 155.293 249.073 155.279 244.756C155.271 242.094 155.267 239.433 155.267 236.772C155.267 234.944 155.263 233.116 155.254 231.288C155.249 230.235 155.247 229.183 155.25 228.13C155.261 222.267 155.09 217.528 151.47 212.646C151.171 212.238 151.171 212.238 150.867 211.821C148.318 208.894 144.503 206.924 140.65 206.636C136.359 206.448 132.65 207.351 129.224 210.029C128.923 210.245 128.923 210.245 128.615 210.465C125.934 212.524 124.197 215.775 123.479 219.041C123.279 220.612 123.285 222.166 123.283 223.748C123.281 224.289 123.281 224.289 123.278 224.842C123.273 226.052 123.271 227.262 123.268 228.472C123.265 229.339 123.261 230.207 123.258 231.074C123.251 232.941 123.245 234.809 123.24 236.676C123.232 239.376 123.223 242.076 123.214 244.776C123.198 249.157 123.184 253.537 123.171 257.918C123.158 262.173 123.144 266.428 123.13 270.683C123.128 271.076 123.128 271.076 123.127 271.478C123.122 272.794 123.118 274.11 123.113 275.426C123.076 286.342 123.041 297.258 123.008 308.174C119.661 308.174 116.314 308.174 112.866 308.174C112.865 307.081 112.864 305.988 112.863 304.862C112.851 294.827 112.833 284.792 112.808 274.758C112.805 273.441 112.802 272.125 112.798 270.809C112.798 270.546 112.797 270.284 112.796 270.014C112.786 265.777 112.781 261.539 112.777 257.301C112.773 252.95 112.764 248.598 112.75 244.247C112.742 241.564 112.738 238.881 112.738 236.198C112.738 234.356 112.733 232.513 112.725 230.671C112.72 229.61 112.718 228.548 112.72 227.487C112.731 221.895 112.587 217.371 109.268 212.646C109.052 212.335 109.052 212.335 108.832 212.016C106.676 209.215 103.203 207.429 99.7803 206.758C94.8026 206.201 90.731 207.342 86.6943 210.356C83.5558 212.916 81.7558 216.524 81.1328 220.498C80.8875 223.345 80.948 226.212 80.9542 229.066C80.9514 229.931 80.948 230.795 80.944 231.66C80.9364 233.513 80.9335 235.366 80.9339 237.219C80.9344 239.899 80.9277 242.578 80.9194 245.258C80.906 249.606 80.8983 253.954 80.8943 258.303C80.8904 262.524 80.8838 266.745 80.8736 270.966C80.8729 271.227 80.8723 271.488 80.8716 271.756C80.8684 273.064 80.8652 274.372 80.8619 275.68C80.8349 286.511 80.8175 297.343 80.8057 308.174C75.8396 308.174 70.8734 308.174 65.7568 308.174C65.7549 307.088 65.753 306.003 65.751 304.884C65.733 294.92 65.7101 284.956 65.6819 274.991C65.6782 273.684 65.6746 272.377 65.671 271.07C65.6703 270.81 65.6695 270.55 65.6688 270.282C65.6572 266.073 65.6491 261.865 65.6422 257.657C65.6351 253.336 65.6243 249.015 65.61 244.694C65.6014 242.03 65.5956 239.366 65.5935 236.701C65.5918 234.872 65.5864 233.043 65.5783 231.214C65.5738 230.16 65.5713 229.106 65.572 228.052C65.5725 226.906 65.5671 225.76 65.5601 224.613C65.5617 224.285 65.5633 223.957 65.5649 223.618C65.5206 219.144 64.1703 214.873 61.0937 211.541C57.296 208.015 53.0173 206.91 47.9669 206.996C43.9401 207.161 40.2776 209.165 37.5198 212.054C34.6671 215.48 33.597 219.116 33.6052 223.472C33.6033 223.835 33.6014 224.198 33.5994 224.571C33.5939 225.785 33.5929 226.999 33.592 228.212C33.5889 229.083 33.5856 229.953 33.582 230.824C33.5747 232.697 33.5698 234.571 33.5665 236.444C33.5617 239.153 33.5534 241.862 33.5442 244.57C33.5293 248.965 33.5173 253.36 33.5072 257.755C33.4973 262.024 33.486 266.292 33.473 270.561C33.4718 270.956 33.4718 270.956 33.4705 271.359C33.4665 272.679 33.4624 274 33.4583 275.321C33.4244 286.272 33.3954 297.223 33.3691 308.174C29.4826 308.174 25.5961 308.174 21.5918 308.174C21.5918 265.962 21.5918 223.75 21.5918 180.259C21.052 180.259 20.5122 180.259 19.9561 180.259C19.9561 176.912 19.9561 173.565 19.9561 170.117H33.6963V175.024H40.5664C40.5664 173.405 40.5664 171.786 40.5664 170.117H53.9795V175.024H60.8496C60.8496 173.405 60.8496 171.786 60.8496 170.117H73.9355V175.024H80.8057C80.8057 173.405 80.8057 171.786 80.8057 170.117H94.5459V175.024H101.416C101.416 173.405 101.416 171.786 101.416 170.117H111.885V175.024H118.755C118.755 173.405 118.755 171.786 118.755 170.117H132.168V175.024H139.038C139.038 173.405 139.038 171.786 139.038 170.117H153.433V175.024H160.63C160.63 173.405 160.63 171.786 160.63 170.117H176.006V175.024H183.203C183.203 173.405 183.203 171.786 183.203 170.117H197.925V175.024H201.851C201.851 174.053 201.851 173.081 201.851 172.08H203.813C203.813 166.466 203.813 160.852 203.813 155.068H211.338C211.338 135.42 211.338 115.771 211.338 95.5273C210.474 95.5273 209.611 95.5273 208.721 95.5273C208.721 92.5045 208.721 89.4816 208.721 86.3672H213.628V92.583H295.742C295.742 90.4238 295.742 88.2646 295.742 86.04Z" fill="#332315"/>
<path d="M254.194 16.6846C254.518 16.7925 254.842 16.9005 255.176 17.0117C255.471 17.8984 255.567 18.5241 255.62 19.4441C255.637 19.7394 255.655 20.0347 255.673 20.339C255.699 20.8212 255.699 20.8212 255.727 21.3132C255.746 21.6497 255.766 21.9862 255.786 22.3329C255.85 23.4353 255.911 24.5378 255.973 25.6403C256.016 26.3975 256.06 27.1548 256.103 27.9121C256.212 29.8104 256.319 31.7089 256.425 33.6074C256.481 34.6098 256.537 35.6123 256.594 36.6147C256.688 38.2863 256.781 39.958 256.873 41.6296C256.887 41.8799 256.901 42.1301 256.915 42.388C256.954 43.0911 256.992 43.7942 257.03 44.4973C257.062 45.0807 257.062 45.0807 257.094 45.6759C257.14 46.8092 257.146 47.9381 257.139 49.0723C257.397 49.0769 257.656 49.0815 257.922 49.0863C262.759 49.2909 267.502 50.5613 271.86 52.6709C272.246 52.8552 272.631 53.0395 273.028 53.2294C282.19 57.7724 288.847 65.8463 292.16 75.4532C293.105 78.3481 293.863 81.3431 293.779 84.4043C293.024 84.4043 292.268 84.4043 291.489 84.4043V89.6387C289.006 89.6387 286.523 89.6387 283.965 89.6387C283.965 87.8034 283.965 85.9681 283.965 84.0771C280.726 84.0771 277.487 84.0771 274.15 84.0771V89.6387C271.883 89.6387 269.616 89.6387 267.28 89.6387C267.28 87.8034 267.28 85.9681 267.28 84.0771C264.149 84.0771 261.019 84.0771 257.793 84.0771V89.6387C255.526 89.6387 253.259 89.6387 250.923 89.6387C250.923 87.8034 250.923 85.9681 250.923 84.0771C247.684 84.0771 244.445 84.0771 241.108 84.0771V89.6387C238.949 89.6387 236.79 89.6387 234.565 89.6387C234.565 87.8034 234.565 85.9681 234.565 84.0771C231.435 84.0771 228.304 84.0771 225.078 84.0771V89.6387C222.595 89.6387 220.112 89.6387 217.554 89.6387C217.554 87.9113 217.554 86.184 217.554 84.4043C217.014 84.4043 216.474 84.4043 215.918 84.4043C215.86 82.4938 216.039 80.8042 216.47 78.945C216.529 78.6872 216.589 78.4293 216.65 78.1636C218.992 68.384 225.108 60.0074 233.584 54.6338C239.421 51.2319 245.489 49.3427 252.231 49.0723C252.238 48.8383 252.244 48.6044 252.251 48.3634C252.403 43.0357 252.625 37.7168 252.93 32.3957C253.083 29.7291 253.226 27.0642 253.305 24.3943C253.318 23.9709 253.33 23.5476 253.343 23.1114C253.365 22.3242 253.384 21.5369 253.399 20.7495C253.409 20.4029 253.418 20.0563 253.428 19.6992C253.434 19.3993 253.44 19.0995 253.446 18.7905C253.545 17.9536 253.772 17.4075 254.194 16.6846Z" fill="#332315"/>
<path d="M269.897 243.726C275.466 248.031 278.597 253.813 279.712 260.737C279.834 262.365 279.837 263.981 279.823 265.612C279.823 266.08 279.823 266.548 279.824 267.016C279.824 268.271 279.818 269.526 279.811 270.781C279.805 272.098 279.805 273.415 279.804 274.732C279.801 277.22 279.792 279.707 279.783 282.195C279.772 285.029 279.766 287.864 279.761 290.699C279.751 296.524 279.734 302.349 279.712 308.174C277.985 308.174 276.257 308.174 274.478 308.174C274.476 307.594 274.475 307.014 274.474 306.416C274.462 300.939 274.443 295.462 274.417 289.984C274.404 287.169 274.394 284.353 274.389 281.537C274.385 279.081 274.376 276.625 274.362 274.169C274.354 272.871 274.349 271.572 274.349 270.273C274.35 269.047 274.344 267.821 274.333 266.595C274.329 265.938 274.331 265.281 274.334 264.624C274.269 258.849 272.312 253.623 268.237 249.516C264.865 246.405 261.242 245.266 256.812 244.38V308.174C255.192 308.174 253.573 308.174 251.904 308.174C251.904 287.122 251.904 266.07 251.904 244.38C245.397 246.007 241.042 248.079 237.489 253.784C236.484 255.481 235.733 257.199 235.22 259.102C235.109 259.512 234.998 259.922 234.884 260.345C234.429 262.423 234.465 264.496 234.461 266.615C234.458 267.069 234.455 267.524 234.451 267.979C234.442 269.206 234.437 270.432 234.433 271.659C234.428 272.944 234.419 274.229 234.411 275.514C234.396 277.943 234.383 280.373 234.373 282.803C234.36 285.57 234.344 288.338 234.327 291.105C234.294 296.795 234.265 302.484 234.238 308.174C232.511 308.174 230.784 308.174 229.004 308.174C228.966 302.128 228.937 296.081 228.919 290.035C228.911 287.227 228.899 284.419 228.881 281.611C228.864 279.161 228.854 276.712 228.85 274.262C228.848 272.967 228.843 271.672 228.831 270.377C228.739 260.035 228.739 260.035 230.64 255.503C230.757 255.211 230.874 254.918 230.994 254.617C231.263 253.971 231.559 253.36 231.887 252.743C231.998 252.528 232.109 252.313 232.224 252.092C233.231 250.207 234.426 248.571 235.874 246.997C236.119 246.722 236.364 246.447 236.617 246.164C245.759 236.416 259.475 236.423 269.897 243.726Z" fill="#332316"/>
<path d="M286.316 114.093C288.512 115.85 290.039 117.898 290.508 120.718C290.535 121.217 290.548 121.718 290.547 122.219C290.548 122.51 290.548 122.801 290.548 123.101C290.547 123.574 290.547 123.574 290.545 124.057C290.545 124.392 290.545 124.727 290.545 125.073C290.545 126.179 290.542 127.285 290.54 128.392C290.539 129.16 290.539 129.927 290.538 130.695C290.537 132.715 290.534 134.734 290.53 136.754C290.526 139.178 290.525 141.601 290.523 144.025C290.52 147.706 290.513 151.387 290.508 155.068C284.354 155.068 278.2 155.068 271.86 155.068C271.808 146.464 271.808 146.464 271.796 142.785C271.789 140.279 271.779 137.772 271.762 135.266C271.747 133.244 271.74 131.223 271.736 129.201C271.734 128.432 271.729 127.662 271.722 126.892C271.712 125.811 271.711 124.73 271.712 123.648C271.707 123.333 271.702 123.017 271.698 122.692C271.713 120.138 272.386 118.068 273.721 115.892C277.461 112.254 281.775 111.6 286.316 114.093Z" fill="#F7F6F5"/>
<path d="M232.498 113.742C234.96 115.147 236.56 116.948 237.358 119.683C237.519 120.432 237.55 121.099 237.549 121.865C237.55 122.158 237.55 122.452 237.55 122.754C237.549 123.233 237.549 123.233 237.547 123.723C237.547 124.061 237.547 124.399 237.547 124.748C237.547 125.867 237.544 126.985 237.542 128.104C237.541 128.88 237.541 129.655 237.54 130.431C237.539 132.473 237.536 134.514 237.532 136.556C237.528 139.005 237.527 141.455 237.525 143.904C237.522 147.626 237.515 151.347 237.51 155.068C231.356 155.068 225.202 155.068 218.862 155.068C218.81 146.545 218.81 146.545 218.798 142.901C218.791 140.419 218.781 137.936 218.764 135.453C218.749 133.451 218.742 131.449 218.738 129.446C218.736 128.684 218.731 127.921 218.724 127.159C218.714 126.088 218.713 125.017 218.714 123.945C218.709 123.633 218.704 123.32 218.699 122.998C218.717 120.168 219.514 117.452 221.497 115.354C224.798 112.63 228.585 111.949 232.498 113.742Z" fill="#F6F4F3"/>
<path d="M259.756 114.175C261.881 115.807 263.415 117.861 263.8 120.569C263.841 121.487 263.844 122.396 263.83 123.314C263.83 123.659 263.831 124.004 263.831 124.36C263.83 125.491 263.82 126.622 263.809 127.753C263.807 128.541 263.805 129.329 263.804 130.117C263.799 132.183 263.786 134.25 263.771 136.317C263.756 138.801 263.75 141.284 263.742 143.768C263.729 147.535 263.704 151.301 263.682 155.068C257.636 155.068 251.59 155.068 245.361 155.068C245.322 146.614 245.322 146.614 245.313 143.002C245.308 140.54 245.301 138.078 245.287 135.616C245.277 133.631 245.271 131.645 245.268 129.66C245.266 128.903 245.263 128.147 245.258 127.391C245.25 126.329 245.249 125.267 245.25 124.205C245.246 123.895 245.243 123.584 245.239 123.264C245.253 120.227 245.98 117.511 248.164 115.289C251.443 112.296 255.89 111.829 259.756 114.175Z" fill="#F7F6F5"/>
<path d="M260.083 248.306C264.456 249.763 267.769 252.742 269.897 256.812C271.041 259.683 271.393 262.321 271.355 265.391C271.355 265.8 271.355 266.209 271.355 266.631C271.354 267.738 271.348 268.845 271.339 269.951C271.33 271.114 271.33 272.276 271.328 273.438C271.324 275.633 271.313 277.827 271.3 280.021C271.286 282.522 271.278 285.023 271.272 287.524C271.258 292.663 271.234 297.801 271.206 302.939C267.535 302.939 263.865 302.939 260.083 302.939C260.083 295.058 260.083 287.177 260.083 279.058L261.719 278.403C262.493 277.371 262.504 276.391 262.373 275.132C262.004 274.358 262.004 274.358 261.392 273.823C260.96 273.715 260.528 273.607 260.083 273.496C260.083 265.183 260.083 256.87 260.083 248.306Z" fill="#332315"/>
<path d="M248.633 248.633V273.496C247.823 273.82 247.823 273.82 246.997 274.15C246.594 275.36 246.48 276.491 246.67 277.749C247.282 278.544 247.743 278.94 248.633 279.385V302.939C244.962 302.939 241.292 302.939 237.51 302.939C237.48 297.638 237.456 292.337 237.442 287.036C237.435 284.574 237.426 282.113 237.411 279.651C237.398 277.504 237.39 275.356 237.387 273.209C237.385 272.073 237.381 270.938 237.371 269.802C237.361 268.53 237.361 267.258 237.361 265.985C237.356 265.615 237.352 265.245 237.347 264.864C237.37 260.352 238.894 256.138 241.89 252.723C243.52 251.201 246.295 248.633 248.633 248.633Z" fill="#332315"/>
<path d="M207.085 158.34H302.285V161.611C301.637 161.611 300.99 161.611 300.322 161.611V162.266C299.782 162.482 299.243 162.697 298.687 162.92C298.403 162.525 298.403 162.525 298.114 162.122C296.81 160.777 294.882 160.988 293.125 160.957C293.031 161.158 292.938 161.359 292.841 161.565C292.403 162.394 291.844 162.937 291.162 163.574C290.203 163.197 289.878 162.959 289.322 162.061C288.422 161.161 288.16 161.138 286.93 161.08C285.754 161.132 285.09 161.261 284.251 162.102C284.049 162.372 283.846 162.642 283.638 162.92C282.798 162.56 282.368 162.318 281.818 161.57C280.677 160.693 279.72 160.719 278.307 160.759C277.017 161.048 276.504 161.693 275.762 162.746C275.662 162.911 275.562 163.077 275.459 163.247C274.838 163.136 274.838 163.136 274.15 162.92C273.887 162.505 273.887 162.505 273.619 162.082C272.719 161.158 272.471 161.137 271.227 161.08C270.051 161.132 269.387 161.261 268.548 162.102C268.346 162.372 268.143 162.642 267.935 162.92C266.997 162.499 266.307 162.079 265.645 161.284C265.645 161.068 265.645 160.852 265.645 160.63C264.349 160.63 263.054 160.63 261.719 160.63C261.503 161.062 261.287 161.494 261.064 161.938C260.451 162.695 260.451 162.695 259.756 163.247C258.696 163.281 258.346 162.83 257.548 162.122C256.812 161.284 256.812 161.284 256.812 160.63C254.357 160.541 254.357 160.541 252.188 161.489C251.715 162.055 251.3 162.614 250.923 163.247C250.207 163.206 250.207 163.206 249.287 162.92C249.058 162.589 248.828 162.259 248.592 161.918C248.024 161.175 247.738 160.979 246.817 160.747C245.476 160.668 244.475 160.631 243.383 161.475C242.896 162.044 242.477 162.607 242.09 163.247C241.003 162.735 240.27 162.196 239.473 161.284C239.473 161.068 239.473 160.852 239.473 160.63C238.285 160.63 237.098 160.63 235.874 160.63C235.658 161.062 235.442 161.494 235.22 161.938C234.361 162.675 234.361 162.675 233.584 163.247C233.255 162.936 232.928 162.622 232.603 162.307C232.42 162.132 232.238 161.957 232.05 161.777C231.621 161.284 231.621 161.284 231.621 160.63C229.547 160.612 229.547 160.612 227.695 161.416C227.099 162.008 227.099 162.008 226.387 162.92C225.547 162.56 225.117 162.318 224.567 161.57C223.425 160.692 222.464 160.74 221.051 160.779C219.642 161.064 219.134 161.858 218.208 162.92C217.536 162.869 217.536 162.869 216.899 162.593C216.717 162.316 216.535 162.039 216.347 161.754C215.508 160.869 215.324 160.806 214.16 160.732C212.933 160.791 212.346 161.073 211.481 161.938C211.218 162.262 210.955 162.586 210.684 162.92C210.431 162.778 210.431 162.778 210.172 162.634C209.171 162.171 208.148 161.898 207.085 161.611C207.085 160.532 207.085 159.452 207.085 158.34Z" fill="#F7F6F5"/>
<path d="M210.029 167.173C211.011 167.5 211.011 167.5 211.706 168.481C212.255 169.188 212.53 169.432 213.407 169.665C214.138 169.741 214.855 169.787 215.591 169.79C215.731 169.489 215.731 169.489 215.875 169.182C216.313 168.353 216.871 167.81 217.554 167.173C218.5 167.545 218.832 167.778 219.373 168.665C220.619 169.911 222.072 169.758 223.77 169.79C223.869 169.586 223.968 169.383 224.07 169.173C224.45 168.431 224.722 167.981 225.405 167.5C226.203 167.5 226.203 167.5 227.041 167.827C227.23 168.104 227.419 168.38 227.614 168.665C228.438 169.559 228.62 169.614 229.781 169.688C231.538 169.607 232.113 168.75 233.257 167.5C234.497 167.62 235.082 168.202 235.874 169.136V169.79C238.103 169.85 238.103 169.85 240.076 169.004C240.573 168.414 240.573 168.414 241.108 167.5C241.844 167.561 241.844 167.561 242.744 167.827C242.926 168.104 243.109 168.38 243.296 168.665C244.176 169.593 244.432 169.618 245.668 169.688C246.858 169.647 246.858 169.647 247.82 169.019C247.947 168.842 248.073 168.664 248.203 168.481C248.96 167.5 248.96 167.5 250.105 167.255C251.683 167.593 252.009 168.135 252.886 169.463V170.117C254.121 170.132 255.283 170.09 256.484 169.79C257.043 169.234 257.369 168.687 257.758 168.005C258.12 167.5 258.12 167.5 259.102 167.255C260.083 167.5 260.083 167.5 260.799 168.318C262.027 169.41 262.869 169.365 264.47 169.303C265.669 169.066 266.182 168.411 266.953 167.5C267.607 167.459 267.607 167.459 268.262 167.827C268.498 168.104 268.734 168.38 268.977 168.665C270.104 169.641 270.714 169.702 272.163 169.628C273.208 169.374 273.563 168.688 274.15 167.827C275.05 167.561 275.05 167.561 275.786 167.5C275.989 167.824 276.191 168.148 276.4 168.481C276.98 169.176 277.306 169.433 278.19 169.662C279.394 169.728 280.309 169.754 281.295 169.007C281.754 168.509 282.205 168.005 282.656 167.5C283.897 167.62 284.481 168.202 285.273 169.136V169.79C286.386 169.767 287.458 169.707 288.545 169.463C289.281 168.653 289.281 168.653 289.854 167.827C290.855 167.664 290.855 167.664 291.816 167.827C292.43 168.277 292.43 168.277 292.798 168.809V169.463C295.193 169.762 295.193 169.762 297.375 169.014C297.82 168.516 298.254 168.008 298.687 167.5C299.315 167.582 299.315 167.582 299.995 167.827C300.4 167.942 300.805 168.057 301.222 168.175C301.748 168.327 301.748 168.327 302.285 168.481V171.426C270.869 171.426 239.453 171.426 207.085 171.426C207.085 170.454 207.085 169.483 207.085 168.481C207.449 168.387 207.814 168.293 208.189 168.195C209.376 167.928 209.376 167.928 210.029 167.173Z" fill="#F6F5F4"/>
<path d="M283.413 197.455C284.65 198.577 285.477 199.675 285.714 201.34C285.752 202.273 285.748 203.196 285.728 204.129C285.727 204.467 285.725 204.805 285.723 205.154C285.715 206.227 285.699 207.3 285.682 208.373C285.676 209.103 285.67 209.834 285.664 210.564C285.651 212.349 285.626 214.133 285.601 215.918C282.362 215.918 279.123 215.918 275.786 215.918C275.764 213.811 275.744 211.704 275.732 209.596C275.727 208.88 275.721 208.163 275.712 207.447C275.7 206.415 275.695 205.384 275.69 204.353C275.685 204.034 275.68 203.715 275.675 203.386C275.674 201.114 276.039 199.726 277.585 197.986C279.258 196.522 281.462 196.534 283.413 197.455Z" fill="#F7F6F4"/>
<path d="M229.985 196.943C231.489 197.681 232.596 198.66 233.257 200.215C233.433 201.426 233.409 202.62 233.385 203.842C233.383 204.187 233.381 204.533 233.379 204.889C233.372 205.989 233.355 207.089 233.339 208.189C233.332 208.937 233.326 209.684 233.321 210.432C233.307 212.261 233.282 214.089 233.257 215.918C230.018 215.918 226.779 215.918 223.442 215.918C223.412 213.869 223.386 211.821 223.371 209.772C223.364 209.076 223.355 208.38 223.344 207.684C223.328 206.68 223.32 205.676 223.315 204.672C223.308 204.364 223.301 204.055 223.294 203.737C223.293 201.746 223.604 200.236 224.751 198.579C226.444 197.007 227.718 196.672 229.985 196.943Z" fill="#F7F6F4"/>
<path d="M256.46 197.148C257.874 197.826 258.509 198.704 259.166 200.096C259.649 201.518 259.588 202.929 259.557 204.417C259.555 204.747 259.553 205.077 259.551 205.418C259.544 206.464 259.527 207.511 259.511 208.557C259.504 209.27 259.498 209.983 259.493 210.696C259.479 212.437 259.454 214.177 259.429 215.918C256.19 215.918 252.951 215.918 249.614 215.918C249.577 213.822 249.544 211.728 249.524 209.632C249.516 208.92 249.505 208.208 249.491 207.496C249.471 206.47 249.462 205.443 249.455 204.417C249.446 204.101 249.438 203.785 249.429 203.46C249.428 201.316 249.863 199.908 251.25 198.252C252.851 196.829 254.439 196.492 256.46 197.148Z" fill="#F7F6F4"/>
<path d="M280.146 160.431C281.566 160.754 282.109 161.458 282.983 162.593C283.695 162.274 284.213 162.03 284.728 161.435C285.643 160.633 286.573 160.767 287.742 160.792C288.672 160.983 288.972 161.214 289.567 161.939C289.77 162.262 289.972 162.586 290.181 162.92C290.073 163.136 289.965 163.352 289.854 163.574C289.651 163.304 289.449 163.034 289.24 162.756C289.011 162.486 288.781 162.217 288.545 161.939C288.329 161.939 288.113 161.939 287.891 161.939C287.992 162.222 288.093 162.505 288.197 162.797C289.047 165.497 289.047 165.497 288.463 166.723C288.274 166.979 288.085 167.236 287.891 167.5C287.708 167.75 287.526 167.999 287.339 168.257C287.197 168.439 287.055 168.621 286.909 168.809C287.449 168.917 287.989 169.025 288.545 169.136V169.79C285.674 170.091 285.674 170.091 284.692 169.353C284.251 168.809 284.251 168.809 283.638 167.827C282.579 167.945 282.335 168.148 281.634 168.993C280.444 170.002 279.719 170.043 278.195 169.978C276.916 169.667 276.544 168.866 275.786 167.827C274.899 167.662 274.899 167.662 274.15 167.827C274.056 168.03 273.961 168.232 273.864 168.441C273.496 169.136 273.496 169.136 272.842 169.79C272.168 169.888 272.168 169.888 271.39 169.892C271.006 169.901 271.006 169.901 270.614 169.909C269.747 169.765 269.465 169.477 268.916 168.809C269.024 168.593 269.132 168.377 269.243 168.154C270.081 167.95 270.081 167.95 270.879 167.827C270.535 167.331 270.535 167.331 270.184 166.825C269.578 165.775 269.558 165.604 269.795 164.331C269.937 163.973 270.079 163.616 270.225 163.247C270.336 162.812 270.447 162.376 270.552 161.939C269.482 162.123 268.973 162.429 268.262 163.247C268.046 163.139 267.83 163.031 267.607 162.92C269.061 161.084 269.061 161.084 270.372 160.758C271.552 160.694 272.455 160.658 273.416 161.402C273.864 161.939 273.864 161.939 274.478 162.92C275.078 162.902 275.078 162.902 275.786 162.593C276.009 162.262 276.231 161.932 276.461 161.591C277.463 160.305 278.598 160.355 280.146 160.431Z" fill="#2B1D12"/>
<path d="M305.229 180.586H305.557V308.174C298.107 308.174 290.658 308.174 282.983 308.174C282.983 292.304 282.983 276.434 282.983 260.083H283.311C283.559 261.409 283.678 262.66 283.677 264.008C283.677 264.394 283.678 264.779 283.678 265.176C283.677 265.594 283.676 266.012 283.675 266.443C283.675 266.891 283.675 267.34 283.675 267.788C283.675 269.001 283.673 270.214 283.671 271.427C283.669 272.697 283.669 273.966 283.668 275.235C283.667 277.637 283.665 280.039 283.661 282.44C283.657 285.687 283.655 288.934 283.653 292.181C283.65 297.294 283.644 302.407 283.638 307.52H305.229C305.229 265.631 305.229 223.743 305.229 180.586Z" fill="#130904"/>
<path d="M245.688 119.736C246.343 120.391 246.343 120.391 246.423 120.997C246.423 121.245 246.422 121.493 246.421 121.749C246.422 122.033 246.423 122.317 246.424 122.61C246.422 122.923 246.419 123.236 246.417 123.558C246.417 123.887 246.417 124.216 246.417 124.554C246.417 125.645 246.412 126.735 246.407 127.826C246.405 128.58 246.405 129.335 246.404 130.089C246.401 132.078 246.395 134.067 246.388 136.056C246.38 138.441 246.377 140.825 246.373 143.21C246.367 146.836 246.354 150.461 246.343 154.087H263.027C263.027 143.291 263.027 132.495 263.027 121.372H263.682V155.068C257.636 155.068 251.59 155.068 245.361 155.068C245.348 146.535 245.348 146.535 245.345 142.906C245.343 140.426 245.341 137.947 245.337 135.468C245.333 133.47 245.331 131.472 245.33 129.473C245.33 128.71 245.328 127.947 245.327 127.183C245.324 126.116 245.324 125.049 245.324 123.982C245.323 123.665 245.322 123.347 245.321 123.02C245.321 122.729 245.322 122.439 245.322 122.14C245.322 121.887 245.321 121.635 245.321 121.375C245.361 120.718 245.361 120.718 245.688 119.736Z" fill="#EFECEA"/>
<path d="M256.484 243.726L257.793 244.053C257.469 244.053 257.145 244.053 256.812 244.053V308.174C255.192 308.174 253.573 308.174 251.904 308.174C251.904 287.23 251.904 266.286 251.904 244.707L252.559 244.38V307.52H256.484C256.484 286.468 256.484 265.416 256.484 243.726Z" fill="#130802"/>
<path d="M229.331 260.41H229.658V307.52H233.911C233.91 306.949 233.908 306.378 233.907 305.79C233.893 300.417 233.884 295.045 233.877 289.672C233.874 286.91 233.869 284.148 233.862 281.386C233.855 278.978 233.851 276.571 233.85 274.164C233.849 272.889 233.847 271.614 233.842 270.339C233.837 269.139 233.836 267.94 233.837 266.74C233.837 266.089 233.833 265.439 233.83 264.788C233.831 264.401 233.831 264.014 233.832 263.615C233.832 263.278 233.831 262.942 233.831 262.595C233.911 261.719 233.911 261.719 234.565 260.41C234.457 276.172 234.349 291.934 234.238 308.174C232.511 308.174 230.784 308.174 229.004 308.174C228.996 302.043 228.99 295.912 228.987 289.781C228.985 286.934 228.983 284.088 228.979 281.241C228.976 278.761 228.974 276.28 228.973 273.8C228.973 272.486 228.972 271.172 228.969 269.858C228.967 268.622 228.966 267.387 228.967 266.151C228.967 265.696 228.966 265.242 228.965 264.788C228.963 264.169 228.964 263.55 228.965 262.932C228.964 262.585 228.964 262.238 228.964 261.881C229.004 261.064 229.004 261.064 229.331 260.41Z" fill="#1C110D"/>
<path d="M274.15 259.429C275.657 261.689 275.177 265.115 275.169 267.743C275.169 268.174 275.169 268.605 275.169 269.05C275.169 270.223 275.167 271.397 275.165 272.571C275.163 273.801 275.163 275.031 275.162 276.261C275.161 278.586 275.159 280.912 275.155 283.237C275.152 285.886 275.15 288.535 275.148 291.183C275.145 296.629 275.139 302.074 275.132 307.52H279.385C279.385 292.729 279.385 277.939 279.385 262.7H279.712V308.174C277.985 308.174 276.257 308.174 274.478 308.174C274.37 292.088 274.262 276.002 274.15 259.429Z" fill="#150902"/>
<path d="M298.032 95.2002L299.014 95.8545C299.134 96.8444 299.134 96.8444 299.132 98.1439C299.133 98.3823 299.133 98.6206 299.134 98.8662C299.136 99.669 299.13 100.472 299.125 101.274C299.125 101.848 299.125 102.422 299.126 102.996C299.126 104.557 299.12 106.118 299.113 107.68C299.107 109.31 299.106 110.94 299.105 112.571C299.102 115.66 299.094 118.748 299.084 121.837C299.073 125.353 299.068 128.869 299.063 132.385C299.053 139.619 299.035 146.853 299.014 154.087H305.557V155.068C303.074 155.068 300.591 155.068 298.032 155.068C298.032 135.312 298.032 115.555 298.032 95.2002Z" fill="#E2E0DC"/>
<path d="M237.51 263.682C238.164 264.336 238.164 264.336 238.245 265.009C238.244 265.428 238.244 265.428 238.243 265.855C238.244 266.176 238.245 266.496 238.245 266.826C238.243 267.178 238.241 267.531 238.238 267.894C238.238 268.264 238.239 268.634 238.239 269.016C238.238 270.244 238.233 271.473 238.228 272.701C238.227 273.551 238.226 274.401 238.225 275.251C238.223 277.262 238.218 279.274 238.211 281.285C238.204 283.575 238.2 285.864 238.197 288.154C238.19 292.864 238.178 297.575 238.164 302.285H248.306C248.306 294.836 248.306 287.387 248.306 279.712C247.766 279.496 247.226 279.28 246.67 279.058C245.998 278.296 245.693 277.771 245.68 276.745C245.75 276.031 245.75 276.031 246.016 274.805L246.67 274.478C246.647 274.809 246.647 274.809 246.624 275.147C246.504 276.987 246.504 276.987 247.283 278.587C247.954 279.063 247.954 279.063 248.633 279.385V302.939C244.962 302.939 241.292 302.939 237.51 302.939C237.51 289.984 237.51 277.029 237.51 263.682Z" fill="#150802"/>
<path d="M289.526 119.409L290.181 119.736C290.486 120.651 290.548 121.195 290.547 122.14C290.548 122.43 290.548 122.721 290.549 123.02C290.547 123.496 290.547 123.496 290.545 123.982C290.545 124.318 290.545 124.653 290.545 124.998C290.545 126.108 290.542 127.218 290.54 128.328C290.539 129.097 290.539 129.865 290.538 130.634C290.537 132.659 290.534 134.684 290.53 136.709C290.526 139.138 290.525 141.566 290.523 143.995C290.52 147.686 290.513 151.377 290.508 155.068C284.354 155.068 278.2 155.068 271.86 155.068L272.515 153.76V154.414H289.854C289.692 137.087 289.692 137.087 289.526 119.409Z" fill="#DEDAD7"/>
<path d="M261.064 278.73L261.719 279.712C261.503 279.712 261.287 279.712 261.064 279.712V301.958H270.879V302.939C267.316 302.939 263.754 302.939 260.083 302.939C260.083 295.058 260.083 287.177 260.083 279.058C260.407 278.95 260.731 278.842 261.064 278.73Z" fill="#372B22"/>
<path d="M103.128 169.38C103.36 169.383 103.591 169.385 103.83 169.388C104.187 169.388 104.187 169.388 104.551 169.388C105.054 169.389 105.557 169.392 106.06 169.396C106.832 169.402 107.605 169.402 108.378 169.402C108.865 169.404 109.353 169.406 109.841 169.408C110.074 169.408 110.306 169.409 110.546 169.409C112.174 169.425 112.174 169.425 112.539 169.79C112.563 170.619 112.569 171.436 112.56 172.264C112.553 173.067 112.546 173.87 112.539 174.697H118.101C118.087 173.955 118.074 173.213 118.06 172.448C118.037 171.183 118.037 171.183 118.101 170.117C118.983 169.235 119.667 169.385 120.866 169.38C121.155 169.383 121.444 169.385 121.741 169.388C122.037 169.388 122.333 169.388 122.638 169.388C123.265 169.389 123.891 169.392 124.517 169.396C125.479 169.402 126.441 169.402 127.403 169.402C128.01 169.404 128.618 169.406 129.225 169.408C129.659 169.408 129.659 169.408 130.103 169.409C132.13 169.425 132.13 169.425 132.495 169.79C132.519 170.451 132.523 171.112 132.516 171.773C132.513 172.135 132.51 172.496 132.507 172.869C132.503 173.148 132.499 173.428 132.495 173.716C132.387 173.716 132.279 173.716 132.168 173.716C132.168 172.528 132.168 171.341 132.168 170.117C127.742 170.117 123.315 170.117 118.755 170.117V175.024C116.488 175.024 114.221 175.024 111.885 175.024C111.885 173.405 111.885 171.786 111.885 170.117C108.43 170.117 104.975 170.117 101.416 170.117V175.024C99.1489 175.024 96.8817 175.024 94.5459 175.024C94.6539 174.809 94.7618 174.593 94.873 174.37C96.8163 174.478 98.7596 174.586 100.762 174.697C100.748 173.955 100.735 173.213 100.721 172.448C100.698 171.183 100.698 171.183 100.762 170.117C101.569 169.309 102.025 169.386 103.128 169.38Z" fill="#FDFDFC"/>
<path d="M207.085 158.34L281.021 158.667V158.994C256.946 158.994 232.871 158.994 208.066 158.994C208.174 159.642 208.282 160.29 208.394 160.957C208.286 161.173 208.178 161.389 208.066 161.611C207.743 161.611 207.419 161.611 207.085 161.611C207.085 160.532 207.085 159.452 207.085 158.34Z" fill="#F1EEEC"/>
<path d="M249.941 201.196H250.269V215.264H258.774C258.774 210.945 258.774 206.627 258.774 202.178H259.102C259.418 203.762 259.472 205.299 259.461 206.909C259.46 207.167 259.46 207.426 259.459 207.692C259.457 208.512 259.453 209.332 259.449 210.152C259.448 210.71 259.446 211.269 259.445 211.827C259.441 213.191 259.435 214.554 259.429 215.918C256.19 215.918 252.951 215.918 249.614 215.918C249.607 213.874 249.6 211.83 249.596 209.786C249.595 209.09 249.592 208.394 249.59 207.698C249.586 206.7 249.584 205.702 249.582 204.704C249.581 204.391 249.579 204.078 249.577 203.755C249.577 203.467 249.577 203.179 249.577 202.882C249.576 202.627 249.576 202.372 249.575 202.109C249.614 201.523 249.614 201.523 249.941 201.196Z" fill="#FDFCFB"/>
<path d="M290.181 180.586H294.761V184.839C293.249 184.839 291.738 184.839 290.181 184.839C290.181 183.435 290.181 182.032 290.181 180.586Z" fill="#E8E6E3"/>
<path d="M260.083 248.306C260.407 248.414 260.731 248.522 261.064 248.633C260.956 256.73 260.849 264.827 260.737 273.169L262.046 273.496C262.734 274.111 263.004 274.549 263.087 275.473C263.089 276.123 263.06 276.773 263.027 277.422C262.919 277.422 262.811 277.422 262.7 277.422C262.661 277.217 262.621 277.012 262.58 276.801C262.525 276.533 262.47 276.266 262.414 275.991C262.361 275.725 262.308 275.459 262.253 275.186C262.09 274.416 262.09 274.416 261.392 273.823C260.96 273.715 260.528 273.607 260.083 273.496C260.083 265.183 260.083 256.87 260.083 248.306Z" fill="#37302C"/>
<path d="M273.496 180.586H277.749V184.839C276.346 184.839 274.942 184.839 273.496 184.839C273.496 183.435 273.496 182.032 273.496 180.586Z" fill="#F7F7F5"/>
<path d="M264.99 180.586H269.243V184.839C267.84 184.839 266.436 184.839 264.99 184.839C264.99 183.435 264.99 182.032 264.99 180.586Z" fill="#F8F7F6"/>
<path d="M256.812 180.586H261.064V184.839C259.661 184.839 258.258 184.839 256.812 184.839C256.812 183.435 256.812 182.032 256.812 180.586Z" fill="#F8F7F6"/>
<path d="M248.306 180.586H252.559V184.839C251.155 184.839 249.752 184.839 248.306 184.839C248.306 183.435 248.306 182.032 248.306 180.586Z" fill="#EFEEEB"/>
<path d="M239.8 180.586H244.053V184.839C242.649 184.839 241.246 184.839 239.8 184.839C239.8 183.435 239.8 182.032 239.8 180.586Z" fill="#F8F7F6"/>
<path d="M231.294 180.586H235.547V184.839C234.143 184.839 232.74 184.839 231.294 184.839C231.294 183.435 231.294 182.032 231.294 180.586Z" fill="#F4F3F1"/>
<path d="M223.115 180.586H227.368V184.839C225.965 184.839 224.561 184.839 223.115 184.839C223.115 183.435 223.115 182.032 223.115 180.586Z" fill="#F7F6F5"/>
<path d="M214.609 180.586H218.862V184.839C217.459 184.839 216.055 184.839 214.609 184.839C214.609 183.435 214.609 182.032 214.609 180.586Z" fill="#F6F5F3"/>
<path d="M281.675 180.586H285.928V184.839C284.524 184.839 283.121 184.839 281.675 184.839C281.675 183.435 281.675 182.032 281.675 180.586Z" fill="#F8F7F6"/>
<path d="M267.567 167.5C268.262 167.827 268.262 167.827 268.977 168.665C270.123 169.658 270.702 169.607 272.159 169.52C272.385 169.501 272.61 169.482 272.842 169.463H273.823C273.715 169.679 273.607 169.895 273.496 170.117C273.172 170.225 272.848 170.333 272.515 170.444C272.299 170.66 272.083 170.876 271.86 171.099C271.095 171.143 271.095 171.143 270.15 171.091C269.813 171.074 269.476 171.057 269.128 171.04C268.598 171.008 268.598 171.008 268.057 170.976C267.701 170.957 267.345 170.939 266.979 170.92C266.098 170.873 265.217 170.824 264.336 170.771C264.336 170.664 264.336 170.556 264.336 170.444C263.472 170.336 262.609 170.228 261.719 170.117C261.719 170.009 261.719 169.901 261.719 169.79H265.317C265.533 169.358 265.749 168.926 265.972 168.481C266.716 167.5 266.716 167.5 267.567 167.5Z" fill="#F8F7F5"/>
<path d="M208.721 86.3672H213.628V92.583C213.412 92.583 213.196 92.583 212.974 92.583C212.974 90.7477 212.974 88.9124 212.974 87.0215C211.678 87.0215 210.383 87.0215 209.048 87.0215V94.2188C208.94 94.2188 208.832 94.2188 208.721 94.2188C208.721 91.6277 208.721 89.0367 208.721 86.3672Z" fill="#1E140E"/>
<path d="M254.194 16.6846C254.518 16.7925 254.842 16.9005 255.176 17.0117C255.509 18.0125 255.541 18.6881 255.535 19.735C255.533 20.2395 255.533 20.2395 255.532 20.7541C255.529 21.1048 255.526 21.4554 255.523 21.8167C255.522 22.1712 255.52 22.5256 255.519 22.8908C255.515 23.7664 255.51 24.642 255.503 25.5176C255.395 25.5176 255.287 25.5176 255.176 25.5176C255.146 24.9438 255.146 24.9438 255.116 24.3585C255.088 23.852 255.06 23.3455 255.033 22.8391C255.02 22.5875 255.007 22.3359 254.994 22.0768C254.922 20.796 254.82 19.5729 254.521 18.3203C254.236 20.6171 254.099 22.8988 254.01 25.2109C253.996 25.5565 253.982 25.9021 253.967 26.2581C253.933 27.1017 253.9 27.9454 253.867 28.7891C253.759 28.7891 253.651 28.7891 253.54 28.7891C253.524 27.2755 253.512 25.762 253.504 24.2484C253.501 23.7337 253.496 23.2191 253.491 22.7044C253.483 21.9638 253.479 21.2232 253.476 20.4826C253.473 20.2532 253.469 20.0238 253.466 19.7874C253.466 18.5867 253.533 17.705 254.194 16.6846Z" fill="#170F0B"/>
<path d="M213.628 162.92C214.662 163.368 214.934 163.571 215.591 164.556C215.518 165.531 215.395 166.039 214.753 166.784C214.597 166.913 214.442 167.041 214.282 167.173C213.248 166.725 212.976 166.522 212.319 165.537C212.392 164.562 212.515 164.054 213.158 163.308L213.628 162.92Z" fill="#F5F3F2"/>
<path d="M264.99 180.586H267.28V180.913C266.74 180.913 266.201 180.913 265.645 180.913V183.857H268.262C268.262 182.886 268.262 181.914 268.262 180.913C268.586 180.805 268.909 180.697 269.243 180.586V184.839C267.84 184.839 266.436 184.839 264.99 184.839C264.99 183.435 264.99 182.032 264.99 180.586Z" fill="#EDEAE8"/>
<path d="M207.085 168.481C207.409 168.589 207.733 168.697 208.066 168.809C207.958 169.456 207.85 170.104 207.739 170.771H228.35V171.099C221.332 171.207 214.315 171.315 207.085 171.426C207.085 170.454 207.085 169.483 207.085 168.481Z" fill="#EFEDEA"/>
<path d="M254.194 163.247C255.084 163.37 255.451 163.523 256.096 164.167C256.484 164.883 256.484 164.883 256.444 165.558C256.11 166.296 255.841 166.705 255.176 167.173C254.501 167.132 254.501 167.132 253.867 166.846C253.213 165.864 253.213 165.864 253.295 165.046C253.54 164.229 253.54 164.229 254.194 163.247Z" fill="#F5F3F1"/>
<path d="M229.658 162.92C231.173 164.007 231.173 164.007 231.642 164.862C231.61 165.913 231 166.423 230.312 167.173C229.06 166.698 228.637 166.051 228.022 164.883L229.658 162.92Z" fill="#EEECEA"/>
<path d="M224.751 84.0771H225.078V89.6387C222.595 89.6387 220.112 89.6387 217.554 89.6387C217.554 88.0193 217.554 86.3999 217.554 84.7314H217.881C218.258 86.2381 218.208 87.329 218.208 88.9844H224.751C224.751 87.365 224.751 85.7456 224.751 84.0771Z" fill="#110802"/>
<path d="M245.361 163.247C246.395 163.695 246.668 163.898 247.324 164.883C247.218 165.97 247.125 166.39 246.343 167.173C245.538 167.095 245.096 166.89 244.441 166.416C244.053 165.864 244.053 165.864 244.094 165.23C244.418 164.466 244.836 163.887 245.361 163.247Z" fill="#F6F5F3"/>
<path d="M286.582 163.247C287.616 163.695 287.888 163.898 288.545 164.883C288.439 165.97 288.346 166.39 287.563 167.173C286.66 167.115 286.306 166.893 285.641 166.273C285.273 165.537 285.273 165.537 285.498 164.678C285.928 163.901 285.928 163.901 286.582 163.247Z" fill="#F9F8F6"/>
<path d="M270.879 163.247H271.86C272.481 164.045 272.871 164.548 272.78 165.578C272.515 166.191 272.515 166.191 271.86 167.173C270.982 167.052 270.595 166.886 269.938 166.273C269.57 165.537 269.57 165.537 269.795 164.678C270.225 163.901 270.225 163.901 270.879 163.247Z" fill="#F6F5F3"/>
<path d="M221.95 163.472C222.788 163.574 222.788 163.574 223.402 163.983C223.77 164.556 223.77 164.556 223.708 165.23C223.442 165.864 223.442 165.864 222.788 166.519C221.837 166.64 221.345 166.647 220.539 166.11C220.171 165.537 220.171 165.537 220.232 164.862C220.628 163.919 220.926 163.603 221.95 163.472Z" fill="#F2F0EE"/>
<path d="M279.385 163.82C280.366 163.901 280.366 163.901 281.021 164.556C280.839 166.046 280.839 166.046 280.366 166.519C279.242 166.58 279.242 166.58 278.076 166.519C277.86 166.303 277.644 166.087 277.422 165.864C277.591 164.515 277.975 163.937 279.385 163.82Z" fill="#F4F2F0"/>
<path d="M237.857 163.779C238.174 163.819 238.492 163.86 238.818 163.901C239.473 164.883 239.473 164.883 239.37 165.578C239.146 166.191 239.146 166.191 238.818 166.519C238.055 166.532 237.292 166.532 236.528 166.519C236.312 165.979 236.096 165.439 235.874 164.883C236.505 164.042 236.788 163.91 237.857 163.779Z" fill="#F0EFEC"/>
<path d="M295.047 163.82C296.069 163.901 296.069 163.901 296.683 164.392L297.051 164.883C296.835 165.423 296.619 165.962 296.396 166.519C295.292 166.559 295.292 166.559 294.106 166.519C293.891 166.303 293.675 166.087 293.452 165.864C293.687 163.938 293.687 163.938 295.047 163.82Z" fill="#F7F5F4"/>
<path d="M257.793 84.0771H266.953V84.4043C264.146 84.5123 261.339 84.6202 258.447 84.7314V89.6387C258.231 89.7466 258.015 89.8546 257.793 89.9658C257.793 88.0226 257.793 86.0793 257.793 84.0771Z" fill="#EFEDEA"/>
<path d="M256.812 180.586H259.756V180.913C259 180.913 258.244 180.913 257.466 180.913V184.185L258.12 183.857C258.774 183.844 259.429 183.843 260.083 183.857C260.083 182.994 260.083 182.13 260.083 181.24H260.41C260.43 181.445 260.45 181.65 260.47 181.861C260.498 182.129 260.525 182.396 260.553 182.672C260.593 183.07 260.593 183.07 260.634 183.477C260.702 184.199 260.702 184.199 261.064 184.839C259.661 184.839 258.258 184.839 256.812 184.839C256.812 183.435 256.812 182.032 256.812 180.586Z" fill="#F0EFEC"/>
<path d="M263.661 163.84C264.663 163.901 264.663 163.901 265.317 164.556C265.197 165.516 265.035 165.82 264.336 166.519C263.539 166.621 263.539 166.621 262.7 166.519C262.107 166.028 262.107 166.028 261.719 165.537C262.504 163.914 262.504 163.914 263.661 163.84Z" fill="#F0EEEC"/>
<path d="M223.442 180.586H227.368V184.839C225.965 184.839 224.561 184.839 223.115 184.839C223.115 184.731 223.115 184.623 223.115 184.512L226.387 184.185C226.387 183.213 226.387 182.241 226.387 181.24C225.415 181.132 224.443 181.024 223.442 180.913C223.442 180.805 223.442 180.697 223.442 180.586Z" fill="#D6D2CD"/>
<path d="M159.648 170.117H160.63V175.024C158.471 174.916 156.312 174.808 154.087 174.697C154.087 174.589 154.087 174.481 154.087 174.37H159.648C159.648 172.967 159.648 171.563 159.648 170.117Z" fill="#E3E0DD"/>
<path d="M277.422 180.913H277.749V184.839C276.346 184.839 274.942 184.839 273.496 184.839C273.604 184.515 273.712 184.191 273.823 183.857L277.095 184.185C277.088 183.706 277.081 183.226 277.074 182.733C277.067 182.235 277.071 181.737 277.095 181.24L277.422 180.913Z" fill="#E7E4E0"/>
<path d="M295.742 85.3857C296.143 86.1881 296.081 86.643 296.03 87.5352C296.014 87.8283 295.998 88.1214 295.982 88.4234C295.963 88.73 295.945 89.0365 295.926 89.3524C295.909 89.6615 295.892 89.9707 295.874 90.2891C295.832 91.0539 295.788 91.8185 295.742 92.583C295.418 92.583 295.094 92.583 294.761 92.583L295.088 85.7129L295.742 85.3857Z" fill="#EEECEA"/>
<path d="M234.893 259.102L235.547 259.756C235.541 260.711 235.501 261.628 235.424 262.578C235.406 262.84 235.387 263.102 235.368 263.372C235.322 264.021 235.271 264.669 235.22 265.317C234.896 265.101 234.572 264.886 234.238 264.663C234.067 262.713 234.404 260.986 234.893 259.102Z" fill="#EBE9E7"/>
<path d="M283.311 180.586H285.928V184.839C284.524 184.839 283.121 184.839 281.675 184.839C281.675 184.731 281.675 184.623 281.675 184.512L284.946 184.185C285.054 183.105 285.162 182.025 285.273 180.913C284.626 180.913 283.978 180.913 283.311 180.913C283.311 180.805 283.311 180.697 283.311 180.586Z" fill="#E6E2DE"/>
<path d="M286.582 161.938H287.891C288.357 163.244 288.676 164.492 288.872 165.864C288.656 165.54 288.44 165.217 288.218 164.883C287.893 164.445 287.566 164.009 287.236 163.574C286.257 163.933 285.978 164.123 285.519 165.087C285.438 165.344 285.357 165.6 285.273 165.864C285.049 165.312 285.049 165.312 284.946 164.556C285.376 163.717 285.376 163.717 285.928 162.92C286.144 162.596 286.36 162.272 286.582 161.938Z" fill="#20150D"/>
<path d="M215.918 81.7871H216.899C216.933 82.0368 216.967 82.2864 217.002 82.5436C217.245 83.4951 217.488 83.774 218.208 84.4043C218.734 85.4559 218.554 86.5099 218.535 87.6758C217.996 86.7052 217.736 85.8253 217.554 84.7314C217.014 84.6235 216.474 84.5155 215.918 84.4043C215.918 83.5406 215.918 82.677 215.918 81.7871Z" fill="#392C21"/>
<path d="M239.146 243.726C239.469 243.942 239.793 244.157 240.127 244.38C238.606 245.971 237.189 246.998 235.22 247.979C236.464 246.487 237.755 245.083 239.146 243.726Z" fill="#1F140C"/>
<path d="M243.071 180.586H244.053V184.839C242.649 184.839 241.246 184.839 239.8 184.839C239.8 184.731 239.8 184.623 239.8 184.512L243.071 184.185C243.071 182.997 243.071 181.809 243.071 180.586Z" fill="#CFCAC4"/>
<path d="M283.311 84.0771H283.965C284.073 86.0204 284.181 87.9637 284.292 89.9658C283.968 89.9658 283.644 89.9658 283.311 89.9658C283.247 89.0458 283.186 88.1258 283.127 87.2055C283.108 86.943 283.09 86.6805 283.071 86.41C283.029 85.7421 283.005 85.0732 282.983 84.4043L283.311 84.0771Z" fill="#DCD8D5"/>
<path d="M212.974 163.574C213.301 164.557 213.469 165.497 213.628 166.519L214.241 165.905L215.591 164.556C215.428 165.762 215.231 166.389 214.282 167.173C213.248 166.725 212.976 166.522 212.319 165.537C212.496 164.052 212.496 164.052 212.974 163.574Z" fill="#EBE9E6"/>
<path d="M287.891 164.883C288.095 165.66 288.095 165.66 288.218 166.519C288.002 166.734 287.786 166.95 287.563 167.173C286.909 167.112 286.909 167.112 286.255 166.846C286.039 166.522 285.823 166.198 285.601 165.864C286.444 165.021 286.688 164.883 287.891 164.883Z" fill="#F0EEED"/>
<path d="M277.422 113.193L278.076 113.521C277.82 113.601 277.563 113.682 277.299 113.766C276.335 114.225 276.145 114.504 275.786 115.483C275.57 115.267 275.354 115.052 275.132 114.829C276.686 113.561 276.686 113.561 277.422 113.193ZM274.478 115.156L275.132 115.483C274.808 115.645 274.808 115.645 274.478 115.811C274.478 115.595 274.478 115.379 274.478 115.156ZM274.15 115.811L274.805 116.465C273.995 116.951 273.995 116.951 273.169 117.446C273.782 116.179 273.782 116.179 274.15 115.811Z" fill="#ECEBE9"/>
<path d="M251.904 42.5293H252.231V49.0723C251.8 48.9643 251.368 48.8563 250.923 48.7451L251.577 47.7637C251.676 46.8626 251.744 45.9884 251.782 45.0851C251.794 44.8399 251.807 44.5947 251.82 44.342C251.851 43.7379 251.878 43.1336 251.904 42.5293Z" fill="#FDFEFD"/>
<path d="M253.213 37.2949H253.54V42.2021C253.216 42.3641 253.216 42.3641 252.886 42.5293C252.36 41.4777 252.54 40.4237 252.559 39.2578H252.886C252.994 38.6101 253.102 37.9623 253.213 37.2949Z" fill="#3C2B1E"/>
<path d="M237.51 164.556H239.146C239.35 165.169 239.35 165.169 239.473 165.864C238.818 166.519 238.818 166.519 237.796 166.559C237.33 166.539 237.33 166.539 236.855 166.519C236.855 166.411 236.855 166.303 236.855 166.191H238.491C238.275 166.083 238.059 165.975 237.837 165.864C237.632 165.19 237.632 165.19 237.51 164.556Z" fill="#F8F7F6"/>
<path d="M255.503 164.229C255.827 164.444 256.151 164.66 256.484 164.883C256.302 165.941 256.035 166.512 255.176 167.173C254.852 167.173 254.528 167.173 254.194 167.173C254.194 166.957 254.194 166.741 254.194 166.519L255.176 166.191C255.169 165.928 255.162 165.665 255.155 165.394C255.176 164.556 255.176 164.556 255.503 164.229Z" fill="#EAE8E6"/>
<path d="M282.656 167.5C283.435 167.558 283.867 167.728 284.416 168.286C284.822 168.778 285.213 169.283 285.601 169.79C285.277 169.79 284.953 169.79 284.619 169.79C284.403 169.466 284.187 169.142 283.965 168.809C283.13 168.415 283.13 168.415 282.329 168.154L282.656 167.5Z" fill="#F0EEEC"/>
<path d="M255.83 39.9121C256.605 40.84 256.806 41.1526 256.914 42.4066C256.812 43.5107 256.812 43.5107 256.157 44.165C255.725 43.2999 255.798 42.6348 255.81 41.6705C255.813 41.3424 255.816 41.0143 255.819 40.6763C255.822 40.4241 255.826 40.1719 255.83 39.9121Z" fill="#3C2C1D"/>
<path d="M273.169 257.139C273.951 258.39 274.006 259.624 274.15 261.064C273.827 261.226 273.827 261.226 273.496 261.392C273.135 259.949 273.144 258.616 273.169 257.139Z" fill="#ECEAE8"/>
<path d="M210.029 167.173C211.125 167.538 211.27 167.744 211.89 168.665C212.033 168.875 212.176 169.085 212.323 169.301C212.43 169.462 212.537 169.624 212.646 169.79C211.559 169.408 210.738 169.087 210.029 168.154C210.029 167.83 210.029 167.507 210.029 167.173Z" fill="#F2EFEE"/>
<path d="M241.108 167.5C242.008 167.582 242.008 167.582 242.744 167.827C242.093 168.478 241.63 168.801 240.781 169.136C240.457 169.028 240.133 168.92 239.8 168.809C240.352 168.134 240.352 168.134 241.108 167.5Z" fill="#EFEEEB"/>
<path d="M248.96 167.5C250.064 167.439 250.064 167.439 251.25 167.5C251.466 167.824 251.682 168.148 251.904 168.481C251.041 168.481 250.177 168.481 249.287 168.481C249.179 168.158 249.071 167.834 248.96 167.5Z" fill="#E9E7E5"/>
<path d="M255.83 161.284C256.484 162.266 256.484 162.266 256.484 163.247C256.268 163.247 256.053 163.247 255.83 163.247C255.722 163.463 255.614 163.679 255.503 163.901C255.287 163.577 255.071 163.254 254.849 162.92C255.173 162.38 255.496 161.84 255.83 161.284Z" fill="#291A0F"/>
<path d="M233.584 244.38L234.238 245.361C233.267 246.171 233.267 246.171 232.275 246.997C232.275 245.718 232.768 245.323 233.584 244.38Z" fill="#F0EEEC"/>
<path d="M47.7637 207.085V207.739C47.008 207.739 46.2522 207.739 45.4736 207.739C45.3657 207.523 45.2577 207.307 45.1465 207.085C46.1451 206.764 46.765 206.764 47.7637 207.085Z" fill="#ECEBE8"/>
<path d="M261.719 238.818C262.528 238.98 262.528 238.98 263.354 239.146V239.8H264.009V240.454C263.253 240.238 262.497 240.022 261.719 239.8C261.719 239.476 261.719 239.152 261.719 238.818Z" fill="#F0EEEC"/>
</svg>
