<svg width="335" height="335" viewBox="0 0 335 335" fill="none" xmlns="http://www.w3.org/2000/svg">
<path d="M247.979 18.6475C248.754 19.4226 248.722 19.5927 248.757 20.6487C248.768 20.9414 248.779 21.2342 248.79 21.5358C248.799 21.8647 248.808 22.1935 248.817 22.5323C248.828 22.8817 248.84 23.231 248.852 23.5909C248.885 24.6387 248.914 25.6865 248.941 26.7345C248.962 27.5436 248.983 28.3526 249.005 29.1617C249.054 31.0208 249.099 32.8799 249.144 34.7391C249.155 35.1877 249.155 35.1877 249.166 35.6455C249.273 40.1217 249.306 44.5948 249.287 49.0723C249.486 49.0956 249.686 49.119 249.891 49.1431C260.309 50.3769 270.035 54.4439 276.768 62.8125C281.728 69.1072 284.563 75.3472 284.946 83.4228C285.293 83.4153 285.64 83.4077 285.997 83.3998C286.451 83.3937 286.905 83.3877 287.359 83.3819C287.588 83.3765 287.816 83.371 288.052 83.3653C288.653 83.3596 289.254 83.3891 289.854 83.4228C290.508 84.0771 290.508 84.0771 290.582 85.1424C290.582 85.5959 290.578 86.0493 290.572 86.5026C290.57 86.8607 290.57 86.8607 290.569 87.226C290.565 87.9894 290.557 88.7526 290.549 89.516C290.545 90.0331 290.542 90.5502 290.54 91.0674C290.533 92.336 290.521 93.6045 290.508 94.873C290.076 94.981 289.644 95.089 289.199 95.2002C289.214 95.537 289.214 95.537 289.229 95.8806C289.637 105.792 289.565 115.711 289.55 125.629C289.546 128.061 289.544 130.492 289.543 132.923C289.539 137.906 289.534 142.889 289.526 147.871C289.721 147.868 289.916 147.864 290.117 147.861C290.997 147.847 291.877 147.839 292.757 147.83C293.064 147.825 293.37 147.819 293.686 147.814C293.979 147.811 294.272 147.809 294.574 147.807C294.845 147.804 295.116 147.8 295.394 147.797C296.069 147.871 296.069 147.871 296.724 148.525C296.802 149.237 296.802 149.237 296.798 150.131C296.798 150.465 296.798 150.799 296.798 151.143C296.794 151.505 296.791 151.866 296.788 152.239C296.786 152.793 296.786 152.793 296.785 153.358C296.781 154.542 296.773 155.725 296.765 156.909C296.761 157.709 296.758 158.51 296.756 159.311C296.748 161.277 296.737 163.244 296.724 165.21C297.263 165.318 297.803 165.426 298.359 165.537C298.389 181.977 298.412 198.417 298.426 214.857C298.428 216.797 298.43 218.736 298.431 220.676C298.432 221.255 298.432 221.255 298.432 221.846C298.438 228.103 298.448 234.361 298.46 240.619C298.473 247.037 298.48 253.455 298.483 259.872C298.484 263.835 298.49 267.797 298.501 271.759C298.507 274.474 298.51 277.188 298.508 279.903C298.507 281.47 298.508 283.038 298.515 284.606C298.522 286.04 298.522 287.474 298.518 288.908C298.517 289.428 298.519 289.948 298.523 290.468C298.528 291.173 298.525 291.877 298.52 292.582C298.521 292.974 298.521 293.366 298.522 293.77C298.359 294.761 298.359 294.761 297.802 295.541C296.899 296.176 296.433 296.233 295.336 296.233C294.987 296.236 294.638 296.24 294.278 296.243C293.703 296.238 293.703 296.238 293.116 296.233C292.709 296.235 292.302 296.237 291.882 296.239C290.75 296.242 289.619 296.24 288.487 296.236C287.267 296.232 286.047 296.236 284.827 296.239C282.436 296.243 280.046 296.241 277.655 296.236C274.872 296.23 272.09 296.232 269.307 296.233C264.341 296.235 259.376 296.23 254.411 296.222C249.592 296.214 244.772 296.212 239.953 296.215C234.707 296.219 229.461 296.22 224.215 296.215C223.656 296.214 223.097 296.214 222.538 296.213C222.262 296.213 221.987 296.213 221.704 296.213C219.763 296.211 217.823 296.212 215.882 296.213C213.518 296.215 211.153 296.213 208.789 296.206C207.582 296.203 206.375 296.201 205.168 296.204C203.861 296.207 202.554 296.202 201.246 296.196C200.864 296.198 200.481 296.2 200.087 296.202C199.737 296.199 199.387 296.197 199.026 296.194C198.725 296.193 198.423 296.193 198.112 296.193C196.995 296.029 196.111 295.564 195.308 294.761C195.276 294.316 195.266 293.87 195.266 293.424C195.265 293.135 195.264 292.845 195.263 292.546C195.263 292.224 195.264 291.902 195.265 291.571C195.264 291.231 195.263 290.892 195.263 290.542C195.261 289.396 195.261 288.25 195.261 287.103C195.26 286.285 195.259 285.467 195.258 284.648C195.255 282.881 195.253 281.113 195.252 279.346C195.251 276.55 195.245 273.753 195.239 270.957C195.237 270 195.235 269.043 195.233 268.087C195.232 267.848 195.232 267.609 195.231 267.362C195.225 264.637 195.22 261.913 195.215 259.188C195.215 258.939 195.214 258.69 195.214 258.433C195.207 254.404 195.203 250.374 195.201 246.345C195.198 242.206 195.19 238.068 195.178 233.929C195.171 231.378 195.168 228.827 195.17 226.276C195.171 224.316 195.165 222.357 195.157 220.397C195.155 219.596 195.155 218.795 195.157 217.993C195.172 212.486 195.175 207.364 191.082 203.171C187.705 200.081 184.009 199 179.447 199.121C175.787 199.478 172.622 200.856 170.095 203.554C168.206 205.87 167.134 208.202 167.13 211.229C167.128 211.677 167.128 211.677 167.127 212.135C167.127 212.46 167.127 212.786 167.128 213.121C167.127 213.469 167.126 213.817 167.125 214.176C167.122 215.344 167.122 216.512 167.121 217.68C167.12 218.517 167.118 219.354 167.116 220.19C167.113 221.993 167.11 223.795 167.108 225.598C167.104 228.445 167.098 231.293 167.09 234.141C167.088 235.115 167.085 236.09 167.083 237.064C167.082 237.429 167.082 237.429 167.081 237.802C167.074 240.572 167.068 243.342 167.062 246.113C167.062 246.366 167.061 246.619 167.061 246.88C167.052 250.987 167.046 255.095 167.041 259.203C167.035 263.419 167.025 267.635 167.013 271.851C167.005 274.453 167.001 277.054 167 279.656C166.999 281.647 166.993 283.638 166.986 285.629C166.983 286.448 166.982 287.266 166.984 288.084C166.985 289.198 166.98 290.311 166.974 291.425C166.976 291.752 166.978 292.079 166.979 292.415C166.977 292.713 166.974 293.01 166.971 293.316C166.97 293.573 166.97 293.83 166.969 294.095C166.812 294.942 166.55 295.232 165.864 295.742C164.813 295.864 164.813 295.864 163.524 295.861C163.183 295.861 163.183 295.861 162.834 295.862C162.352 295.861 161.871 295.858 161.389 295.852C160.654 295.844 159.919 295.845 159.184 295.848C155.096 295.832 155.096 295.832 154.087 295.088C153.515 294.141 153.351 293.437 153.351 292.338C153.349 292.049 153.347 291.761 153.346 291.464C153.347 291.149 153.349 290.833 153.35 290.508C153.349 290.004 153.349 290.004 153.347 289.49C153.345 288.36 153.347 287.23 153.349 286.1C153.348 285.292 153.347 284.483 153.345 283.674C153.343 281.93 153.342 280.186 153.343 278.443C153.344 275.917 153.34 273.391 153.335 270.865C153.326 266.76 153.32 262.656 153.315 258.552C153.315 258.306 153.315 258.06 153.315 257.807C153.311 254.326 153.309 250.845 153.308 247.364C153.308 246.997 153.308 246.997 153.308 246.622C153.308 246.378 153.308 246.133 153.308 245.881C153.307 241.796 153.3 237.711 153.29 233.625C153.284 231.108 153.282 228.591 153.285 226.073C153.288 224.14 153.283 222.208 153.276 220.275C153.275 219.484 153.275 218.694 153.278 217.904C153.296 212.429 153.221 207.507 149.343 203.241C149.073 202.998 148.803 202.755 148.525 202.505C148.282 202.282 148.04 202.06 147.789 201.83C144.45 199.478 140.434 198.85 136.421 199.233C132.708 200.068 129.365 201.876 127.178 205.066C126.854 205.616 126.565 206.187 126.279 206.758C126.162 206.979 126.044 207.2 125.923 207.428C125.469 208.898 125.533 210.333 125.538 211.862C125.537 212.216 125.535 212.569 125.534 212.933C125.53 214.12 125.531 215.306 125.531 216.492C125.529 217.341 125.527 218.191 125.524 219.041C125.519 220.871 125.516 222.701 125.515 224.531C125.513 227.179 125.507 229.826 125.5 232.473C125.488 236.77 125.479 241.066 125.472 245.363C125.471 245.62 125.471 245.877 125.47 246.142C125.467 248.229 125.464 250.315 125.46 252.402C125.457 254.227 125.454 256.052 125.451 257.877C125.451 258.134 125.45 258.391 125.45 258.655C125.442 262.937 125.432 267.218 125.421 271.499C125.414 274.141 125.409 276.782 125.407 279.424C125.406 281.446 125.401 283.468 125.395 285.49C125.393 286.321 125.392 287.152 125.392 287.983C125.393 289.114 125.389 290.244 125.385 291.375C125.386 291.707 125.387 292.039 125.388 292.381C125.386 292.683 125.384 292.985 125.382 293.296C125.381 293.687 125.381 293.687 125.38 294.087C125.298 294.761 125.298 294.761 124.644 295.742C123.703 295.838 122.835 295.872 121.895 295.861C121.622 295.861 121.349 295.861 121.068 295.862C120.491 295.861 119.914 295.858 119.337 295.852C118.453 295.844 117.569 295.845 116.685 295.848C116.125 295.846 115.565 295.843 115.004 295.841C114.739 295.841 114.475 295.841 114.202 295.841C112.935 295.825 112.308 295.806 111.23 295.088C111.108 294.476 111.108 294.476 111.107 293.716C111.105 293.426 111.102 293.137 111.1 292.838C111.102 292.518 111.104 292.198 111.107 291.869C111.105 291.53 111.104 291.192 111.102 290.843C111.098 289.701 111.101 288.56 111.105 287.418C111.103 286.602 111.101 285.787 111.099 284.971C111.095 283.21 111.094 281.45 111.096 279.689C111.098 277.139 111.094 274.589 111.088 272.039C111.079 267.897 111.073 263.755 111.071 259.612C111.07 259.364 111.07 259.116 111.07 258.86C111.069 257.101 111.068 255.341 111.067 253.581C111.066 251.576 111.065 249.572 111.063 247.567C111.063 247.197 111.063 247.197 111.063 246.819C111.06 242.697 111.053 238.574 111.044 234.451C111.038 231.91 111.036 229.369 111.038 226.827C111.04 224.876 111.036 222.925 111.031 220.973C111.03 220.175 111.03 219.377 111.032 218.579C111.035 217.486 111.032 216.393 111.027 215.3C111.029 214.987 111.032 214.674 111.034 214.352C110.996 209.767 109.656 205.959 106.528 202.615C103.433 199.861 99.6592 199.073 95.6372 199.153C91.7827 199.437 88.5874 200.766 85.9173 203.589C84.0383 205.84 83.0558 208.293 83.054 211.234C83.053 211.534 83.052 211.834 83.051 212.144C83.0519 212.634 83.0518 212.634 83.0527 213.134C83.052 213.483 83.0513 213.833 83.0506 214.193C83.0487 215.365 83.049 216.538 83.0493 217.71C83.0483 218.55 83.0471 219.39 83.0458 220.23C83.0432 222.039 83.0416 223.849 83.0405 225.658C83.0387 228.517 83.0332 231.376 83.027 234.235C83.0249 235.213 83.0228 236.191 83.0208 237.169C83.0203 237.413 83.0197 237.658 83.0192 237.91C83.0133 240.691 83.008 243.471 83.0031 246.252C83.0027 246.507 83.0022 246.761 83.0017 247.023C82.9946 251.146 82.9911 255.269 82.9886 259.393C82.986 263.625 82.9783 267.858 82.9664 272.09C82.9591 274.702 82.956 277.313 82.958 279.925C82.9592 281.924 82.9536 283.923 82.9454 285.922C82.9431 286.743 82.9431 287.565 82.9454 288.386C82.9483 289.504 82.9433 290.621 82.9361 291.739C82.9389 292.068 82.9416 292.396 82.9445 292.734C82.9392 293.182 82.9392 293.182 82.9337 293.638C82.9333 294.025 82.9333 294.025 82.9328 294.42C82.7685 295.088 82.7685 295.088 82.1851 295.661C81.0449 296.303 79.8622 296.216 78.5872 296.211C78.3089 296.213 78.0307 296.215 77.744 296.216C77.1567 296.218 76.5693 296.218 75.982 296.215C75.0836 296.212 74.1859 296.222 73.2876 296.232C72.7164 296.233 72.1452 296.233 71.5739 296.232C71.3057 296.235 71.0375 296.239 70.7611 296.243C70.51 296.24 70.2589 296.237 70.0002 296.233C69.7804 296.233 69.5605 296.233 69.3341 296.233C68.3272 295.972 68.0116 295.606 67.3926 294.761C67.1939 293.648 67.221 292.543 67.2338 291.415C67.2325 291.071 67.2312 290.727 67.2298 290.372C67.227 289.215 67.2335 288.059 67.2399 286.902C67.2397 286.074 67.239 285.245 67.2376 284.417C67.2359 282.632 67.2381 280.846 67.2436 279.06C67.2514 276.474 67.2504 273.888 67.247 271.301C67.2415 267.099 67.2407 262.897 67.2439 258.694C67.2441 258.443 67.2443 258.191 67.2445 257.932C67.2467 255.129 67.2497 252.326 67.2531 249.523C67.2543 248.509 67.2555 247.494 67.2567 246.479C67.257 246.229 67.2573 245.979 67.2576 245.721C67.2623 241.538 67.2606 237.355 67.2541 233.172C67.2504 230.594 67.2523 228.017 67.2614 225.439C67.268 223.46 67.2661 221.481 67.2613 219.502C67.2607 218.693 67.2629 217.884 67.2681 217.075C67.2997 211.908 67.2983 207.113 63.4668 203.159C60.2654 200.167 56.7587 199.107 52.4357 199.166C48.6334 199.406 45.4574 200.552 42.7401 203.278C39.9466 206.55 39.5359 209.944 39.5376 214.12C39.5364 214.465 39.5353 214.811 39.5341 215.168C39.5306 216.326 39.5294 217.485 39.5282 218.644C39.5261 219.475 39.5239 220.306 39.5215 221.136C39.5167 222.925 39.5129 224.714 39.5098 226.502C39.5052 229.089 39.4983 231.676 39.4907 234.263C39.4783 238.461 39.4668 242.659 39.4564 246.857C39.4558 247.108 39.4552 247.359 39.4545 247.618C39.4458 251.186 39.4379 254.755 39.4305 258.323C39.43 258.574 39.4295 258.826 39.429 259.085C39.4284 259.336 39.4279 259.587 39.4274 259.846C39.4186 264.03 39.4074 268.214 39.3941 272.399C39.386 274.98 39.38 277.562 39.3767 280.143C39.374 282.119 39.3679 284.094 39.3606 286.069C39.3582 286.881 39.3568 287.693 39.3567 288.505C39.3563 289.61 39.352 290.714 39.3467 291.818C39.348 292.306 39.348 292.306 39.3493 292.803C39.347 293.098 39.3448 293.392 39.3425 293.695C39.3419 293.95 39.3414 294.205 39.3408 294.468C39.2578 295.088 39.2578 295.088 38.6035 295.742C37.6019 295.812 36.6306 295.842 35.6285 295.841C35.1856 295.843 35.1856 295.843 34.7338 295.845C34.109 295.847 33.4842 295.847 32.8594 295.845C31.9008 295.844 30.9425 295.852 29.9839 295.86C29.3777 295.861 28.7716 295.861 28.1654 295.861C27.8774 295.864 27.5895 295.867 27.2928 295.87C26.4856 295.864 26.4856 295.864 25.1904 295.742C24.3963 294.551 24.4544 294.001 24.4547 292.582C24.4534 292.246 24.4534 292.246 24.4521 291.904C24.45 291.149 24.4526 290.395 24.4552 289.64C24.4547 289.095 24.4539 288.551 24.4528 288.006C24.4507 286.506 24.4527 285.006 24.4554 283.505C24.4575 281.889 24.4559 280.273 24.4548 278.656C24.4531 275.488 24.455 272.321 24.458 269.153C24.4614 265.467 24.4613 261.782 24.4612 258.096C24.461 251.523 24.464 244.949 24.4688 238.376C24.4734 231.991 24.4757 225.605 24.4755 219.219C24.4755 218.826 24.4755 218.432 24.4754 218.027C24.4754 217.634 24.4754 217.242 24.4754 216.837C24.4752 209.577 24.4771 202.317 24.48 195.057C24.481 192.485 24.4814 189.913 24.4815 187.341C24.4817 184.209 24.4832 181.077 24.4862 177.945C24.4877 176.346 24.4887 174.746 24.4883 173.147C24.4879 171.685 24.4891 170.223 24.4915 168.762C24.4921 168.231 24.4921 167.699 24.4915 167.168C24.4909 166.451 24.4922 165.734 24.494 165.016C24.4942 164.617 24.4945 164.217 24.4947 163.805C24.5361 162.92 24.5361 162.92 24.8633 162.593C25.8268 162.56 26.7826 162.547 27.7463 162.549C28.0355 162.549 28.3247 162.549 28.6227 162.548C29.2354 162.548 29.8481 162.549 30.4609 162.55C31.4022 162.552 32.3435 162.55 33.2848 162.548C33.8786 162.548 34.4724 162.549 35.0662 162.549C35.3497 162.549 35.6332 162.548 35.9254 162.547C37.9116 162.555 37.9116 162.555 38.2763 162.92C38.3273 163.358 38.3583 163.799 38.3799 164.24C38.3936 164.505 38.4073 164.769 38.4214 165.042C38.4343 165.32 38.4471 165.598 38.4604 165.885C38.4745 166.164 38.4886 166.443 38.5032 166.731C38.538 167.424 38.5709 168.116 38.6035 168.809H43.8379C43.7299 168.377 43.622 167.945 43.5107 167.5C43.4724 166.778 43.4535 166.055 43.4494 165.333C43.4447 164.957 43.4401 164.582 43.4353 164.195C43.5107 163.247 43.5107 163.247 44.165 162.593C45.1705 162.531 46.146 162.509 47.1515 162.517C47.4475 162.518 47.7436 162.518 48.0485 162.518C48.6747 162.519 49.3009 162.521 49.9271 162.525C50.8892 162.531 51.8512 162.532 52.8134 162.532C53.4206 162.534 54.0278 162.536 54.635 162.538C55.0695 162.538 55.0695 162.538 55.5128 162.539C57.5401 162.555 57.5401 162.555 57.9053 162.92C57.9335 163.359 57.9403 163.8 57.9372 164.24C57.9356 164.637 57.9356 164.637 57.934 165.042C57.9313 165.32 57.9285 165.598 57.9257 165.885C57.9242 166.164 57.9227 166.443 57.9212 166.731C57.9174 167.424 57.9115 168.116 57.9053 168.809H63.1396C63.1122 168.415 63.0848 168.021 63.0566 167.615C63.0228 167.1 62.9892 166.584 62.9556 166.069C62.9281 165.679 62.9281 165.679 62.9 165.282C62.7754 163.321 62.7754 163.321 63.1396 162.593C65.0439 162.585 66.9481 162.579 68.8523 162.575C69.5007 162.573 70.149 162.571 70.7973 162.568C71.7271 162.564 72.6569 162.562 73.5867 162.561C73.8784 162.559 74.1701 162.557 74.4706 162.556C75.1648 162.556 75.8589 162.572 76.5527 162.593C76.8799 162.92 76.8799 162.92 76.917 163.498C76.9153 163.743 76.9136 163.988 76.9118 164.24C76.9108 164.505 76.9097 164.769 76.9086 165.042C76.9059 165.32 76.9031 165.598 76.9003 165.885C76.8988 166.164 76.8974 166.443 76.8958 166.731C76.892 167.424 76.8861 168.116 76.8799 168.809H82.1142C82.0884 167.13 82.0884 167.13 82.0553 165.452C82.0456 164.207 82.0628 163.651 82.7685 162.593C83.7628 162.502 84.6894 162.471 85.6835 162.485C86.1166 162.486 86.1166 162.486 86.5585 162.487C87.1693 162.489 87.7801 162.494 88.3908 162.501C89.3293 162.511 90.2675 162.514 91.206 162.516C91.7983 162.519 92.3907 162.522 92.983 162.526C93.2655 162.528 93.548 162.529 93.839 162.531C95.8162 162.554 95.8161 162.554 96.1816 162.92C96.2099 163.359 96.2166 163.8 96.2136 164.24C96.2125 164.505 96.2115 164.769 96.2104 165.042C96.2076 165.32 96.2049 165.598 96.2021 165.885C96.2006 166.164 96.1991 166.443 96.1976 166.731C96.1937 167.424 96.1879 168.116 96.1816 168.809H101.416C101.416 166.757 101.416 164.706 101.416 162.593H114.502V168.809H120.063C120.06 168.387 120.056 167.966 120.052 167.532C120.049 166.983 120.046 166.434 120.043 165.885C120.04 165.607 120.038 165.328 120.035 165.042C120.033 164.645 120.033 164.645 120.032 164.24C120.029 163.873 120.029 163.873 120.026 163.498C120.063 162.92 120.063 162.92 120.391 162.593C121.354 162.56 122.31 162.547 123.274 162.549C123.563 162.549 123.852 162.549 124.15 162.548C124.763 162.548 125.375 162.549 125.988 162.55C126.93 162.552 127.871 162.55 128.812 162.548C129.406 162.548 130 162.549 130.594 162.549C130.877 162.549 131.161 162.548 131.453 162.547C133.439 162.555 133.439 162.555 133.804 162.92C133.832 163.359 133.839 163.8 133.836 164.24C133.835 164.505 133.834 164.769 133.832 165.042C133.83 165.32 133.827 165.598 133.824 165.885C133.823 166.164 133.821 166.443 133.82 166.731C133.816 167.424 133.81 168.116 133.804 168.809H139.038C139.034 168.387 139.03 167.966 139.027 167.532C139.024 166.983 139.021 166.434 139.018 165.885C139.015 165.607 139.012 165.328 139.009 165.042C139.008 164.645 139.008 164.645 139.006 164.24C139.004 163.873 139.004 163.873 139.001 163.498C139.038 162.92 139.038 162.92 139.365 162.593C139.815 162.561 140.267 162.551 140.719 162.55C141.006 162.549 141.293 162.548 141.589 162.547C141.901 162.548 142.213 162.549 142.534 162.549C142.853 162.549 143.171 162.549 143.499 162.548C144.173 162.548 144.848 162.549 145.522 162.55C146.558 162.552 147.594 162.55 148.63 162.548C149.284 162.548 149.937 162.549 150.591 162.549C150.903 162.549 151.215 162.548 151.536 162.547C151.824 162.548 152.111 162.549 152.406 162.55C152.66 162.551 152.914 162.551 153.176 162.551C153.76 162.593 153.76 162.593 154.087 162.92C154.115 163.359 154.122 163.8 154.119 164.24C154.118 164.505 154.117 164.769 154.116 165.042C154.113 165.32 154.11 165.598 154.107 165.885C154.106 166.164 154.104 166.443 154.103 166.731C154.099 167.424 154.093 168.116 154.087 168.809H159.321C159.317 168.387 159.314 167.966 159.31 167.532C159.307 166.983 159.304 166.434 159.301 165.885C159.298 165.607 159.295 165.328 159.293 165.042C159.291 164.645 159.291 164.645 159.289 164.24C159.287 163.873 159.287 163.873 159.284 163.498C159.321 162.92 159.321 162.92 159.648 162.593C160.099 162.561 160.55 162.551 161.002 162.55C161.289 162.549 161.576 162.548 161.872 162.547C162.184 162.548 162.496 162.549 162.818 162.549C163.136 162.549 163.454 162.549 163.782 162.548C164.456 162.548 165.131 162.549 165.805 162.55C166.841 162.552 167.877 162.55 168.913 162.548C169.567 162.548 170.22 162.549 170.874 162.549C171.186 162.549 171.498 162.548 171.82 162.547C172.107 162.548 172.394 162.549 172.69 162.55C172.944 162.551 173.198 162.551 173.459 162.551C174.043 162.593 174.043 162.593 174.37 162.92C174.398 163.359 174.405 163.8 174.402 164.24C174.401 164.505 174.4 164.769 174.399 165.042C174.396 165.32 174.393 165.598 174.391 165.885C174.389 166.164 174.388 166.443 174.386 166.731C174.382 167.424 174.376 168.116 174.37 168.809H179.604C179.601 168.387 179.597 167.966 179.593 167.532C179.59 166.983 179.587 166.434 179.584 165.885C179.581 165.607 179.579 165.328 179.576 165.042C179.574 164.645 179.574 164.645 179.573 164.24C179.57 163.873 179.57 163.873 179.567 163.498C179.604 162.92 179.604 162.92 179.932 162.593C180.915 162.556 181.891 162.539 182.875 162.538C183.17 162.537 183.466 162.536 183.771 162.535C184.398 162.533 185.024 162.532 185.651 162.532C186.613 162.531 187.574 162.525 188.535 162.519C189.143 162.518 189.751 162.518 190.358 162.517C190.647 162.515 190.936 162.513 191.234 162.51C193.27 162.518 193.27 162.518 193.999 163.247C194.047 164.199 194.06 165.118 194.04 166.069C194.035 166.462 194.035 166.462 194.031 166.864C194.023 167.512 194.012 168.16 193.999 168.809H199.233C199.228 167.895 199.228 167.895 199.223 166.962C199.212 164.95 199.205 162.938 199.199 160.926C199.196 159.706 199.191 158.485 199.184 157.265C199.177 156.088 199.173 154.911 199.171 153.734C199.17 153.284 199.168 152.835 199.164 152.386C199.159 151.757 199.159 151.128 199.159 150.499C199.158 150.141 199.156 149.782 199.155 149.413C199.233 148.525 199.233 148.525 199.888 147.544H205.122C205.122 130.27 205.122 112.997 205.122 95.2002C204.582 95.0922 204.042 94.9843 203.486 94.873C202.252 93.6391 202.759 89.5564 202.75 87.8802C202.74 87.3976 202.74 87.3976 202.73 86.9052C202.728 86.5969 202.726 86.2886 202.725 85.971C202.722 85.6934 202.719 85.4157 202.715 85.1297C202.832 84.4043 202.832 84.4043 203.247 83.8216C203.935 83.3369 204.291 83.3082 205.126 83.327C205.374 83.3302 205.621 83.3333 205.877 83.3366C206.134 83.3448 206.391 83.353 206.656 83.3615C206.916 83.3659 207.177 83.3704 207.446 83.3749C208.089 83.3865 208.732 83.4041 209.375 83.4228C209.369 83.0391 209.363 82.6553 209.357 82.2599C209.372 75.4165 212.696 69.0237 216.899 63.7939C217.168 63.4453 217.437 63.0964 217.706 62.7473C219.509 60.4764 221.458 58.6661 223.77 56.9238C224.044 56.7024 224.319 56.481 224.601 56.2529C228.365 53.321 232.569 51.7006 237.121 50.4013C237.457 50.3049 237.792 50.2085 238.137 50.1092C240.433 49.4882 242.661 49.1923 245.034 49.0723C244.981 48.9116 244.928 48.751 244.874 48.5855C244.638 47.4208 244.659 46.2665 244.66 45.0832C244.658 44.6793 244.658 44.6793 244.656 44.2671C244.653 43.3777 244.652 42.4884 244.652 41.599C244.651 40.9805 244.65 40.3621 244.649 39.7436C244.647 38.4478 244.646 37.152 244.646 35.8561C244.646 34.195 244.642 32.5339 244.636 30.8727C244.633 29.5957 244.632 28.3188 244.632 27.0418C244.632 26.4293 244.63 25.8168 244.628 25.2043C244.625 24.3483 244.626 23.4925 244.628 22.6365C244.626 22.3832 244.624 22.13 244.622 21.869C244.635 19.6622 244.635 19.6622 245.361 18.6475C246.312 18.1719 246.963 18.4147 247.979 18.6475Z" fill="#2A2824"/>
<path d="M28.1348 166.191H35.0049C35.1668 168.944 35.1668 168.944 35.332 171.753C39.2186 171.861 43.1051 171.969 47.1094 172.08C47.1094 170.137 47.1094 168.194 47.1094 166.191H54.3066C54.4686 168.944 54.4686 168.944 54.6338 171.753C56.2119 171.76 57.79 171.767 59.3681 171.771C59.9054 171.773 60.4426 171.775 60.9799 171.778C61.7505 171.782 62.5211 171.783 63.2917 171.785C63.5333 171.787 63.775 171.788 64.0239 171.79C64.6017 171.79 65.1794 171.773 65.7568 171.753C66.425 171.085 66.2198 169.713 66.268 168.788C66.3152 167.931 66.3625 167.074 66.4111 166.191H73.2812C73.4244 168.788 73.4244 168.788 73.4671 169.607C73.4324 170.778 73.4324 170.778 73.9355 171.753C74.7564 171.786 75.5681 171.799 76.3892 171.796C76.6348 171.797 76.8805 171.797 77.1336 171.797C77.6539 171.798 78.1742 171.797 78.6945 171.796C79.4937 171.794 80.2928 171.796 81.0919 171.798C81.5963 171.797 82.1006 171.797 82.605 171.796C82.8456 171.797 83.0862 171.798 83.334 171.798C84.4542 171.894 84.4542 171.894 85.3857 171.426C85.4633 170.544 85.5237 169.671 85.5698 168.788C85.617 167.931 85.6642 167.074 85.7129 166.191H92.9102C93.0181 168.027 93.1261 169.862 93.2373 171.753H104.36C104.468 169.918 104.576 168.082 104.688 166.191H111.23C111.338 168.027 111.446 169.862 111.558 171.753C115.444 171.861 119.331 171.969 123.335 172.08C123.335 170.137 123.335 168.194 123.335 166.191H130.532V172.08C136.2 171.918 136.2 171.918 141.982 171.753C142.48 170.758 142.432 169.698 142.494 168.604C142.541 167.808 142.588 167.012 142.637 166.191H150.488C150.704 168.027 150.92 169.862 151.143 171.753H162.593C162.701 169.918 162.809 168.082 162.92 166.191H170.771C170.846 167.352 170.921 168.513 170.995 169.674C171.057 170.769 171.057 170.769 171.426 171.753L182.876 172.08C182.984 170.137 183.092 168.194 183.203 166.191H190.4C190.508 168.027 190.616 169.862 190.728 171.753C193.858 171.861 196.989 171.969 200.215 172.08V292.144C199.783 292.144 199.351 292.144 198.906 292.144C198.905 291.728 198.905 291.312 198.904 290.883C198.885 280.998 198.861 271.113 198.831 261.228C198.828 260.01 198.824 258.792 198.82 257.574C198.819 257.21 198.819 257.21 198.818 256.839C198.807 252.919 198.799 248.998 198.792 245.078C198.785 241.052 198.774 237.025 198.759 232.999C198.751 230.517 198.745 228.035 198.743 225.553C198.741 223.646 198.734 221.739 198.725 219.832C198.722 219.053 198.721 218.273 198.721 217.494C198.725 211.205 198.465 205.268 193.904 200.394C189.695 196.588 184.957 195.062 179.373 195.204C177.365 195.311 175.572 195.862 173.716 196.616C173.427 196.731 173.139 196.846 172.842 196.964C169.307 198.544 166.558 201.315 164.883 204.795C164.774 205.019 164.665 205.242 164.553 205.473C163.072 209.1 163.387 212.975 163.396 216.824C163.393 217.647 163.389 218.469 163.385 219.292C163.378 221.056 163.375 222.821 163.375 224.585C163.376 227.137 163.369 229.688 163.361 232.239C163.347 236.379 163.34 240.519 163.336 244.659C163.332 248.678 163.325 252.698 163.315 256.717C163.314 256.965 163.314 257.213 163.313 257.469C163.31 258.714 163.307 259.959 163.303 261.204C163.276 271.517 163.259 281.83 163.247 292.144C161.304 292.144 159.361 292.144 157.358 292.144C156.98 288.237 156.984 284.355 156.985 280.434C156.984 279.684 156.983 278.934 156.981 278.185C156.979 276.578 156.977 274.97 156.976 273.363C156.974 270.818 156.969 268.272 156.963 265.727C156.96 264.853 156.958 263.979 156.956 263.105C156.956 262.887 156.955 262.669 156.955 262.444C156.949 259.966 156.944 257.488 156.939 255.011C156.938 254.671 156.938 254.671 156.937 254.325C156.93 250.662 156.927 246.999 156.924 243.335C156.922 239.561 156.914 235.787 156.902 232.013C156.895 229.9 156.891 227.786 156.893 225.672C156.895 223.683 156.89 221.694 156.881 219.705C156.879 218.979 156.879 218.252 156.881 217.526C156.9 211.223 156.428 205.079 151.895 200.248C147.821 196.526 143.056 195.131 137.643 195.228C133.24 195.514 129.154 197.403 125.952 200.446C122.402 204.517 121.644 209.213 121.66 214.418C121.66 214.753 121.659 215.088 121.659 215.433C121.658 216.55 121.66 217.668 121.662 218.786C121.662 219.589 121.662 220.392 121.662 221.194C121.662 222.921 121.663 224.647 121.665 226.374C121.667 228.87 121.668 231.365 121.669 233.861C121.669 237.912 121.671 241.962 121.675 246.012C121.678 249.945 121.68 253.878 121.681 257.811C121.681 258.054 121.681 258.296 121.682 258.546C121.682 259.764 121.682 260.981 121.683 262.198C121.686 272.289 121.692 282.38 121.699 292.471C119.432 292.471 117.165 292.471 114.829 292.471C114.826 291.457 114.824 290.443 114.821 289.398C114.797 280.095 114.769 270.792 114.737 261.489C114.733 260.269 114.729 259.049 114.725 257.829C114.724 257.465 114.724 257.465 114.723 257.093C114.71 253.163 114.699 249.234 114.689 245.304C114.679 241.27 114.666 237.237 114.652 233.203C114.642 230.715 114.635 228.227 114.63 225.739C114.627 223.83 114.619 221.921 114.611 220.011C114.608 219.229 114.606 218.447 114.605 217.665C114.604 216.596 114.599 215.526 114.593 214.457C114.594 213.995 114.594 213.995 114.595 213.523C114.554 208.641 112.915 203.731 109.55 200.119C105.678 196.517 100.983 195.081 95.7593 195.131C91.1144 195.325 86.5164 197.391 83.3232 200.8C80.5924 204.361 79.3971 207.77 79.406 212.215C79.4031 212.731 79.4031 212.731 79.4002 213.258C79.3947 214.407 79.3937 215.557 79.3928 216.706C79.3897 217.531 79.3864 218.357 79.3828 219.182C79.3757 220.957 79.3706 222.732 79.3673 224.508C79.3625 227.074 79.3542 229.64 79.345 232.207C79.3301 236.371 79.3181 240.536 79.3079 244.7C79.2981 248.744 79.2868 252.788 79.2738 256.833C79.2729 257.082 79.2721 257.332 79.2713 257.589C79.2673 258.84 79.2632 260.092 79.2591 261.343C79.2252 271.719 79.1962 282.095 79.1699 292.471C76.4709 292.471 73.772 292.471 70.9912 292.471C70.9934 291.498 70.9956 290.526 70.9978 289.524C71.0174 280.579 71.032 271.634 71.0413 262.689C71.0426 261.514 71.0438 260.338 71.0451 259.163C71.0454 258.929 71.0456 258.695 71.0459 258.454C71.0502 254.679 71.0579 250.904 71.0669 247.13C71.0762 243.248 71.0816 239.367 71.0836 235.486C71.0848 233.309 71.0878 231.132 71.095 228.956C71.1017 226.902 71.1037 224.848 71.1022 222.794C71.1025 222.045 71.1044 221.296 71.1082 220.547C71.1256 216.95 71.0514 213.414 70.5638 209.845C70.5269 209.569 70.4901 209.292 70.4521 209.008C70.0124 206.156 68.8219 203.853 66.9926 201.615C66.4111 200.869 66.4111 200.869 66.4111 200.215C66.2264 200.13 66.0417 200.044 65.8514 199.957C65.0318 199.523 64.3325 199.011 63.5895 198.456C61.9946 197.327 60.4128 196.568 58.5596 195.962C58.2036 195.845 57.8477 195.728 57.481 195.608C56.1815 195.286 54.9627 195.182 53.6319 195.185C53.3909 195.185 53.1499 195.186 52.9016 195.187C48.2481 195.289 43.9886 197.088 40.5664 200.215C37.2193 203.878 35.8308 208.019 35.8559 212.95C35.8537 213.291 35.8515 213.632 35.8493 213.983C35.8432 215.116 35.8441 216.249 35.8449 217.381C35.8419 218.197 35.8385 219.013 35.8348 219.829C35.8276 221.581 35.8234 223.332 35.822 225.084C35.8199 227.616 35.8123 230.149 35.8035 232.681C35.7894 236.79 35.7796 240.9 35.7725 245.009C35.7656 248.999 35.7567 252.989 35.745 256.979C35.7443 257.225 35.7436 257.471 35.7429 257.725C35.7392 258.961 35.7356 260.196 35.7319 261.432C35.7014 271.669 35.6783 281.906 35.6592 292.144C33.1761 292.144 30.6931 292.144 28.1348 292.144C28.1348 250.579 28.1348 209.015 28.1348 166.191Z" fill="#F7F5F4"/>
<path d="M204.141 168.809H294.761V292.471C288.823 292.471 282.885 292.471 276.768 292.471C276.76 290.386 276.76 290.386 276.753 288.259C276.737 283.654 276.715 279.048 276.69 274.443C276.676 271.652 276.663 268.862 276.654 266.071C276.647 263.636 276.636 261.202 276.621 258.767C276.613 257.48 276.607 256.193 276.605 254.906C276.603 253.69 276.596 252.474 276.586 251.258C276.582 250.608 276.583 249.958 276.583 249.309C276.498 240.948 273.635 233.319 267.825 227.245C262.861 222.408 256.091 219.801 249.287 219.189C249 219.162 248.713 219.134 248.417 219.105C241.052 218.755 233.744 221.836 228.35 226.714C223.277 231.507 219.927 238.1 219.713 245.131C219.705 246.008 219.701 246.884 219.702 247.762C219.699 248.249 219.696 248.736 219.692 249.224C219.683 250.533 219.68 251.842 219.678 253.151C219.675 254.524 219.667 255.897 219.659 257.27C219.644 259.864 219.635 262.458 219.627 265.052C219.618 268.008 219.604 270.964 219.589 273.92C219.559 279.994 219.536 286.069 219.517 292.144C214.443 292.144 209.368 292.144 204.141 292.144C204.141 251.443 204.141 210.742 204.141 168.809Z" fill="#F8F7F5"/>
<path d="M243.802 52.8997C244.051 52.8983 244.299 52.8969 244.555 52.8954C245.077 52.8935 245.6 52.8934 246.122 52.8948C246.909 52.8958 247.695 52.8881 248.482 52.8798C251.395 52.8674 254.02 53.0522 256.812 53.9795C257.085 54.0697 257.359 54.1598 257.641 54.2527C263.591 56.3335 268.416 59.3248 272.842 63.794C273.059 64.0035 273.275 64.2131 273.499 64.4291C278.097 69.2097 281.348 76.8223 281.348 83.4229C258.676 83.4229 236.005 83.4229 212.646 83.4229C214.368 73.6668 218.538 65.2627 226.632 59.357C231.697 55.9543 237.552 52.8916 243.802 52.8997Z" fill="#F8F7F5"/>
<path d="M208.721 95.2002H285.601C285.978 122.409 285.978 122.409 285.95 133.869C285.947 135.47 285.945 137.071 285.944 138.671C285.94 141.738 285.935 144.805 285.928 147.871C284.848 147.763 283.769 147.655 282.656 147.544C282.654 147.196 282.652 146.847 282.65 146.488C282.632 143.183 282.608 139.877 282.579 136.571C282.565 134.872 282.552 133.173 282.543 131.474C282.534 129.83 282.521 128.187 282.505 126.543C282.499 125.92 282.496 125.297 282.493 124.675C282.489 116.329 282.489 116.329 278.955 108.981C276.478 107.022 274.007 106.377 270.879 106.65C267.799 107.283 265.393 109.016 263.537 111.546C263.139 112.195 263.139 112.195 262.7 113.193C262.584 113.419 262.468 113.645 262.349 113.878C261.909 115.258 261.945 116.578 261.942 118.018C261.938 118.337 261.935 118.657 261.932 118.986C261.922 120.039 261.916 121.092 261.91 122.145C261.904 122.876 261.898 123.607 261.891 124.339C261.874 126.261 261.861 128.184 261.849 130.107C261.836 132.069 261.82 134.032 261.803 135.995C261.771 139.844 261.744 143.694 261.719 147.544C260.423 147.544 259.128 147.544 257.793 147.544C257.788 147.021 257.788 147.021 257.783 146.488C257.751 143.191 257.717 139.894 257.682 136.597C257.664 134.903 257.647 133.208 257.63 131.514C257.615 129.876 257.597 128.239 257.579 126.601C257.573 125.979 257.567 125.356 257.561 124.734C257.55 115.849 257.55 115.849 253.048 108.418C251.288 106.773 249.089 106.502 246.763 106.57C243.782 106.891 241.318 108.43 239.207 110.494C237.104 113.619 236.802 116.839 236.818 120.506C236.818 120.8 236.818 121.094 236.818 121.397C236.818 122.36 236.821 123.323 236.824 124.286C236.824 124.957 236.825 125.628 236.825 126.299C236.826 128.059 236.829 129.818 236.833 131.578C236.836 133.376 236.838 135.175 236.839 136.973C236.843 140.497 236.849 144.02 236.855 147.544C235.668 147.544 234.48 147.544 233.257 147.544C233.252 147.043 233.252 147.043 233.247 146.532C233.214 143.365 233.181 140.199 233.146 137.032C233.128 135.405 233.11 133.777 233.094 132.15C233.078 130.576 233.061 129.002 233.043 127.428C233.037 126.831 233.03 126.234 233.025 125.637C233.339 116.6 233.339 116.6 229.331 108.94C228.5 108.295 227.659 107.766 226.714 107.305C226.473 107.186 226.232 107.067 225.984 106.944C223.513 106.143 220.077 106.209 217.697 107.284C215.235 108.78 213.544 110.78 212.801 113.57C212.399 115.996 212.27 118.423 212.252 120.878C212.247 121.314 212.247 121.314 212.242 121.759C212.232 122.708 212.224 123.656 212.216 124.605C212.209 125.268 212.202 125.931 212.195 126.594C212.177 128.329 212.161 130.064 212.145 131.799C212.129 133.573 212.111 135.347 212.093 137.121C212.057 140.595 212.024 144.07 211.992 147.544C210.913 147.544 209.833 147.544 208.721 147.544C208.721 130.271 208.721 112.997 208.721 95.2002Z" fill="#F7F5F4"/>
<path d="M203.486 152.124H292.798V165.21C263.325 165.21 233.852 165.21 203.486 165.21C203.486 160.892 203.486 156.573 203.486 152.124Z" fill="#2A2723"/>
<path d="M246.343 229.985C246.351 235.143 246.356 240.301 246.36 245.459C246.361 247.856 246.364 250.254 246.367 252.651C246.388 265.819 246.28 278.978 246.016 292.144C244.936 292.144 243.856 292.144 242.744 292.144C242.49 280.84 242.355 269.54 242.356 258.233C242.356 256.213 242.352 254.193 242.346 252.173C242.343 250.585 242.342 248.997 242.342 247.408C242.342 246.662 242.34 245.916 242.338 245.171C242.326 241.359 242.347 237.667 243.071 233.911C241.952 233.848 241.952 233.848 240.781 233.911C239.471 235.527 239.391 237.26 239.3 239.263C239.28 239.69 239.28 239.69 239.259 240.125C239.075 244.295 239.027 248.468 238.961 252.64C238.947 253.493 238.933 254.346 238.919 255.199C238.884 257.263 238.851 259.327 238.818 261.392C238.613 261.411 238.408 261.431 238.197 261.452C237.93 261.479 237.663 261.507 237.387 261.535C237.121 261.561 236.856 261.588 236.582 261.615C235.86 261.683 235.86 261.683 235.22 262.046C235.332 262.878 235.432 263.516 235.915 264.213C236.747 264.859 236.747 264.859 238.818 265.645V292.144C236.011 292.144 233.204 292.144 230.312 292.144C230.267 285.739 230.232 279.335 230.211 272.93C230.201 269.956 230.187 266.982 230.164 264.008C230.145 261.414 230.132 258.82 230.128 256.226C230.125 254.854 230.119 253.482 230.105 252.11C230.092 250.816 230.088 249.521 230.09 248.226C230.09 247.754 230.086 247.282 230.079 246.811C230.014 242.606 230.934 239.265 233.727 236.038C234.218 235.541 234.715 235.049 235.22 234.565C235.389 234.382 235.559 234.199 235.733 234.01C238.358 231.392 242.72 229.956 246.343 229.985Z" fill="#F7F6F4"/>
<path d="M249.941 229.985C254.016 230.438 257.395 231.744 260.41 234.565C260.61 234.752 260.811 234.939 261.017 235.132C265.037 239.293 266.13 244.816 266.083 250.399C266.083 250.857 266.083 251.315 266.084 251.773C266.084 253.005 266.078 254.236 266.071 255.467C266.065 256.759 266.064 258.05 266.063 259.342C266.06 261.782 266.052 264.222 266.042 266.661C266.031 269.442 266.026 272.222 266.021 275.002C266.011 280.716 265.993 286.43 265.972 292.144C262.949 292.144 259.926 292.144 256.812 292.144C256.812 283.183 256.812 274.222 256.812 264.99L259.102 264.663C259.533 264.301 259.533 264.301 259.51 263.395C259.513 262.398 259.513 262.398 259.04 261.78C258.313 261.304 257.66 261.216 256.812 261.064C256.559 258.011 256.438 254.982 256.427 251.918C256.419 251.067 256.411 250.216 256.403 249.364C256.391 248.043 256.382 246.721 256.378 245.4C256.374 244.11 256.36 242.821 256.345 241.531C256.346 241.139 256.346 240.746 256.347 240.342C256.315 238.126 256.199 235.588 254.521 233.911C253.976 233.898 253.431 233.897 252.886 233.911C252.567 234.797 252.573 235.319 252.711 236.268C252.882 237.485 252.926 238.631 252.925 239.859C252.925 240.084 252.926 240.309 252.926 240.541C252.926 241.289 252.925 242.037 252.923 242.785C252.923 243.324 252.923 243.862 252.923 244.401C252.923 245.859 252.921 247.316 252.919 248.774C252.917 250.299 252.917 251.824 252.916 253.349C252.915 256.236 252.913 259.122 252.909 262.008C252.906 265.294 252.904 268.581 252.902 271.867C252.899 278.626 252.893 285.385 252.886 292.144C251.914 292.144 250.942 292.144 249.941 292.144C249.941 271.631 249.941 251.119 249.941 229.985Z" fill="#F8F7F5"/>
<path d="M264.087 228.581C264.626 229.025 265.139 229.502 265.645 229.985V230.64L266.626 230.967V231.621H267.28C267.781 232.327 268.231 233.025 268.671 233.768C268.801 233.988 268.932 234.208 269.067 234.435C271.791 239.143 272.946 243.669 272.916 249.099C272.916 249.57 272.916 250.041 272.916 250.512C272.917 251.782 272.913 253.053 272.908 254.323C272.904 255.654 272.904 256.985 272.903 258.316C272.901 260.832 272.895 263.349 272.889 265.865C272.882 268.731 272.878 271.598 272.875 274.464C272.868 280.357 272.856 286.25 272.842 292.144C271.87 292.144 270.899 292.144 269.897 292.144C269.896 291.814 269.896 291.814 269.894 291.479C269.867 286.118 269.837 280.757 269.803 275.395C269.787 272.803 269.772 270.21 269.759 267.617C269.749 265.355 269.736 263.093 269.72 260.831C269.712 259.636 269.705 258.44 269.7 257.244C269.749 243.817 269.749 243.817 263.321 232.398C259.041 228.368 253.497 226.517 247.692 226.571C247.317 226.573 246.941 226.576 246.555 226.579C243.856 226.633 241.614 226.864 239.145 228.022C238.796 228.178 238.447 228.333 238.087 228.493C232.617 231.164 229.321 235.299 227.35 241.023C226.856 242.729 226.673 244.341 226.662 246.115C226.657 246.726 226.657 246.726 226.652 247.349C226.65 247.796 226.649 248.243 226.647 248.69C226.644 249.164 226.64 249.638 226.637 250.112C226.628 251.396 226.621 252.679 226.615 253.963C226.607 255.305 226.598 256.648 226.59 257.991C226.573 260.531 226.559 263.072 226.545 265.613C226.528 268.506 226.51 271.4 226.492 274.293C226.455 280.243 226.42 286.193 226.387 292.144C225.307 292.144 224.228 292.144 223.115 292.144C223.077 285.745 223.048 279.346 223.03 272.947C223.022 269.976 223.011 267.004 222.992 264.033C222.975 261.441 222.965 258.849 222.961 256.257C222.959 254.886 222.954 253.516 222.942 252.145C222.931 250.851 222.928 249.557 222.93 248.263C222.93 247.792 222.927 247.321 222.92 246.85C222.834 240.12 225.609 234.504 230.208 229.702C230.967 229.004 230.967 229.004 231.621 229.004C231.729 228.68 231.837 228.356 231.948 228.022C241.738 220.524 254.466 221.244 264.087 228.581Z" fill="#F7F6F5"/>
<path d="M250.003 110.474C250.306 110.724 250.61 110.973 250.923 111.23L251.782 111.926C255.106 115.95 254.241 122.115 254.226 127.033C254.226 127.628 254.225 128.223 254.225 128.818C254.224 130.368 254.22 131.918 254.217 133.468C254.213 135.336 254.211 137.204 254.209 139.072C254.206 141.896 254.2 144.72 254.194 147.544C249.66 147.544 245.126 147.544 240.454 147.544C240.372 141.52 240.372 141.52 240.338 138.909C240.314 137.143 240.291 135.376 240.267 133.61C240.225 130.566 240.186 127.522 240.152 124.478C240.136 123.035 240.115 121.592 240.092 120.149C240.086 119.563 240.079 118.977 240.073 118.391C240.068 118.145 240.063 117.899 240.057 117.645C240.043 115.34 240.726 113.731 242.216 112.018C244.274 110.079 247.432 109.113 250.003 110.474Z" fill="#F8F7F6"/>
<path d="M224.856 110.147C227.097 111.169 228.41 112.885 229.331 115.156C229.466 116.223 229.455 117.278 229.442 118.352C229.443 118.826 229.443 118.826 229.443 119.31C229.442 120.351 229.435 121.392 229.427 122.433C229.425 123.156 229.424 123.879 229.423 124.603C229.419 126.503 229.409 128.404 229.398 130.305C229.388 132.245 229.384 134.186 229.379 136.127C229.368 139.933 229.351 143.738 229.331 147.544C224.905 147.544 220.478 147.544 215.918 147.544C215.598 142.047 215.529 136.564 215.53 131.06C215.53 129.832 215.526 128.604 215.52 127.376C215.516 126.411 215.516 125.446 215.516 124.481C215.516 124.028 215.514 123.576 215.512 123.123C215.468 114.603 215.468 114.603 217.554 111.885C219.737 109.92 221.968 109.291 224.856 110.147Z" fill="#F7F6F5"/>
<path d="M275.193 110.413C277.05 111.448 277.833 113.024 278.419 115.008C278.795 116.552 278.818 118.032 278.805 119.615C278.805 119.918 278.805 120.222 278.805 120.535C278.805 121.529 278.8 122.524 278.794 123.519C278.793 124.212 278.792 124.905 278.792 125.598C278.789 127.416 278.783 129.234 278.775 131.052C278.769 132.909 278.766 134.767 278.762 136.624C278.755 140.264 278.744 143.904 278.73 147.544C274.304 147.544 269.878 147.544 265.317 147.544C265.28 143.42 265.25 139.297 265.233 135.173C265.224 133.258 265.213 131.343 265.194 129.428C265.176 127.578 265.166 125.729 265.162 123.879C265.159 123.175 265.153 122.471 265.144 121.767C265.133 120.777 265.131 119.788 265.132 118.798C265.126 118.51 265.12 118.222 265.114 117.925C265.132 115.732 265.764 114.054 266.953 112.212C267.794 111.475 267.794 111.475 268.63 111.046C268.907 110.898 269.185 110.749 269.471 110.595C271.407 109.706 273.233 109.57 275.193 110.413Z" fill="#F8F6F5"/>
<path d="M203.486 152.124H292.798V165.21C263.325 165.21 233.852 165.21 203.486 165.21C203.486 163.267 203.486 161.323 203.486 159.321C203.828 159.834 204.17 160.348 204.505 160.865C205.328 162.088 205.999 163.016 207.412 163.574C209.053 163.783 209.677 163.791 211.093 162.92C212.159 161.909 212.736 160.66 213.301 159.321H213.955C214.469 159.87 214.92 160.456 215.384 161.046C215.955 161.651 216.467 161.94 217.227 162.266V162.92C219.853 162.386 221.157 161.496 222.788 159.321C222.901 159.582 222.901 159.582 223.017 159.848C223.701 161.329 224.252 162.443 225.732 163.247C227.054 163.606 228.355 163.887 229.629 163.273C230.549 162.54 231.213 161.733 231.621 160.63C232.862 161.044 232.952 161.486 233.584 162.593C234.237 163.555 234.637 163.592 235.813 163.881C236.897 163.976 237.212 163.887 238.246 163.39C239.227 162.521 239.792 161.751 240.454 160.63C241.061 161.206 241.562 161.779 242.069 162.45C242.999 163.549 243.575 163.839 244.993 164.024C246.331 163.864 246.952 163.463 247.979 162.593C248.494 161.85 248.881 161.115 249.287 160.303C249.843 160.858 250.396 161.415 250.943 161.979C251.879 162.885 252.147 162.916 253.499 162.981C254.936 162.96 254.936 162.96 256.157 162.266C256.652 161.522 257.053 160.771 257.466 159.976C258.129 160.604 258.711 161.272 259.286 161.979C260.167 163.019 260.338 163.212 261.657 163.329C262.876 163.233 263.4 163.05 264.336 162.266C264.753 161.515 265.026 160.79 265.317 159.976H265.972C266.496 160.535 266.957 161.131 267.432 161.733C268.259 162.61 269.198 162.664 270.347 162.715C271.594 162.707 271.807 162.635 272.842 161.816C273.49 161.021 273.49 161.021 273.823 160.303C274.805 160.63 274.805 160.63 275.295 161.591C275.457 161.922 275.619 162.252 275.786 162.593C277.174 163.518 278.409 163.461 280.039 163.247C281.214 162.562 281.832 161.895 282.329 160.63C282.902 160.671 282.902 160.671 283.638 160.957C284.077 161.609 284.513 162.264 284.946 162.92C285.843 163.628 286.414 163.876 287.543 164.044C289.159 163.814 290.104 162.975 291.264 161.877C292.253 160.229 292.25 158.65 291.939 156.786C291.402 155.516 290.975 154.898 289.854 154.087C288.308 153.599 287.264 153.582 285.805 154.312C284.526 155.439 283.889 156.411 283.311 158.013C282.656 157.358 282.656 157.358 282.227 156.418C281.606 155.267 281.171 154.741 280.039 154.087C278.561 153.847 277.077 153.944 275.786 154.741C275.357 155.54 275.357 155.54 275.132 156.377C275.024 156.593 274.916 156.809 274.805 157.031C274.589 157.031 274.373 157.031 274.15 157.031C274.022 156.734 273.894 156.437 273.762 156.132C273.119 154.979 272.679 154.411 271.533 153.76C269.185 153.716 267.776 154.942 266.156 156.479C265.987 156.661 265.818 156.844 265.645 157.031C264.336 155.15 264.336 155.15 264.336 154.414C262.901 153.936 261.463 153.905 260.001 154.271C259.084 155.024 258.664 155.982 258.12 157.031C257.904 157.031 257.688 157.031 257.466 157.031C257.284 156.674 257.101 156.316 256.914 155.948C256.272 154.84 255.757 154.22 254.521 153.76C253.109 153.76 252.442 153.919 251.332 154.803C250.594 155.725 250.09 156.608 249.614 157.686C248.865 157.049 248.425 156.37 247.958 155.518C247.453 154.403 247.453 154.403 246.67 154.087C245.443 153.915 244.245 153.823 243.119 154.395C242.058 155.23 241.477 156.069 241.108 157.358C240.785 157.358 240.461 157.358 240.127 157.358C239.945 157.008 239.763 156.657 239.575 156.295C238.924 155.175 238.339 154.405 237.183 153.76C235.755 153.734 235.113 153.903 234.013 154.823C233.311 155.658 232.615 156.494 231.948 157.358C231.818 157.153 231.688 156.948 231.553 156.737C231.38 156.47 231.207 156.203 231.028 155.927C230.857 155.661 230.687 155.396 230.511 155.122C229.99 154.338 229.99 154.338 229.004 153.76C226.888 153.469 225.733 154.187 224.097 155.396C223.544 155.822 222.995 156.254 222.461 156.704C222.265 156.448 222.07 156.191 221.868 155.927C221.129 155.04 220.598 154.492 219.44 154.281C217.745 154.197 217.745 154.197 216.234 154.865C215.854 155.225 215.477 155.588 215.104 155.954C214.609 156.377 214.609 156.377 213.792 156.459C212.781 155.953 212.019 155.3 211.191 154.537C210.504 153.928 210.087 153.768 209.171 153.637C207.132 153.864 205.465 155.176 204.141 156.704C203.925 157.028 203.709 157.352 203.486 157.686C203.486 155.85 203.486 154.015 203.486 152.124Z" fill="#E2E2E0"/>
<path d="M206.431 87.3486H286.909V91.2744C260.351 91.2744 233.793 91.2744 206.431 91.2744C206.431 89.9789 206.431 88.6834 206.431 87.3486Z" fill="#F8F8F6"/>
<path d="M277.89 181.445C279.118 182.52 279.857 183.964 280.366 185.493C280.395 186 280.405 186.508 280.403 187.016C280.403 187.324 280.403 187.632 280.403 187.949C280.402 188.28 280.4 188.611 280.398 188.952C280.398 189.292 280.397 189.632 280.397 189.982C280.395 191.069 280.391 192.156 280.387 193.242C280.385 193.979 280.384 194.715 280.382 195.451C280.379 197.257 280.372 199.063 280.366 200.869C275.94 200.869 271.514 200.869 266.953 200.869C266.915 198.832 266.883 196.796 266.863 194.759C266.855 194.067 266.844 193.376 266.83 192.684C266.81 191.685 266.801 190.686 266.793 189.687C266.785 189.382 266.777 189.077 266.768 188.763C266.767 186.255 267.465 184.133 269.159 182.239C271.608 179.911 275.042 179.644 277.89 181.445Z" fill="#272521"/>
<path d="M251.311 180.79C253.219 181.86 254.239 183.343 254.976 185.387C255.344 186.788 255.295 188.184 255.272 189.623C255.27 189.946 255.269 190.27 255.267 190.602C255.262 191.626 255.25 192.649 255.237 193.672C255.232 194.369 255.228 195.067 255.224 195.764C255.214 197.466 255.195 199.167 255.176 200.869C250.749 200.869 246.323 200.869 241.763 200.869C241.74 198.814 241.721 196.76 241.709 194.705C241.704 194.007 241.697 193.308 241.689 192.61C241.677 191.604 241.671 190.598 241.667 189.591C241.662 189.281 241.657 188.971 241.651 188.651C241.651 185.971 242.313 184.088 244.141 182.084C246.253 180.157 248.687 179.619 251.311 180.79Z" fill="#282622"/>
<path d="M226.129 181.151C227.682 182.256 228.777 183.792 229.181 185.657C229.375 187.135 229.371 188.582 229.363 190.071C229.362 190.38 229.362 190.69 229.362 191.008C229.36 191.992 229.356 192.975 229.351 193.958C229.35 194.627 229.348 195.296 229.347 195.965C229.343 197.599 229.338 199.234 229.331 200.869C227.52 200.877 225.709 200.883 223.898 200.887C223.281 200.889 222.665 200.891 222.048 200.894C221.164 200.898 220.279 200.9 219.395 200.901C219.118 200.903 218.84 200.904 218.555 200.906C217.894 200.906 217.233 200.889 216.572 200.869C216.074 200.371 216.199 199.925 216.192 199.23C216.189 198.952 216.186 198.673 216.183 198.386C216.181 198.082 216.18 197.778 216.179 197.465C216.177 197.153 216.175 196.841 216.173 196.519C216.17 195.856 216.168 195.192 216.166 194.529C216.163 193.522 216.153 192.514 216.143 191.507C216.141 190.862 216.139 190.217 216.138 189.572C216.132 189.124 216.132 189.124 216.125 188.667C216.135 185.862 216.709 183.438 218.668 181.363C220.745 179.571 223.879 179.887 226.129 181.151Z" fill="#282521"/>
<path d="M203.486 152.451H270.225C269.853 153.936 269.721 153.998 268.487 154.741C267.407 155.419 266.496 156.069 265.645 157.031C264.336 155.15 264.336 155.15 264.336 154.414C262.901 153.936 261.463 153.905 260.001 154.271C259.084 155.024 258.664 155.982 258.12 157.031C257.904 157.031 257.688 157.031 257.466 157.031C257.284 156.674 257.101 156.316 256.914 155.948C256.272 154.84 255.757 154.22 254.521 153.76C253.109 153.76 252.442 153.919 251.332 154.803C250.594 155.725 250.09 156.608 249.614 157.686C248.865 157.049 248.425 156.37 247.958 155.518C247.453 154.403 247.453 154.403 246.67 154.087C245.443 153.915 244.245 153.823 243.119 154.395C242.058 155.23 241.477 156.069 241.108 157.358C240.785 157.358 240.461 157.358 240.127 157.358C239.945 157.008 239.763 156.657 239.575 156.295C238.924 155.175 238.339 154.405 237.183 153.76C235.755 153.734 235.113 153.903 234.013 154.823C233.311 155.658 232.615 156.494 231.948 157.358C231.818 157.153 231.688 156.948 231.553 156.737C231.38 156.47 231.207 156.203 231.028 155.927C230.857 155.661 230.687 155.396 230.511 155.122C229.99 154.338 229.99 154.338 229.004 153.76C226.888 153.469 225.733 154.187 224.097 155.396C223.544 155.822 222.995 156.254 222.461 156.704C222.265 156.448 222.07 156.191 221.868 155.927C221.129 155.04 220.598 154.492 219.44 154.281C217.745 154.197 217.745 154.197 216.234 154.865C215.854 155.225 215.477 155.588 215.104 155.954C214.609 156.377 214.609 156.377 213.792 156.459C212.781 155.953 212.019 155.3 211.191 154.537C210.504 153.928 210.087 153.768 209.171 153.637C207.132 153.864 205.465 155.176 204.141 156.704C203.925 157.028 203.709 157.352 203.486 157.686C203.486 155.958 203.486 154.231 203.486 152.451Z" fill="#F3F2F1"/>
<path d="M203.486 152.124H292.798V161.284C292.582 161.284 292.366 161.284 292.144 161.284V164.556C290.956 164.556 289.768 164.556 288.545 164.556C288.872 163.574 288.872 163.574 289.629 163.124C290.838 162.393 291.628 161.685 291.993 160.277C292.3 158.179 292.077 156.543 290.815 154.782C289.54 153.86 288.474 153.616 286.909 153.76C284.939 154.745 284.043 155.983 283.311 158.013C282.656 157.358 282.656 157.358 282.227 156.418C281.606 155.267 281.171 154.741 280.039 154.087C278.561 153.847 277.077 153.944 275.786 154.741C275.357 155.54 275.357 155.54 275.132 156.377C275.024 156.593 274.916 156.809 274.805 157.031C274.589 157.031 274.373 157.031 274.15 157.031C274.022 156.734 273.894 156.437 273.762 156.132C272.834 154.469 271.676 153.715 269.897 153.105C269.897 152.998 269.897 152.89 269.897 152.778C247.982 152.67 226.066 152.562 203.486 152.451C203.486 152.343 203.486 152.235 203.486 152.124Z" fill="#AFAEAA"/>
<path d="M257.466 159.976C258.129 160.604 258.711 161.272 259.286 161.979C260.167 163.019 260.338 163.212 261.657 163.329C262.876 163.233 263.4 163.05 264.336 162.266C264.753 161.515 265.026 160.79 265.317 159.976H265.972C266.496 160.535 266.957 161.131 267.432 161.733C268.259 162.61 269.198 162.664 270.347 162.715C271.594 162.707 271.807 162.635 272.842 161.816C273.49 161.021 273.49 161.021 273.823 160.303C274.805 160.63 274.805 160.63 275.295 161.591C275.457 161.922 275.619 162.252 275.786 162.593C277.174 163.518 278.409 163.461 280.039 163.247C281.214 162.562 281.832 161.895 282.329 160.63C282.902 160.671 282.902 160.671 283.638 160.957C284.084 161.605 284.519 162.26 284.946 162.92C285.8 163.68 285.8 163.68 286.582 164.229C286.255 164.556 286.255 164.556 285.591 164.596C285.297 164.596 285.003 164.595 284.7 164.595C284.196 164.596 284.196 164.596 283.681 164.596C283.309 164.595 282.937 164.594 282.554 164.593C281.97 164.593 281.97 164.593 281.374 164.593C280.304 164.593 279.233 164.591 278.162 164.589C277.045 164.587 275.927 164.587 274.809 164.586C272.691 164.585 270.573 164.583 268.455 164.579C266.045 164.576 263.634 164.574 261.223 164.572C256.263 164.569 251.303 164.563 246.343 164.556C246.235 164.34 246.127 164.124 246.016 163.901C246.461 163.648 246.461 163.648 246.915 163.39C248.148 162.581 248.636 161.606 249.287 160.303C249.843 160.858 250.396 161.415 250.943 161.979C251.879 162.885 252.147 162.916 253.499 162.981C254.936 162.96 254.936 162.96 256.157 162.266C256.652 161.522 257.053 160.771 257.466 159.976Z" fill="#F3F2F1"/>
<path d="M274.171 183.837C275.539 184.332 276.442 185.169 277.095 186.475C277.123 187.286 277.133 188.089 277.127 188.9C277.126 189.139 277.126 189.378 277.125 189.623C277.123 190.387 277.119 191.15 277.115 191.913C277.114 192.431 277.112 192.948 277.111 193.465C277.107 194.733 277.101 196.002 277.095 197.271C274.828 197.271 272.56 197.271 270.225 197.271C270.202 195.915 270.182 194.559 270.171 193.203C270.166 192.743 270.159 192.282 270.151 191.822C270.139 191.157 270.133 190.492 270.129 189.827C270.124 189.427 270.118 189.028 270.113 188.617C270.285 186.827 270.75 185.571 272.126 184.348C273.169 183.857 273.169 183.857 274.171 183.837Z" fill="#F3F2F0"/>
<path d="M249.255 183.907C250.325 184.339 250.852 184.926 251.577 185.82C251.721 186.777 251.77 187.535 251.737 188.485C251.735 188.737 251.732 188.988 251.73 189.248C251.721 190.048 251.7 190.848 251.679 191.648C251.671 192.192 251.664 192.736 251.657 193.28C251.64 194.611 251.608 195.94 251.577 197.271C249.418 197.271 247.259 197.271 245.034 197.271C245.008 195.805 244.988 194.34 244.973 192.874C244.965 192.462 244.956 192.05 244.948 191.625C244.927 188.911 245.076 186.627 246.568 184.307C247.496 183.755 248.195 183.791 249.255 183.907Z" fill="#F6F5F3"/>
<path d="M223.77 183.857C224.67 184.445 225.25 184.856 225.732 185.82C225.761 186.679 225.77 187.53 225.764 188.389C225.764 188.642 225.763 188.895 225.763 189.156C225.761 189.966 225.757 190.776 225.753 191.586C225.751 192.135 225.75 192.684 225.748 193.232C225.745 194.578 225.739 195.924 225.732 197.27C223.681 197.27 221.63 197.27 219.517 197.27C219.494 195.769 219.474 194.268 219.463 192.766C219.458 192.256 219.451 191.745 219.443 191.235C219.431 190.499 219.425 189.764 219.421 189.028C219.416 188.802 219.411 188.576 219.405 188.343C219.405 186.824 219.686 185.795 220.498 184.512C221.721 183.697 222.321 183.708 223.77 183.857Z" fill="#F8F7F5"/>
<path d="M209.048 95.2002H285.601V106.323C285.385 106.323 285.169 106.323 284.946 106.323C284.946 102.869 284.946 99.4139 284.946 95.8545C260.008 95.8545 235.069 95.8545 209.375 95.8545V146.89C209.267 146.89 209.159 146.89 209.048 146.89C209.048 129.832 209.048 112.775 209.048 95.2002Z" fill="#FDFDFD"/>
<path d="M213.301 159.321H213.955C214.469 159.87 214.92 160.456 215.384 161.046C215.955 161.651 216.467 161.94 217.227 162.266V162.92C219.853 162.386 221.157 161.496 222.788 159.321C222.901 159.582 222.901 159.582 223.017 159.848C223.701 161.329 224.252 162.443 225.732 163.247C227.054 163.606 228.355 163.887 229.629 163.273C230.549 162.54 231.213 161.733 231.621 160.63C232.862 161.044 232.952 161.486 233.584 162.593C234.259 163.381 234.529 163.562 235.547 163.901V164.556C227.126 164.556 218.705 164.556 210.029 164.556C210.029 164.232 210.029 163.908 210.029 163.574C210.507 163.194 210.985 162.815 211.468 162.442C212.373 161.572 212.819 160.464 213.301 159.321Z" fill="#F5F4F2"/>
<path d="M294.106 224.424H294.434C294.729 228.295 294.806 232.138 294.798 236.018C294.798 236.638 294.798 237.258 294.798 237.877C294.798 239.542 294.796 241.207 294.794 242.873C294.792 244.619 294.792 246.366 294.791 248.112C294.79 251.412 294.788 254.711 294.784 258.011C294.781 261.77 294.779 265.53 294.777 269.29C294.774 277.017 294.768 284.744 294.761 292.471C288.823 292.471 282.885 292.471 276.768 292.471C276.768 292.363 276.768 292.255 276.768 292.144L293.779 291.816L294.106 224.424Z" fill="#EFEEED"/>
<path d="M245.566 229.944C245.822 229.958 246.079 229.971 246.343 229.985C246.351 235.143 246.356 240.301 246.36 245.459C246.361 247.856 246.364 250.254 246.367 252.651C246.388 265.819 246.28 278.978 246.016 292.144C244.936 292.144 243.856 292.144 242.744 292.144C242.744 280.7 242.744 269.256 242.744 257.466H243.071V291.816H245.688C245.688 271.628 245.688 251.44 245.688 230.64C245.149 230.64 244.609 230.64 244.053 230.64C244.707 229.985 244.707 229.985 245.566 229.944Z" fill="#FCFCFC"/>
<path d="M203.486 152.451H270.225V152.778C254.031 152.94 254.031 152.94 237.51 153.105V153.433C236.862 153.433 236.214 153.433 235.547 153.433C235.547 153.325 235.547 153.217 235.547 153.105C227.234 153.105 218.921 153.105 210.356 153.105V153.433C210.167 153.465 209.977 153.497 209.781 153.53C207.402 153.985 205.782 154.886 204.141 156.704C203.925 157.028 203.709 157.352 203.486 157.686C203.486 155.958 203.486 154.231 203.486 152.451Z" fill="#FDFDFD"/>
<path d="M285.273 107.305H285.601C285.916 115.884 285.97 124.454 285.95 133.038C285.947 134.719 285.945 136.4 285.944 138.08C285.94 141.344 285.935 144.607 285.928 147.871C284.848 147.763 283.769 147.655 282.656 147.544C282.656 138.044 282.656 128.543 282.656 118.755H282.983V147.217H285.273C285.273 134.046 285.273 120.875 285.273 107.305Z" fill="#FCFDFC"/>
<path d="M71.9727 268.589V291.489L78.8428 291.162L79.1699 292.471C76.4709 292.471 73.772 292.471 70.9912 292.471C70.9912 284.698 70.9912 276.925 70.9912 268.916C71.6455 268.589 71.6455 268.589 71.9727 268.589Z" fill="#EAE9E7"/>
<path d="M233.584 120.391H233.911V146.89H235.874C235.873 146.683 235.873 146.477 235.872 146.264C235.864 144.066 235.86 141.868 235.856 139.669C235.854 138.855 235.852 138.04 235.849 137.226C235.83 131.605 235.936 126.005 236.201 120.391H236.528C237.017 129.433 236.888 138.492 236.855 147.544C236.64 147.436 236.424 147.328 236.201 147.217C235.337 147.217 234.474 147.217 233.584 147.217C233.584 138.364 233.584 129.512 233.584 120.391Z" fill="#EBEBE9"/>
<path d="M121.045 254.194H121.372C121.715 256.155 121.743 258.06 121.736 260.048C121.736 260.399 121.736 260.75 121.737 261.112C121.736 262.268 121.734 263.424 121.731 264.58C121.731 265.384 121.73 266.187 121.73 266.991C121.729 269.102 121.725 271.213 121.722 273.324C121.718 275.479 121.717 277.635 121.715 279.791C121.712 284.017 121.706 288.244 121.699 292.471C119.432 292.471 117.165 292.471 114.829 292.471L115.156 291.489L121.045 291.816C121.04 291.369 121.035 290.922 121.03 290.461C120.985 286.249 120.942 282.037 120.9 277.825C120.879 275.66 120.856 273.494 120.833 271.328C120.81 269.239 120.789 267.15 120.769 265.06C120.761 264.263 120.753 263.465 120.744 262.668C120.731 261.551 120.721 260.435 120.711 259.319C120.706 258.989 120.702 258.658 120.698 258.317C120.696 258.012 120.693 257.707 120.691 257.393C120.688 257.129 120.685 256.865 120.683 256.593C120.721 255.767 120.864 255.001 121.045 254.194Z" fill="#CBCBC9"/>
<path d="M270.879 152.778H292.144V153.105C291.388 153.105 290.632 153.105 289.854 153.105V153.76C289.664 153.745 289.474 153.729 289.278 153.714C287.426 153.628 286.407 153.816 284.946 155.068C284.134 155.967 283.721 156.877 283.311 158.013C282.656 157.358 282.656 157.358 282.227 156.418C281.611 155.278 281.14 154.762 280.039 154.087C278.832 153.824 278.832 153.824 277.749 153.76C277.749 153.652 277.749 153.544 277.749 153.433C275.482 153.325 273.215 153.217 270.879 153.105C270.879 152.998 270.879 152.89 270.879 152.778Z" fill="#F5F5F3"/>
<path d="M199.561 147.871C199.884 147.979 200.208 148.087 200.542 148.198C200.434 148.306 200.326 148.414 200.215 148.525C200.189 149.143 200.187 149.761 200.193 150.379C200.196 150.775 200.2 151.172 200.203 151.58C200.208 152.012 200.212 152.443 200.217 152.888C200.221 153.333 200.223 153.777 200.226 154.222C200.237 156.114 200.25 158.007 200.271 159.899C200.283 161.056 200.291 162.212 200.295 163.369C200.299 164.024 200.308 164.68 200.318 165.336C200.319 165.734 200.32 166.133 200.321 166.543C200.324 166.895 200.327 167.246 200.331 167.608C200.215 168.481 200.215 168.481 199.791 169.087C198.855 169.718 197.804 169.564 196.718 169.524C196.489 169.52 196.259 169.515 196.023 169.511C195.457 169.499 194.892 169.482 194.326 169.463C194.218 169.247 194.11 169.031 193.999 168.809H199.233C199.232 168.198 199.23 167.587 199.228 166.957C199.223 164.941 199.219 162.925 199.216 160.909C199.215 159.686 199.212 158.463 199.209 157.241C199.205 156.061 199.203 154.882 199.202 153.703C199.202 153.252 199.201 152.801 199.199 152.351C199.196 151.721 199.196 151.091 199.196 150.462C199.196 150.103 199.195 149.744 199.194 149.374C199.233 148.525 199.233 148.525 199.561 147.871Z" fill="#312F2C"/>
<path d="M255.176 153.105C255.987 153.097 256.798 153.09 257.609 153.085C257.84 153.082 258.072 153.08 258.31 153.077C258.901 153.074 259.492 153.088 260.083 153.105C260.191 153.213 260.299 153.321 260.41 153.433C260.781 153.385 261.152 153.338 261.535 153.289C264.087 152.965 266.676 153.081 269.243 153.105C268.288 154.764 267.247 155.963 265.645 157.031C264.336 155.15 264.336 155.15 264.336 154.414C262.905 153.937 261.445 153.871 260.001 154.312C259.224 154.895 258.694 155.598 258.12 156.377C257.99 156.223 257.859 156.069 257.725 155.911C257.552 155.707 257.379 155.503 257.2 155.293C257.029 155.092 256.858 154.891 256.682 154.684C256.199 154.135 255.699 153.616 255.176 153.105Z" fill="#F7F6F5"/>
<path d="M161.002 162.55C161.289 162.549 161.576 162.548 161.872 162.547C162.184 162.548 162.496 162.549 162.818 162.549C163.136 162.549 163.454 162.549 163.782 162.548C164.456 162.548 165.131 162.549 165.805 162.55C166.841 162.552 167.877 162.55 168.913 162.548C169.567 162.548 170.22 162.549 170.874 162.549C171.186 162.549 171.498 162.548 171.82 162.547C172.25 162.549 172.25 162.549 172.69 162.55C172.944 162.551 173.198 162.551 173.459 162.551C174.043 162.593 174.043 162.593 174.37 162.92C174.398 163.383 174.405 163.848 174.402 164.312C174.401 164.591 174.4 164.87 174.399 165.158C174.395 165.599 174.395 165.599 174.391 166.048C174.389 166.343 174.388 166.638 174.386 166.942C174.382 167.673 174.377 168.405 174.37 169.136C174.262 169.136 174.154 169.136 174.043 169.136C174.043 167.192 174.043 165.249 174.043 163.247C169.401 163.247 164.758 163.247 159.976 163.247V168.809C159.648 169.136 159.648 169.136 158.4 169.168C157.882 169.165 157.365 169.162 156.847 169.156C156.583 169.155 156.32 169.153 156.048 169.152C155.394 169.148 154.741 169.142 154.087 169.136C154.087 169.028 154.087 168.92 154.087 168.809H159.321C159.317 168.387 159.314 167.966 159.31 167.532C159.307 166.983 159.304 166.434 159.301 165.885C159.298 165.607 159.295 165.328 159.293 165.042C159.291 164.777 159.29 164.513 159.289 164.24C159.288 163.995 159.286 163.75 159.284 163.498C159.357 162.358 160.024 162.551 161.002 162.55Z" fill="#12100C"/>
<path d="M210.684 153.105C211.788 153.096 212.892 153.09 213.996 153.085C214.463 153.081 214.463 153.081 214.939 153.077C216.504 153.071 217.978 153.104 219.517 153.433V153.76C218.94 153.861 218.94 153.861 218.351 153.964C216.934 154.302 216.165 154.957 215.178 156.003C214.609 156.377 214.609 156.377 213.802 156.353C212.803 155.987 212.397 155.559 211.726 154.741C211.529 154.505 211.331 154.269 211.127 154.026C210.684 153.433 210.684 153.433 210.684 153.105Z" fill="#F8F8F6"/>
<path d="M240.454 160.63C241.061 161.206 241.562 161.779 242.069 162.45C243.219 163.808 244.283 163.992 246.016 164.229V164.556C243.101 164.556 240.186 164.556 237.183 164.556L237.837 164.229C237.837 164.013 237.837 163.797 237.837 163.574C238.375 163.022 238.921 162.477 239.473 161.938C239.809 161.509 240.14 161.076 240.454 160.63Z" fill="#F5F4F3"/>
<path d="M222.249 153.073C222.666 153.075 222.666 153.075 223.092 153.077C223.383 153.079 223.674 153.082 223.974 153.085C224.268 153.086 224.561 153.088 224.863 153.089C225.589 153.093 226.315 153.099 227.041 153.105C226.149 154.037 225.174 154.684 224.097 155.395C223.547 155.826 223 156.26 222.461 156.704C222.265 156.454 222.07 156.205 221.868 155.948C221.205 155.097 221.205 155.097 220.58 154.516C220.171 154.087 220.171 154.087 220.171 153.433C220.939 153.048 221.394 153.068 222.249 153.073Z" fill="#F7F6F5"/>
<path d="M240.781 115.156H241.108V139.365C241 139.365 240.892 139.365 240.781 139.365C240.776 139.053 240.776 139.053 240.771 138.734C240.736 136.574 240.698 134.415 240.659 132.255C240.645 131.448 240.632 130.641 240.619 129.834C240.6 128.677 240.579 127.519 240.558 126.362C240.552 125.999 240.547 125.636 240.541 125.262C240.535 124.928 240.528 124.594 240.521 124.249C240.516 123.954 240.511 123.658 240.506 123.353C240.528 122.683 240.528 122.683 240.127 122.354C240.045 121.272 240.066 120.186 240.066 119.102C240.062 118.797 240.058 118.492 240.053 118.178C240.053 117.886 240.052 117.595 240.052 117.294C240.05 116.891 240.05 116.891 240.047 116.48C240.127 115.811 240.127 115.811 240.781 115.156Z" fill="#F0EFED"/>
<path d="M292.471 152.778H292.798V161.284C292.582 161.284 292.366 161.284 292.144 161.284V164.556C290.956 164.556 289.768 164.556 288.545 164.556C288.872 163.574 288.872 163.574 289.629 163.124C290.838 162.393 291.628 161.685 291.993 160.277C292.237 158.606 292.068 157.33 291.489 155.723C291.381 155.399 291.273 155.075 291.162 154.741C291.776 153.698 291.776 153.698 292.471 152.778Z" fill="#F6F5F3"/>
<path d="M203.486 159.321C203.828 159.834 204.17 160.348 204.505 160.865C205.603 162.497 206.506 163.386 208.496 163.799L209.375 163.901C208.54 164.705 208.113 164.879 206.937 164.979C205.787 164.947 204.636 164.915 203.486 164.883C203.486 163.048 203.486 161.212 203.486 159.321Z" fill="#F7F6F5"/>
<path d="M252.231 152.778H269.897V153.76C269.574 153.868 269.25 153.976 268.916 154.087C268.916 153.871 268.916 153.655 268.916 153.433C265.844 153.4 262.812 153.39 259.756 153.76C259.756 153.652 259.756 153.544 259.756 153.433C258.352 153.433 256.949 153.433 255.503 153.433C255.813 153.682 256.124 153.932 256.443 154.189C257.193 154.792 257.568 155.222 258.12 156.05V157.031C257.904 157.031 257.688 157.031 257.466 157.031C257.284 156.68 257.101 156.33 256.914 155.968C256.264 154.846 255.65 154.115 254.521 153.433C253.314 153.17 253.314 153.17 252.231 153.105C252.231 152.998 252.231 152.89 252.231 152.778Z" fill="#EDECEB"/>
<path d="M270.879 152.451H292.798C292.69 153.207 292.582 153.963 292.471 154.741C291.423 154.741 290.804 154.498 289.854 154.087C289.854 153.763 289.854 153.439 289.854 153.105C283.592 152.998 277.33 152.89 270.879 152.778C270.879 152.67 270.879 152.562 270.879 152.451Z" fill="#FDFCFC"/>
<path d="M142.637 166.191H150.488C150.38 166.407 150.272 166.623 150.161 166.846C150.138 167.404 150.134 167.963 150.141 168.522C150.144 168.82 150.147 169.118 150.15 169.425C150.153 169.653 150.157 169.882 150.161 170.117C150.053 170.117 149.945 170.117 149.834 170.117C149.834 169.146 149.834 168.174 149.834 167.173C147.675 167.173 145.516 167.173 143.291 167.173V170.117C143.075 170.333 142.859 170.549 142.637 170.771C142.637 169.26 142.637 167.749 142.637 166.191Z" fill="#F2F1EF"/>
<path d="M209.375 152.778C211.92 152.762 214.464 152.75 217.009 152.742C217.875 152.739 218.741 152.735 219.607 152.729C220.85 152.721 222.093 152.717 223.336 152.714C223.725 152.711 224.113 152.708 224.514 152.704C225.054 152.704 225.054 152.704 225.605 152.704C225.922 152.703 226.24 152.701 226.567 152.7C227.368 152.778 227.368 152.778 228.35 153.433C225.867 153.433 223.383 153.433 220.825 153.433C220.717 153.649 220.609 153.864 220.498 154.087C219.526 154.087 218.555 154.087 217.554 154.087C217.554 153.871 217.554 153.655 217.554 153.433C215.395 153.433 213.235 153.433 211.011 153.433C210.903 153.649 210.795 153.864 210.684 154.087C210.252 153.655 209.82 153.223 209.375 152.778Z" fill="#E8E6E5"/>
<path d="M208.946 157.133L209.702 157.358C209.907 158.463 209.907 158.463 210.029 159.648C209.813 159.864 209.597 160.08 209.375 160.303C207.553 160.117 207.553 160.117 207.085 159.648C206.987 158.721 206.968 158.197 207.473 157.399C208.066 157.031 208.066 157.031 208.946 157.133Z" fill="#E8E7E6"/>
<path d="M203.813 152.778H208.394C208.286 153.102 208.178 153.426 208.066 153.76C207.31 154.107 207.31 154.107 206.431 154.414C205.41 154.878 204.744 155.352 203.813 156.05C203.813 154.97 203.813 153.891 203.813 152.778Z" fill="#F3F2F0"/>
<path d="M286.909 157.358C287.932 157.481 287.932 157.481 288.872 157.686C289.097 158.422 289.097 158.422 289.199 159.321C288.729 160.078 288.729 160.078 288.218 160.63C287.28 160.442 286.955 160.348 286.255 159.648C286.173 158.831 286.173 158.831 286.255 158.013L286.909 157.358Z" fill="#F1F1EF"/>
<path d="M289.526 96.1816H289.854C290.126 99.5711 290.221 102.924 290.181 106.323C289.857 106.323 289.533 106.323 289.199 106.323C289.191 104.984 289.185 103.645 289.181 102.306C289.18 101.85 289.177 101.394 289.175 100.939C289.171 100.284 289.169 99.6297 289.167 98.9752C289.166 98.5811 289.164 98.1871 289.162 97.7811C289.199 96.8359 289.199 96.8359 289.526 96.1816Z" fill="#EEEDEC"/>
<path d="M227.184 157.297C228.022 157.358 228.022 157.358 228.677 158.013C228.759 158.831 228.759 158.831 228.677 159.648C228.022 160.303 228.022 160.303 227.184 160.364C226.387 160.303 226.387 160.303 226.06 159.976C226.019 158.831 226.019 158.831 226.06 157.686C226.387 157.358 226.387 157.358 227.184 157.297Z" fill="#E5E5E3"/>
<path d="M235.874 157.358C237.142 157.645 237.142 157.645 237.51 158.013C237.571 158.974 237.571 158.974 237.51 159.976C237.294 160.192 237.078 160.407 236.855 160.63C235.997 160.507 235.997 160.507 235.22 160.303C234.995 159.751 234.995 159.751 234.893 158.994C235.363 158.094 235.363 158.094 235.874 157.358Z" fill="#F7F7F6"/>
<path d="M244.707 157.358C245.864 157.534 245.864 157.534 246.343 158.013C246.404 158.974 246.404 158.974 246.343 159.976C246.127 160.192 245.911 160.407 245.688 160.63C244.83 160.507 244.83 160.507 244.053 160.303C244.012 159.199 244.012 159.199 244.053 158.013L244.707 157.358Z" fill="#DFDEDD"/>
<path d="M270.879 152.778H285.273V153.105C285.005 153.121 284.737 153.138 284.461 153.154C284.108 153.178 283.756 153.203 283.392 153.228C282.869 153.262 282.869 153.262 282.334 153.297C281.397 153.426 280.866 153.667 280.039 154.087C278.812 153.964 278.812 153.964 277.749 153.76C277.749 153.652 277.749 153.544 277.749 153.433C275.482 153.325 273.215 153.217 270.879 153.105C270.879 152.998 270.879 152.89 270.879 152.778Z" fill="#E7E5E4"/>
<path d="M252.886 157.358C254.425 157.589 254.425 157.589 254.849 158.013C254.862 158.558 254.863 159.103 254.849 159.648C254.309 159.864 253.769 160.08 253.213 160.303C252.702 159.914 252.702 159.914 252.231 159.321C252.369 157.875 252.369 157.875 252.886 157.358Z" fill="#E0E0DE"/>
<path d="M241.763 52.0166H252.231V52.3438C249.856 52.4517 247.481 52.5597 245.034 52.6709V52.998C243.631 52.998 242.227 52.998 240.781 52.998L241.763 52.6709C241.763 52.455 241.763 52.2391 241.763 52.0166Z" fill="#35322E"/>
<path d="M297.051 151.797H297.378V164.556H298.032V165.21C297.6 165.21 297.169 165.21 296.724 165.21C296.832 160.784 296.94 156.357 297.051 151.797Z" fill="#EEEDEB"/>
<path d="M227.9 163.717C230.446 163.985 232.991 163.928 235.547 163.901V164.556C234.26 164.572 232.974 164.584 231.687 164.592C231.034 164.597 230.382 164.605 229.729 164.613C229.319 164.615 228.909 164.617 228.486 164.62C228.108 164.623 227.729 164.626 227.339 164.63C226.387 164.556 226.387 164.556 225.405 163.901C226.429 163.56 226.855 163.586 227.9 163.717Z" fill="#E4E3E1"/>
<path d="M223.77 183.857C224.332 184.355 224.332 184.355 224.751 184.839C224.55 184.827 224.349 184.816 224.141 184.804C223.745 184.791 223.745 184.791 223.34 184.778C223.078 184.766 222.816 184.755 222.547 184.743C221.786 184.779 221.786 184.779 221.234 185.278C220.706 185.978 220.614 186.597 220.498 187.456C220.13 186.904 220.13 186.904 219.844 186.147C220.417 183.958 221.642 183.667 223.77 183.857Z" fill="#F1F0EF"/>
<path d="M150.488 166.191H151.47V170.771C151.146 170.933 151.146 170.933 150.815 171.099C150.457 170.024 150.456 169.222 150.468 168.093C150.471 167.737 150.474 167.382 150.477 167.016C150.481 166.744 150.484 166.472 150.488 166.191Z" fill="#32302D"/>
<path d="M277.749 157.686C278.297 157.779 278.843 157.888 279.385 158.013V159.648C278.737 159.972 278.737 159.972 278.076 160.303C277.422 159.648 277.422 159.648 277.361 158.81C277.422 158.013 277.422 158.013 277.749 157.686Z" fill="#E3E2E2"/>
<path d="M292.471 152.778H292.798C292.815 153.528 292.828 154.278 292.839 155.027C292.846 155.445 292.854 155.862 292.862 156.293C292.798 157.358 292.798 157.358 292.144 158.013C292.042 157.655 291.941 157.297 291.837 156.929C291.626 156.196 291.403 155.465 291.162 154.741C291.776 153.698 291.776 153.698 292.471 152.778Z" fill="#EFEFED"/>
<path d="M203.813 162.266H204.141V164.229H206.104C206.104 164.013 206.104 163.797 206.104 163.574L209.375 163.901C207.884 165.02 207.621 164.974 205.858 164.781C205.284 164.722 205.284 164.722 204.698 164.662C204.406 164.627 204.114 164.592 203.813 164.556C203.813 163.8 203.813 163.044 203.813 162.266Z" fill="#ECEAE8"/>
<path d="M285.601 154.087L286.255 154.414C285.807 155.379 285.313 156.221 284.619 157.031C284.403 157.031 284.187 157.031 283.965 157.031C283.857 157.463 283.749 157.895 283.638 158.34C283.422 158.232 283.206 158.124 282.983 158.013C283.681 156.484 284.3 155.202 285.601 154.087Z" fill="#201E1B"/>
<path d="M92.2559 166.191H92.9102V171.426C92.6942 171.426 92.4783 171.426 92.2559 171.426C92.1924 170.615 92.1314 169.804 92.0718 168.993C92.0535 168.761 92.0351 168.53 92.0162 168.292C91.9739 167.701 91.9499 167.11 91.9287 166.519L92.2559 166.191Z" fill="#CECDCB"/>
<path d="M269.897 157.686H271.206C271.411 158.299 271.411 158.299 271.533 158.994C271.317 159.21 271.101 159.426 270.879 159.648C270.02 159.526 270.02 159.526 269.243 159.321C269.529 158.054 269.529 158.054 269.897 157.686Z" fill="#D8D8D6"/>
<path d="M276.768 153.433L277.422 154.087C277.165 154.161 276.909 154.235 276.645 154.312C275.721 154.666 275.721 154.666 275.377 155.559C275.296 155.829 275.215 156.099 275.132 156.377C275.024 156.593 274.916 156.809 274.805 157.031C274.589 157.031 274.373 157.031 274.15 157.031C274.042 156.599 273.934 156.168 273.823 155.723H274.478C274.585 155.399 274.693 155.075 274.805 154.741C275.445 154.284 276.098 153.846 276.768 153.433Z" fill="#ECECEB"/>
<path d="M248.96 109.922L249.614 110.249V111.23C248.182 111.06 246.772 110.885 245.361 110.576C246.687 109.692 247.384 109.847 248.96 109.922Z" fill="#F2F1F0"/>
<path d="M217.881 157.686L219.844 158.013C219.628 158.445 219.412 158.876 219.189 159.321C218.65 159.321 218.11 159.321 217.554 159.321C217.662 158.781 217.77 158.242 217.881 157.686Z" fill="#CFCDCB"/>
<path d="M263.354 153.76V154.741C262.275 154.741 261.195 154.741 260.083 154.741C260.083 154.525 260.083 154.309 260.083 154.087C261.135 153.561 262.189 153.741 263.354 153.76Z" fill="#353431"/>
<path d="M207.739 158.34L208.394 159.321L209.375 159.648C209.483 159.433 209.591 159.217 209.702 158.994C209.594 159.426 209.486 159.858 209.375 160.303C208.403 160.141 208.403 160.141 207.412 159.976C207.52 159.436 207.628 158.896 207.739 158.34Z" fill="#F8F7F6"/>
<path d="M241.436 233.911H243.071V236.201C242.747 236.201 242.424 236.201 242.09 236.201C242.09 235.553 242.09 234.906 242.09 234.238C241.874 234.13 241.658 234.022 241.436 233.911Z" fill="#34322F"/>
<path d="M105.015 196.943C106.303 197.373 107.052 197.898 107.959 198.906C106.987 198.582 106.016 198.258 105.015 197.925C105.015 197.601 105.015 197.277 105.015 196.943Z" fill="#1E1C1A"/>
<path d="M286.909 157.358C287.566 157.452 288.221 157.561 288.872 157.686C288.656 157.901 288.44 158.117 288.218 158.34C287.894 158.34 287.57 158.34 287.236 158.34C287.128 158.556 287.02 158.772 286.909 158.994C286.693 158.994 286.477 158.994 286.255 158.994C286.541 157.726 286.541 157.726 286.909 157.358Z" fill="#CFCDCC"/>
<path d="M235.874 157.358L237.183 157.686C236.643 158.225 236.103 158.765 235.547 159.321C235.331 159.213 235.115 159.105 234.893 158.994C235.216 158.454 235.54 157.915 235.874 157.358Z" fill="#C1C1BF"/>
<path d="M284.292 162.92C285.246 163.271 285.855 163.502 286.582 164.229C286.042 164.336 285.502 164.444 284.946 164.556C284.73 164.016 284.514 163.476 284.292 162.92Z" fill="#E9E8E7"/>
<path d="M109.922 208.066L110.576 208.394C110.709 209.153 110.82 209.917 110.903 210.684C110.579 210.684 110.256 210.684 109.922 210.684C109.922 209.82 109.922 208.956 109.922 208.066Z" fill="#EAEAE8"/>
<path d="M297.051 161.611H297.378V164.556H298.032V165.21C297.6 165.21 297.169 165.21 296.724 165.21L297.051 161.611Z" fill="#E3E2E0"/>
</svg>
