<?xml version="1.0" encoding="utf-8" ?><svg xmlns="http://www.w3.org/2000/svg" xmlns:xlink="http://www.w3.org/1999/xlink" width="922" height="922" viewBox="0 0 922 922"><path transform="scale(1.80078 1.80078)" d="M273.423 50.5775C281.396 49.3612 288.099 54.6066 284.107 63.0123C281.377 68.9314 272.069 65.6494 269.502 71.6075C264.621 82.9338 281.36 89.4591 284.924 77.4416C285.466 75.6165 285.571 73.9358 286.309 72.1063C288.274 67.2331 293.082 66.1764 297.613 68.1864C304.832 71.55 301.976 82.2301 298.97 87.6164C295.807 93.4062 290.448 97.6797 284.099 99.4737C285.937 100.757 288.169 102.077 290.186 103.128C321.304 119.3 366.239 138.071 369.149 178.727C370.284 194.575 362.944 214.866 352.339 226.631C348.799 227.027 342.376 226.827 338.621 226.825L313.875 226.807L238.818 226.804L216.184 226.815C211.385 226.834 206.241 227.007 201.481 226.742C200.181 225.323 198.013 222.181 196.895 220.561C187.724 207.272 182.359 187.464 185.74 171.354C191.768 142.627 220.078 125.701 244.056 113.096C251.021 109.434 263.249 103.972 269.383 99.8309L269.723 99.5996C266.826 98.3213 265.72 98.1654 262.813 96.2547C257.429 92.6605 253.671 87.0973 252.346 80.7613C250.964 73.9577 252.382 66.8843 256.279 61.1388C260.59 54.8324 266.113 51.9676 273.423 50.5775Z"/><path transform="scale(1.80078 1.80078)" d="M201.739 243.365L352.498 243.376L352.518 310.486C352.518 323.529 352.825 337.772 352.418 350.698C335.222 352.258 327.682 352.25 310.508 350.329L310.489 344.812L310.515 322.734C310.527 308.971 311.623 298.21 301.14 287.322C294.963 280.86 286.422 277.189 277.482 277.154C268.508 276.958 259.832 280.382 253.411 286.656C241.662 298.245 243.339 311.551 243.281 326.895C240.87 324.871 234.418 321.107 231.236 318.799C222.239 312.332 213.921 304.968 206.411 296.82C201.978 292.074 200.65 290.311 201.382 283.357C201.891 278.528 200.694 245.064 201.739 243.365Z"/><path transform="scale(1.80078 1.80078)" d="M411.295 260.227C421.49 260.17 431.685 260.168 441.88 260.222L443.141 260.662C442.98 262.072 443.317 265.513 443.323 267.227L443.27 294.519C443.282 299.432 443.305 304.349 443.221 309.261C443.211 309.839 442.239 311.134 442.015 312.153C436.394 317.586 426.008 323.985 419.325 328.172C416.894 329.696 414.043 330.976 411.531 332.627L411.266 332.805C411.617 308.848 411.182 284.278 411.295 260.227Z"/><path transform="scale(1.80078 1.80078)" d="M427.652 202.448C428.754 202.467 431.234 204.584 432.423 205.277C435.531 207.087 438.686 208.849 441.628 210.923C443.344 212.115 444.968 213.434 446.485 214.87C456.326 224.369 454.368 233.349 445.731 242.33C445.428 242.644 444.597 243.295 444.159 243.346C439.199 243.92 433.911 243.618 428.875 243.601C423.442 243.623 416.515 243.866 411.272 243.443C410.765 242.942 410.011 242.019 409.553 241.424C406.097 236.943 402.422 233.215 403.104 227.157C404.076 218.517 410.886 212.879 417.856 208.65C420.728 206.908 424.857 204.746 427.359 202.691L427.652 202.448Z"/><path transform="scale(1.80078 1.80078)" d="M275.769 293.846C280.165 293.561 284.781 294.997 288.09 297.947C290.555 300.154 292.307 303.047 293.121 306.255C294.152 310.282 293.667 315.678 293.784 319.891C294.027 328.657 293.349 338.6 293.826 347.208C289.743 346.295 285.698 345.222 281.699 343.99C274.123 341.793 267.322 338.82 260.099 335.799C260.173 330.33 260.195 324.86 260.167 319.39C260.161 315.773 259.96 310.191 260.705 306.801C261.255 304.25 262.389 301.861 264.018 299.823C267.164 295.902 270.915 294.398 275.769 293.846Z"/><path transform="scale(1.80078 1.80078)" d="M454.106 142.604C459.949 142.504 468.949 141.863 469.921 149.827C470.208 152.197 469.499 154.581 467.961 156.408C466.061 158.689 464 159.376 461.185 159.638C455.29 159.842 445.811 160.485 444.899 152.301C444.625 149.904 445.353 147.501 446.911 145.658C449.049 143.161 451.132 142.89 454.106 142.604Z"/><path transform="scale(1.80078 1.80078)" d="M392.9 25.3609C396.44 25.0063 403.908 24.7266 406.947 26.3231C408.887 27.3369 410.318 29.1114 410.898 31.222C411.529 33.5155 411.174 35.9683 409.918 37.9886C408.501 40.2786 406.736 41.2302 404.226 41.8645C400.23 42.1862 393.783 42.715 390.261 40.7503C383.366 36.9032 385.321 27.1042 392.9 25.3609Z"/><path transform="scale(1.80078 1.80078)" d="M434.915 25.3573C438.5 25.0052 445.97 24.7081 449.055 26.3951C450.935 27.4209 452.315 29.1699 452.875 31.2372C453.496 33.5236 453.141 35.9651 451.896 37.9807C450.493 40.2586 448.733 41.2228 446.239 41.8659C442.362 42.2596 435.549 42.6592 432.175 40.7076C425.353 36.7621 427.315 27.0847 434.915 25.3573Z"/><path transform="scale(1.80078 1.80078)" d="M477.277 159.565C484.532 158.97 487.096 164.662 486.959 170.858C486.815 177.357 487.118 182.247 479.877 184.681C469.033 185.54 469.592 174.903 470.133 167.481C470.47 162.855 473.085 160.509 477.277 159.565Z"/><path transform="scale(1.80078 1.80078)" d="M477.324 117.581C485.299 116.924 487.244 123.757 486.964 130.133C486.698 136.205 486.632 140.468 479.915 142.682C468.899 143.532 469.6 132.741 470.167 125.208C470.502 120.759 473.336 118.464 477.324 117.581Z"/><path transform="scale(1.80078 1.80078)" d="M418.676 42.0745C427.226 41.966 428.259 47.8652 428.103 54.7713C427.965 60.8629 427.94 65.1428 421.073 67.0584C412.091 67.4195 410.984 61.4275 411.213 54.1688C411.41 47.9307 411.44 43.559 418.676 42.0745Z"/><path transform="scale(1.80078 1.80078)" d="M485.605 42.1047C490.106 41.4668 494.294 44.5353 495.042 49.0189C495.79 53.5026 492.826 57.7647 488.362 58.623C485.375 59.1972 482.312 58.1072 480.359 55.7754C478.406 53.4435 477.871 50.2364 478.961 47.3968C480.05 44.5572 482.594 42.5315 485.605 42.1047Z"/><path transform="scale(1.80078 1.80078)" d="M325.768 25.3631C330.307 24.5185 334.674 27.5071 335.53 32.0444C336.386 36.5817 333.408 40.9559 328.873 41.8232C324.322 42.6935 319.929 39.703 319.07 35.1496C318.211 30.5962 321.212 26.2107 325.768 25.3631Z"/><path transform="scale(1.80078 1.80078)" d="M441.88 260.222C442.87 260.194 443.771 260.065 444.656 260.483C444.993 261.109 445.069 306.117 444.714 309.757C443.634 310.906 443.34 311.222 442.015 312.153C442.239 311.134 443.211 309.839 443.221 309.261C443.305 304.349 443.282 299.432 443.27 294.519L443.323 267.227C443.317 265.513 442.98 262.072 443.141 260.662L441.88 260.222Z"/><path transform="scale(1.80078 1.80078)" d="M0 245.289C1.26348 241.651 1.58019 231.129 2.19332 226.621C3.74248 215.077 6.0819 203.652 9.1951 192.427C27.7283 126.35 72.3582 70.6632 132.812 38.1834C161.869 22.5975 193.712 12.8919 226.522 9.62149C231.735 9.12191 236.961 8.7764 242.193 8.58541C245.255 8.48158 248.707 8.55666 251.708 8.31906C205.359 31.2817 170.29 69.2441 153.673 118.563C137.465 166.429 141 218.78 163.495 264.032C185.677 308.513 224.557 342.412 271.646 358.326C319.259 374.48 371.345 371.009 416.392 348.68C446.078 333.969 471.408 311.764 489.877 284.259C493.138 279.347 496.191 274.298 499.026 269.128C500.551 266.364 502.223 262.85 503.867 260.256L503.806 260.644C503.162 264.929 503.349 272.461 503.05 277.149C502.348 287.394 501.035 297.588 499.117 307.676C487.245 369.178 452.915 424.063 402.806 461.647C372.364 484.537 337.13 500.231 299.751 507.55C295.175 508.432 290.372 509.174 285.903 509.858C282.087 510.443 268.933 511.117 266.61 512L237.362 512C235.495 511.361 228.267 510.884 225.919 510.669C220.363 510.16 215.704 509.549 210.22 508.605C183.186 504.109 157.076 495.195 132.936 482.222C72.4118 449.727 27.723 393.995 9.15766 327.856C6.10217 316.804 3.78847 305.561 2.23199 294.201C1.76611 290.623 1.39683 287.032 1.12457 283.434C0.936535 281.218 0.717766 277.105 0 275.089L0 245.289Z"/><path transform="scale(1.80078 1.80078)" d="M512 152.996C508.519 159.775 506.246 159.377 499.341 159.792C492.867 160.181 485.007 157.039 487.103 148.971C487.684 146.72 489.185 144.816 491.238 143.724C494.312 142.086 502.656 142.29 506.167 143.166C509.149 143.911 510.664 146.581 512 149.081L512 152.996Z"/><path transform="scale(1.80078 1.80078)" d="M417.319 0L421.772 0C423.737 1.15864 425.32 1.82865 426.662 3.83851C428.296 6.27539 428.081 9.36783 428.082 12.1787C428.083 16.5831 428.508 20.9611 424.29 23.7183C422.299 25.0152 419.861 25.4316 417.553 24.8689C410.927 23.3058 411.136 17.1154 411.226 11.7159C411.333 5.26576 411.462 3.39039 417.319 0Z"/></svg>