<svg width="163" height="203" viewBox="0 0 163 203" fill="none" xmlns="http://www.w3.org/2000/svg">
<path d="M78.8486 3.40899C75.3789 6.87871 67.9088 11.8996 54.8871 19.4514C43.7023 25.9418 40.2734 28.0236 34.1504 32.1873C20.8021 41.2086 12.3523 49.9441 8.02539 59.2104C5.86191 63.823 5.16797 66.7213 4.88223 71.9463C4.6373 77.3754 5.53535 82.3963 7.73965 87.8254C9.20918 91.4584 12.883 97.3365 14.6791 99.051L15.7404 99.9898L13.1687 102.929C6.2293 110.93 2.22891 119.747 1.08594 129.911C0.841016 132.075 0.677734 146.198 0.677734 164.486V195.428H14.3525C21.8635 195.428 28.0273 195.346 28.0273 195.264C28.0273 195.183 27.4967 193.958 26.8436 192.489C22.5574 183.1 24.2311 171.466 30.9664 163.629C33.5381 160.608 36.967 158.24 43.4982 154.893L50.0295 151.505L40.2326 141.749C28.4764 129.993 27.8232 129.013 27.8232 122.972C27.8232 119.624 27.9457 119.012 29.1703 116.563C32.2318 110.317 39.0488 106.766 45.4984 108.113C49.2947 108.889 51.5398 110.317 56.4383 115.093L61.0102 119.543L62.9287 115.624C64.8473 111.705 68.5619 106.358 70.6437 104.439C71.2152 103.868 71.7051 103.255 71.7051 102.97C71.7051 102.725 70.5213 101.745 69.0926 100.806C63.99 97.459 60.357 92.3564 58.8467 86.4783C58.2752 84.274 58.1936 82.0697 58.316 72.8035L58.4793 61.7412L59.7447 58.3939C63.9492 47.3725 73.4604 40.6779 84.9717 40.6779C92.6051 40.6779 98.6873 43.168 103.994 48.4338C107.464 51.9035 109.546 55.2916 110.974 59.9043C111.872 62.7617 111.913 63.6189 111.913 73.375C111.913 81.9064 111.75 84.274 111.178 86.6008C110.158 90.642 108.321 93.7852 105.341 96.6834L102.729 99.1734L105.341 101.99C111.791 108.807 116.362 118.032 118.036 127.421C118.526 130.279 118.648 134.361 118.648 146.607C118.648 163.343 118.485 164.813 116.403 169.507C115.832 170.813 115.383 171.915 115.383 171.997C115.383 172.079 116.852 172.16 118.608 172.16C124.894 172.16 130.323 174.854 134.405 179.957C136.528 182.61 136.773 182.814 139.589 183.631C145.508 185.345 146.325 185.672 147.998 187.1C149.917 188.774 151.427 191.182 152.121 193.672L152.57 195.428H157.673H162.775L162.612 161.833C162.489 132.156 162.367 127.952 161.755 125.421C159.632 116.481 156.081 109.542 150.447 103.092C149.1 101.623 148.039 100.276 148.039 100.112C148.039 99.949 148.733 99.051 149.59 98.0713C153.427 93.6627 157.224 85.3762 158.203 79.0898C159.673 69.9869 157.632 61.6596 151.754 52.7607C149.182 48.842 140.651 40.3922 134.977 36.1469C128.813 31.5342 122.486 27.5338 109.056 19.6963C95.0135 11.5322 88.1557 6.96036 84.5635 3.36817L81.7061 0.510746L78.8486 3.40899ZM123.669 47.699C124.731 48.1889 125.588 49.6176 125.588 50.883C125.588 52.3117 123.996 53.7813 122.486 53.7813C120.567 53.7813 119.628 53.2098 119.097 51.7402C118.608 50.2299 119.057 48.8012 120.363 47.9031C121.424 47.1275 122.322 47.0867 123.669 47.699ZM36.8037 61.7412C37.7018 62.5984 37.8242 63.0883 37.8242 65.7416C37.8242 68.1908 37.6609 68.8848 37.0078 69.6195C35.8648 70.8441 34.477 71.0891 33.0074 70.3543C31.4562 69.5787 31.293 69.048 31.293 65.5783C31.293 63.0883 31.4154 62.5984 32.3135 61.7412C32.9258 61.0881 33.783 60.7207 34.5586 60.7207C35.3342 60.7207 36.1914 61.0881 36.8037 61.7412ZM29.9459 71.8238C31.1705 73.2117 31.4154 74.3955 30.7215 75.7426C29.9459 77.2529 29.4152 77.457 25.9455 77.457C23.4555 77.457 22.9656 77.3346 22.1084 76.4365C21.4553 75.8242 21.0879 74.967 21.0879 74.1914C21.0879 73.4158 21.4553 72.5586 22.1084 71.9463C22.9656 71.0482 23.4555 70.9258 26.1088 70.9258C28.6805 70.9258 29.2111 71.0482 29.9459 71.8238ZM47.0088 71.9463C47.6619 72.5586 48.0293 73.4158 48.0293 74.1914C48.0293 74.967 47.6619 75.8242 47.0088 76.4365C46.1516 77.3346 45.6617 77.457 43.1309 77.457C39.7428 77.457 38.9264 77.1305 38.2324 75.416C37.8242 74.4363 37.8242 73.9465 38.2324 72.9668C38.9672 71.2523 39.6203 70.9666 43.0492 70.9258C45.6617 70.9258 46.1516 71.0482 47.0088 71.9463ZM36.5588 78.5184C37.7834 79.5389 37.8242 79.7022 37.8242 82.6004C37.8242 85.2945 37.7018 85.7844 36.8037 86.6416C36.1914 87.2947 35.3342 87.6621 34.5586 87.6621C33.783 87.6621 32.9258 87.2947 32.3135 86.6416C31.4154 85.7844 31.293 85.2945 31.293 82.6412C31.293 79.5797 31.6195 78.7633 33.1299 77.9469C34.3953 77.2529 35.2117 77.3754 36.5588 78.5184ZM141.304 125.829C143.345 127.829 141.998 131.34 139.14 131.34C137.181 131.34 135.793 130.034 135.793 128.197C135.793 126.401 137.303 124.809 139.059 124.809C139.834 124.809 140.691 125.176 141.304 125.829Z" fill="black"/>
<path d="M80.3998 47.8215C74.6441 49.2502 69.7865 53.1281 67.2557 58.4348C66.3576 60.2309 65.5412 62.2311 65.4187 62.8434L65.1738 63.9863H85.0125H104.892L104.647 62.5576C104.525 61.782 103.79 59.9043 103.055 58.3939C99.0547 50.2299 89.2578 45.6988 80.3998 47.8215Z" fill="black"/>
<path d="M64.8472 77.7428C65.0105 83.5393 65.1738 84.968 65.9494 86.8457C67.7455 91.4992 71.2969 95.0098 75.9095 96.6834L78.2363 97.5814V100.153C78.2363 101.582 78.2771 102.766 78.3588 102.766C78.3996 102.766 82.1959 101.582 86.8086 100.194C94.7277 97.7855 95.1767 97.5814 95.3808 96.5609C95.5441 95.7854 96.2789 95.0098 98.075 93.8668C101.055 91.9074 102.851 89.8256 104.035 86.8457C104.77 84.968 104.933 83.5393 105.096 77.7428L105.259 70.9258H84.9717H64.684L64.8472 77.7428Z" fill="black"/>
<path d="M85.4207 107.582L73.6236 111.175L72.1541 113.216C69.7865 116.522 66.031 124.604 66.6433 125.176C66.725 125.258 68.8885 123.339 71.3785 120.89C76.1953 116.236 78.1547 114.971 81.9918 114.154C86.4004 113.216 91.8703 114.889 95.2992 118.237C96.2789 119.216 97.6668 121.216 98.3607 122.686C99.5445 125.135 99.667 125.829 99.667 129.095C99.667 135.177 99.0547 136.075 86.931 148.117C77.9098 157.057 76.5219 158.24 74.1543 159.302C72.1541 160.2 70.6846 160.526 68.0721 160.649C63.7043 160.894 61.0101 160.281 57.6629 158.24L54.9687 156.608L47.4986 160.404C41.0082 163.67 39.7428 164.486 37.3752 166.813C33.1707 171.017 31.3338 175.507 31.293 181.59C31.2521 191.427 38.559 200.163 48.1926 201.918C49.7846 202.204 60.7244 202.367 79.7467 202.367H108.852L108.77 192.285L108.647 182.161L85.8697 181.957L63.0512 181.753L62.2756 180.773C61.2142 179.467 61.2959 177.63 62.5205 176.446L63.5002 175.426H83.4205H103.3L106.035 172.65C109.056 169.548 110.974 165.996 111.668 162.2C112.24 159.138 112.24 134.646 111.709 130.728C110.362 121.461 106.606 113.297 100.483 106.521C99.218 105.133 97.9525 103.99 97.7076 104.031C97.4219 104.031 91.9111 105.623 85.4207 107.582Z" fill="black"/>
<path d="M40.1101 115.216C34.1912 117.298 32.7625 125.013 37.416 129.503L38.6814 130.687L44.6004 124.809L50.5193 118.89L48.7232 117.175C46.1107 114.726 43.2941 114.073 40.1101 115.216Z" fill="black"/>
<path d="M81.1346 121.543C79.9916 122.074 77.1342 124.564 72.9705 128.687L66.5617 134.973L60.8877 129.299L55.1729 123.584L49.2539 129.503L43.335 135.422L51.4582 143.545C61.051 153.179 62.2756 153.995 66.8066 153.995C71.501 153.995 72.3174 153.424 82.849 142.81C92.85 132.769 93.1766 132.238 92.85 128.238C92.3602 122.523 86.4412 119.135 81.1346 121.543Z" fill="black"/>
<path d="M115.383 190.488V202.367H128.241C140.12 202.367 141.263 202.286 142.651 201.592C144.529 200.612 145.59 198.857 145.59 196.652C145.59 193.264 144.12 191.795 139.589 190.693C134.772 189.509 132.895 188.407 129.507 184.61C125.547 180.283 123.261 179.059 118.608 178.773L115.383 178.569V190.488Z" fill="black"/>
</svg>
