<svg width="78" height="43" viewBox="0 0 78 43" fill="none" xmlns="http://www.w3.org/2000/svg">
<path d="M45.2689 13.5381C49.8488 11.0987 55.08 10.9605 59.6342 13.5029C61.9285 15.3583 63.3165 17.1159 63.7894 20.0801C63.9463 21.0635 63.867 21.724 63.8568 22.7188L63.8558 22.7256L63.8568 22.7334L63.8636 23.4365C63.8469 27.4416 62.0387 31.1955 59.2308 34.1065C55.8726 37.0913 52.158 38.3688 47.6869 38.3174C44.7178 38.107 42.3077 36.7615 40.2748 34.5332C39.4396 33.5222 38.7886 32.4751 38.1693 31.2862L37.6234 30.2373L36.9076 31.1778C36.7547 31.3787 36.7504 31.3839 36.6019 31.5791C35.2046 33.322 33.6112 34.469 31.5072 35.1924C29.5123 35.3956 27.8782 35.3369 26.3002 34.4131C25.3234 33.3902 24.7888 32.4052 24.6703 31.0567C24.6744 30.7881 24.6797 30.5189 24.684 30.2422V30.2363C24.6859 29.9582 24.6869 29.6798 24.6888 29.3936C24.6975 29.2629 24.7107 29.1362 24.724 29.0117C24.7771 29.1189 24.8439 29.2292 24.9349 29.333C25.2058 29.6419 25.5978 29.7705 25.8734 29.876L25.9691 29.9121L26.0717 29.9219C26.6427 29.9748 27.1963 30.0272 27.7396 29.9639C28.3144 29.8968 28.8521 29.7063 29.4437 29.3272L29.5824 29.2383L29.6713 29.1006C30.0482 28.5125 30.2616 27.9878 30.3373 27.4092C30.4097 26.8553 30.3473 26.2992 30.2621 25.6924L30.2445 25.5713L30.1898 25.4619L30.0853 25.2637C29.5434 24.2945 28.7501 23.664 27.9066 23.1973C27.0375 22.7165 26.0283 22.369 25.1947 22.0313L24.3734 21.6983L24.1801 22.5635C24.1397 22.745 24.0995 22.9266 24.058 23.1133C22.7857 28.294 20.2892 33.837 15.9291 36.8194C13.7395 37.9448 11.3797 38.0116 8.81091 37.6543C6.32365 36.7865 4.50695 34.7137 3.2699 32.2744C2.65932 30.8203 2.265 29.3269 1.89978 27.7403V27.7393L1.7406 27.0508C1.55858 26.19 1.46197 25.3591 1.41833 24.5098C2.98794 26.139 4.73249 27.2763 7.2699 27.5606L7.29724 27.5635L7.32361 27.5654C8.90767 27.6283 10.297 27.4683 11.6058 27.0147C12.915 26.5608 14.1044 25.826 15.306 24.791L15.3217 24.7783L15.3363 24.7637C19.0271 21.217 21.3304 16.9492 23.4838 12.5283C28.9756 13.7282 31.6671 14.3316 33.3646 15.0742C35.0154 15.7965 35.6813 16.626 37.222 18.583L37.2299 18.5928C37.3809 18.7782 37.5318 18.964 37.6869 19.1543C38.8698 20.9996 38.6833 22.9919 38.4623 25.4434L38.4613 25.4551L38.4603 25.4658C38.4123 26.2537 38.3737 26.7859 38.4779 27.293C38.5827 27.8033 38.8282 28.2663 39.1781 28.9483L39.2406 29.0713L39.3431 29.1641C41.5381 31.1402 44.114 32.3363 47.1888 32.1914L47.2269 32.1904L47.264 32.1846C49.7754 31.8117 52.3296 30.87 54.058 28.7246L54.0804 28.6963L54.1 28.667C55.6311 26.3432 56.5915 24.026 56.0541 21.0567L56.0453 21.0059L56.0287 20.9571L55.8588 20.4746C55.4413 19.3806 54.8818 18.4923 54.0668 17.5957L53.9603 17.4785L53.8148 17.4141L53.6078 17.3281C53.132 17.1415 52.6986 17.0571 52.2416 17.0772C51.746 17.099 51.2734 17.2437 50.7797 17.4082L50.6019 17.4668L50.473 17.6035C49.6826 18.4367 49.198 19.1876 48.9349 20.0508C48.6787 20.8918 48.6528 21.7802 48.6693 22.8262V22.8487L48.6713 22.8711C48.7108 23.3981 48.7589 23.9057 48.9349 24.3838C49.1212 24.8898 49.4289 25.3124 49.8988 25.7383L50.0609 25.8858L50.2767 25.9219C51.0157 26.0473 51.7796 26.1017 52.5502 25.9629C52.4962 26.1474 52.4311 26.3172 52.3539 26.4785C52.1435 26.9185 51.8283 27.3374 51.3529 27.8487C49.924 29.0701 48.2332 29.2071 46.1293 29.1455C44.5252 28.9487 43.4385 28.3048 42.2806 27.0957C40.8364 25.2322 40.4378 23.0997 40.7035 20.6875C41.3066 17.6419 42.7369 15.3016 45.2689 13.5381Z" stroke="#ffffff" stroke-width="1"/>
<path d="M76.1165 1.02832C75.6133 2.44445 75.672 3.76689 75.678 5.06445C75.6763 5.49557 75.6767 5.49761 75.675 5.94141C75.6729 6.57415 75.6717 7.20722 75.6721 7.83984L75.6633 10.8418C75.6491 13.692 75.6419 16.5425 75.6399 19.3926C75.6383 21.135 75.6304 22.878 75.6194 24.6211V24.6221C75.6164 25.2861 75.6158 25.9502 75.6174 26.6143C75.6282 31.1802 75.5709 34.5659 72.4973 37.7734C71.242 38.8275 69.8414 39.4709 68.2288 40.1553L68.218 40.1602L68.2063 40.165L67.3792 40.5488C66.8841 40.778 66.5374 40.9369 66.2815 41.0498C67.0354 38.3027 66.9304 35.5533 66.9133 32.873C66.9077 31.8933 66.9087 30.9129 66.9114 29.9307V29.9297C66.918 27.1353 66.9143 24.341 66.9026 21.5469C66.8959 19.8351 66.8979 18.123 66.9055 16.4102V16.4082C66.9066 15.7563 66.9046 15.1042 66.8987 14.4521C66.8601 10.1396 67.0142 7.19831 69.9133 4.14258C71.6588 2.72523 73.8716 1.80784 76.1165 1.02832Z" stroke="#ffffff" stroke-width="1"/>
<path d="M69.7805 16.3462C70.6002 15.9697 71.5965 15.902 72.8577 16.2612C73.2148 16.4884 73.3276 16.5652 73.4124 16.6499C73.4884 16.7259 73.549 16.8165 73.7278 17.1099C73.7844 17.5814 73.8079 17.7932 73.8079 17.9946C73.8079 18.1671 73.7896 18.336 73.7483 18.6646C73.7042 18.694 73.6597 18.723 73.6155 18.7525C73.5319 18.6271 73.4478 18.5004 73.3625 18.3726L73.1213 18.0112L72.6936 18.0962C72.187 18.1975 71.6804 18.2985 71.1584 18.4029L70.5208 18.5308L70.6487 19.1685C70.75 19.6751 70.8509 20.1817 70.9553 20.7036L71.0696 21.273L71.6477 21.2241C73.0921 21.1022 74.4538 20.9295 75.8655 20.4634C75.9855 20.7142 76.1072 20.9647 76.2258 21.2173L76.2278 21.2212C76.3393 21.4548 76.4499 21.6889 76.5647 21.9292C76.6399 22.1362 76.7236 22.3431 76.7864 22.5054C76.8591 22.6935 76.9122 22.8463 76.9446 22.9849C77.0026 23.2333 76.9912 23.4141 76.8674 23.6255C76.7626 23.8044 76.7049 23.8439 76.6155 23.8931C76.5423 23.9333 76.4573 23.9708 76.3059 24.0405C76.1633 24.1062 75.9873 24.1891 75.7747 24.3042L75.7737 24.3052C75.4931 24.458 75.2122 24.6107 74.9231 24.7681C74.637 24.9176 74.3507 25.0672 74.0559 25.2212L74.0432 25.228L74.0315 25.2349C73.7714 25.3857 73.5104 25.5356 73.2424 25.6909C71.6329 26.5848 70.3574 27.0955 68.7375 26.7144C67.4581 26.1056 66.5608 25.5748 66.0198 24.4995C66.0434 24.4966 66.0599 24.4946 66.0833 24.4917C66.133 24.4855 66.1624 24.482 66.2092 24.4761C66.276 24.4677 66.2631 24.4696 66.3284 24.4614C66.3501 24.4587 66.3351 24.4602 66.3567 24.4575C66.3603 24.4571 66.3822 24.4551 66.386 24.4546C66.4406 24.4478 66.3891 24.4536 66.4436 24.4468C66.4909 24.4409 66.4256 24.4498 66.4729 24.4439C66.4901 24.4417 66.4837 24.4421 66.5012 24.44L66.5598 24.4321C66.6089 24.426 66.569 24.4315 66.6184 24.4253L66.634 24.4234C66.6352 24.4232 66.6368 24.4225 66.6379 24.4224H66.6409C66.6421 24.4222 66.6436 24.4216 66.6448 24.4214C66.646 24.4213 66.6475 24.4216 66.6487 24.4214C66.6518 24.421 66.6745 24.4181 66.679 24.4175C66.7307 24.411 66.752 24.4087 66.8069 24.4019C66.8244 24.3997 66.8056 24.4022 66.8235 24.3999C66.8296 24.3992 66.8339 24.3978 66.8401 24.397C66.8414 24.3968 66.8427 24.3972 66.844 24.397C66.8454 24.3968 66.8475 24.3962 66.8489 24.396L66.8567 24.395L66.9094 24.3892C66.9122 24.3888 66.9408 24.3848 66.9446 24.3843C67.0905 24.3661 67.4183 24.3253 67.6809 24.2925L68.6838 24.1665L68.1545 23.3071C68.0118 23.0752 67.8684 22.8431 67.7219 22.605C67.1308 21.1848 67.0034 20.0172 67.5374 18.6421C68.1991 17.4815 68.9412 16.7318 69.7805 16.3462Z" stroke="#7FA283" stroke-width="1"/>
<path d="M55.6998 3.43941L55.7018 3.44429C55.8042 3.68279 55.9068 3.92123 56.0123 4.16695V4.16597C56.1557 4.50832 56.1566 4.51056 56.3043 4.86324L56.3053 4.86617C56.3902 5.06619 56.475 5.26623 56.5621 5.47164C56.6563 5.7674 56.681 5.85141 56.6959 5.99117C56.7092 6.11532 56.7119 6.27498 56.7135 6.56929C55.331 7.16527 54.279 7.61714 53.4332 7.94722C52.4941 8.31373 51.8525 8.51501 51.3346 8.6025C50.3875 8.76246 49.7985 8.56625 48.2799 8.00093C48.0024 7.81899 47.8655 7.67863 47.7653 7.53218C47.6409 7.3504 47.5441 7.12561 47.3688 6.69429L47.3668 6.69039L47.0436 5.90718C46.9381 5.64042 46.8329 5.37344 46.7242 5.09859L46.7194 5.08785C46.6078 4.81757 46.4955 4.54698 46.3805 4.26851C46.0956 3.56909 45.92 3.13595 45.8092 2.83785C48.5818 3.31348 50.9988 2.76246 53.5162 1.64547C53.9587 1.47125 54.0912 1.42281 54.2545 1.39644C54.3821 1.37588 54.5319 1.36988 54.8209 1.36715C55.1151 2.057 55.4085 2.74772 55.6998 3.43941Z" stroke="#ffffff" stroke-width="1"/>
<path d="M56.4331 39.5199C56.3541 39.6614 56.2717 39.7884 56.1802 39.9046C55.9202 40.2347 55.5686 40.5261 55.0112 40.8822C52.3486 42.019 50.0237 42.3612 47.1519 42.348C46.9713 41.9097 46.8516 41.5617 46.7944 41.1605C46.8579 41.1579 46.9217 41.1553 46.9858 41.1527H46.9937C50.1229 40.9901 53.1793 40.607 56.2192 39.5892L56.2202 39.5902C56.2999 39.5638 56.3704 39.5404 56.4331 39.5199Z" stroke="#7FA283" stroke-width="1"/>
<path d="M76.0881 9.73036C76.0091 9.87192 75.9267 9.9989 75.8352 10.1151C75.5752 10.4452 75.2236 10.7366 74.6663 11.0927C72.0036 12.2295 69.6787 12.5717 66.8069 12.5585C66.6263 12.1202 66.5066 11.7722 66.4495 11.371C66.5129 11.3684 66.5767 11.3658 66.6409 11.3632H66.6487C69.778 11.2006 72.8343 10.8175 75.8743 9.79969L75.8752 9.80067C75.9549 9.77427 76.0254 9.75095 76.0881 9.73036Z" stroke="#7FA283" stroke-width="1"/>
</svg>
