<svg height="512" viewBox="0 0 512 512" width="512" xmlns="http://www.w3.org/2000/svg"><path d="m388.299 132.08c.188.014.376.031.564.05 4.932.522 6.247 3.401 8.538 7.287 1.187 2.014 2.351 4.079 3.519 6.109l11.589 20.159 20.32 35.164c3.579 6.181 7.254 12.336 10.655 18.602 1.65 3.041 1.028 7.31-1.643 9.537-4.788 3.994-9.941 7.695-14.925 11.456l-29.821 22.572-66.557 50.378c-13.111 9.919-26.466 19.871-39.444 29.941 6.734 6.657 13.985 21.334 16.808 30.349 7.084 22.43 4.865 46.764-6.157 67.543-11.023 20.778-29.868 36.309-52.369 43.159-22.174 6.681-46.091 4.314-66.525-6.584-17.197-9.117-30.884-23.682-38.916-41.411-2.123-4.708-3.329-8.547-4.841-13.458-13.638-2.866-19.073-4.583-31.476-10.973.499 3.057.373 7.116.02 10.187-1.56 13.548-7.631 23.719-18.0266 32.208-3.4396 2.583-7.2797 4.779-10.9725 6.996l-14.3791 8.623-18.5786 11.141c-4.5079 2.713-13.6603 10.084-18.4358 5.325-9.7233-9.691 3.5814-15.092 10.3179-19.164l26.8861-16.149c4.8831-2.926 10.1948-5.87 14.8193-9.136 9.6835-6.84 13.8848-18.224 12.191-29.818-7.755 1.806-13.4901 2.383-21.3542.366-10.3103-2.625-19.1434-9.263-24.5335-18.436-5.4401-9.279-6.9284-20.353-4.1312-30.74 2.935-11.012 9.6889-19.161 19.4653-24.788-1.294-23.389 4.2104-44.386 18.4003-63.273 7.8076-10.414 17.7429-19.046 29.1446-25.322 6.62-3.57 15.152-6.909 22.145-9.855l33.693-14.216 110.895-46.766 81.307-34.289 17.27-7.328c3.91-1.667 10.614-4.89 14.538-5.446zm-252.137 272.608c-.992-24.27 6.745-46.647 23.287-64.58 15.796-17.066 37.733-27.147 60.971-28.018 16.959-.677 33.75 3.583 48.336 12.262 4.035 2.389 7.443 5.284 10.924 7.389l104-78.731 31.086-23.537 7.656-5.813c.855-.638 2.714-1.644 3.078-2.551.006-.867-.665-2.004-1.107-2.774-9.375-16.345-18.851-32.661-28.268-48.982l-7.38-12.839c-.75-1.303-2.948-5.938-4.318-5.943-6.85 2.597-14.427 6.003-21.226 8.874l-37.912 15.994-115.855 48.861-60.856 25.679-17.55 7.394c-7.157 3.013-12.728 5.154-19.343 9.409-12.4706 8.018-22.3329 19.498-28.3789 33.035-8.3327 18.63-8.9216 39.808-1.6373 58.874 7.2493 19.062 21.8182 34.436 40.4632 42.699 1.788.789 12.284 4.789 13.985 4.375.189-.644.18-.405.045-1.077zm88.713 51.228c30.825-.505 55.429-25.857 55.012-56.682-.416-30.826-25.696-55.503-56.523-55.176-30.953.329-55.753 25.735-55.335 56.687.419 30.952 25.896 55.678 56.846 55.171zm-145.0507-58.313c2.8378-.113 4.7836-.361 7.595-.867-6.2589-7.174-11.9495-13.886-16.2713-22.447-2.8561-5.658-4.9876-11.338-6.9137-17.37-.1248-.39-.3329-.559-.6488-.79-5.05 5.583-7.8319 11.027-7.4883 18.81.311 6.407 3.1651 12.425 7.9294 16.719 4.5857 4.101 9.7229 5.816 15.7977 5.945z"/><path d="m261.311 387.685c.386.125.591.222.747.674 2.931 8.515 2.278 15.864-.313 24.306-2.558-1.785-8.411-4.924-11.353-6.607-3.414-1.996-7.091-4.103-10.419-6.203 1.766-.715 5.571-3.126 7.388-4.191 4.607-2.734 9.257-5.394 13.95-7.979z"/><path d="m186.262 387.547c1.653.679 20.527 11.565 21.06 12.322-.493 1.108-7.165 4.722-8.709 5.619-2.731 1.56-10.026 5.527-12.278 7.335-3.1-7.468-3.017-17.764-.073-25.276z"/><path d="m215.547 414.249.287.185c.283 1.352.195 6.383.198 8l-.046 16.781c-5.744-1.388-9.941-3.038-14.761-6.51-2.726-1.761-4.768-3.978-7.05-6.264 2.114-1.089 5.102-2.977 7.254-4.223 4.67-2.721 9.376-5.377 14.118-7.969z"/><path d="m215.16 361.062.595.013c.499.825.236 22.068.216 25.102-2.208-1.647-10.082-5.893-12.749-7.378-2.849-1.754-6.053-3.557-8.986-5.17 6.487-7.061 11.573-10.266 20.924-12.567z"/><path d="m232.132 414.086c.982.388 6.484 3.57 7.578 4.221 4.478 2.669 9.615 5.341 13.951 8.15-2.414 2.559-3.771 3.929-6.566 6.025-5.496 3.951-8.789 4.934-15.075 6.861-.023-7.876-.283-17.522.112-25.257z"/><path d="m232.063 360.85c9.09 2.3 15.333 5.607 21.608 12.752l-8.313 4.85c-2.642 1.493-11.61 6.314-13.249 7.956-.146-8.519-.161-17.039-.046-25.558z"/><path d="m73.9326 33.0572c2.9794-.2338 6.4417.6804 8.0078 3.4542 2.7865 4.9353-.6475 10.1118-2.5802 14.7547-.9595 2.2917-1.7639 4.6452-2.4079 7.0447-5.1603 18.5886-2.6561 38.4698 6.9524 55.1982 15.8759 27.609 47.9923 41.522 78.9923 34.22 3.435-.813 6.8-1.898 10.063-3.246 3.503-1.479 8.726-4.526 12.264-3.278 10.51 3.708 4.046 13.415.489 18.874-9.147 14.038-21.212 24.038-35.873 31.396-5.632 2.669-11.52 4.763-17.573 6.25-22.548 5.316-46.283 1.503-66.032-10.606-20.0541-12.187-34.4028-31.887-39.8511-54.713-5.4184-22.882-1.4835-46.9802 10.9323-66.9502 6.9808-11.3456 16.4666-20.9422 27.7302-28.0545 2.6524-1.6755 5.825-3.6232 8.8862-4.3441zm64.6334 145.8568c9.241-4.004 15.35-7.795 22.883-14.569-20.891 4.474-45.101-1.176-62.9323-12.744-19.7192-12.756-33.5314-32.854-38.3712-55.8355-1.9344-9.204-2.4237-19.4725-1.1527-28.815.1621-1.191.6326-2.6938.1285-3.7608-12.8704 13.3714-19.4872 32.1226-19.0872 50.5793.4618 19.117 8.5216 37.264 22.3964 50.424 13.7805 13.097 32.192 20.196 51.1985 19.74 8.54-.216 16.978-1.914 24.937-5.019z"/><path d="m146.475 24.5826c2.646-.0412 5.002.8232 6.752 2.8567 2.709 3.1485 7.132 18.9253 8.718 23.8921.384 1.2012.806 3.6026 1.842 4.358 2.675 1.9503 24.227-.0379 29.595 1.1534 1.668.3702 3.227 1.0849 4.443 2.3089 1.44 1.4505 2.248 3.6715 2.132 5.7092-.091 1.59-.663 3.2444-1.659 4.4955-2.119 2.6641-5.523 4.6659-8.261 6.671-5.363 3.9277-11.01 7.7053-16.08 11.9944 2.668 8.6207 5.537 17.0702 8.171 25.8142 1.756 5.053-.42 10.171-5.864 11.421-3.376.774-6.335-1.56-8.939-3.377-6.6-4.604-13.026-9.559-19.711-14.027-1.396-.245-5.12 2.825-6.401 3.736l-10.901 7.833c-3.342 2.406-8.647 7.14-12.937 5.703-9.471-3.174-5.137-11.815-3.06-18.353l5.929-18.7999c-7.238-6.1146-15.962-11.2606-23.2366-17.4237-5.1146-4.3331-2.6545-12.6187 3.6006-13.7206 3.262-.5747 7.701-.3601 11.046-.3782l18.862-.0704 5.696-17.1232c1.187-3.5641 2.508-8.3593 4.401-11.5414 1.209-2.0337 3.679-2.7162 5.862-3.132zm-20.224 47.5861c12.988 10.464 13.627 7.9094 8.006 24.7275 4.176-2.8641 8.217-7.0975 13.166-7.4149 5.756 1.2427 7.73 4.4391 12.383 7.1519-1.277-4.1567-4.453-11.8473-2.363-15.3897 2.058-3.4884 7.237-6.2346 10.464-9.0018-4.523.465-11.196 1.0788-14.965-1.7104-3.921-2.9015-4.178-11.0078-5.877-12.4143l-.12.2609c-1.931 4.31-3.014 11.8425-7.659 13.4306-2.696.9215-9.025.8085-11.968.4783z"/><path d="m431.032 101.551c6.09-.078 9.923 4.627 8.276 10.603-2.453 8.898-4.35 18.808-7.745 27.372-.758 1.912-3.824 3.278-5.744 3.683-6.202.203-10.132-4.37-8.443-10.484 2.507-9.081 4.367-19.324 8.005-28.005.756-1.805 3.853-2.779 5.651-3.169z"/><path d="m473.171 135.046c8.788-.572 12.616 8.48 6.474 13.902-4.941 4.362-11.576 8.06-16.779 12.207-2.088 1.664-4.777 3.415-7.239 4.444-1.742.198-3.285.045-4.876-.754-1.812-.91-3.686-2.558-4.3-4.545-.698-2.26-.323-4.865.864-6.898 1.52-2.603 19.98-15.603 23.472-17.505.75-.408 1.564-.636 2.384-.851z"/><path d="m458.154 186.089c5.759.187 17.798 7.573 23.76 9.809 7.996 3 8.211 13.216-.919 15.943-4.807-.037-10.817-3.919-15.403-5.8-3.331-1.366-6.888-3.238-10.132-4.821-2.102-1.025-3.814-2.72-4.363-5.065-.529-2.314-.095-4.744 1.203-6.731 1.506-2.264 3.379-2.9 5.854-3.335z"/></svg>