<svg height="512" viewBox="0 0 512 512" width="512" xmlns="http://www.w3.org/2000/svg"><path d="m94.1751 21.8425c9.7559-1.0037 19.1749 2.6402 26.1729 9.4644 11.124 10.8483 9.703 23.3364 9.662 37.5967 9.577-.3445 21.684.008 31.528.0085l61.63.0404c-.229-4.5582.054-10.156.056-14.786.004-8.7831 3.945-17.7236 10.432-23.7689 6.388-5.8935 14.852-9.0136 23.536-8.6765 8.857.3479 17.2 4.2479 23.147 10.82 9.349 10.3607 9.03 23.2383 8.378 36.3315l93.24.0627c.132-15.0313-1.624-27.1506 10.505-38.525 6.361-5.8945 14.802-9.0215 23.468-8.6934 8.707.3378 16.929 4.0949 22.884 10.456 9.846 10.6105 9.272 23.0162 8.684 36.6867 8.658.6061 15.764 2.0963 23.415 6.4461 11.53 6.4563 19.96 17.2989 23.375 30.0643 2.398 8.99 1.735 21.731 1.732 31.283l-.005 34.164v121.645l.001 101.395.006 31.811c.008 15.799 1.249 26.295-7.019 40.7-1.661 2.761-3.59 5.352-5.757 7.737-9.488 10.442-22.2 16.083-36.155 16.298-9.393.145-18.893.079-28.288.076l-52.795-.007-162.895.002-95.463.006-28.2738.002c-6.9313 0-14.0678.225-20.9261-.639-9.8087-1.277-18.9823-5.556-26.2624-12.253-10.0441-9.272-15.8011-21.2-16.1151-34.88-.1902-8.287-.0692-16.833-.0643-25.145l.0053-45.958-.0076-141.614-.0056-79.133.0023-22.914c.0012-5.307-.1668-11.606.5277-16.781 1.3583-9.863 5.7103-19.0706 12.4682-26.3808 9.6448-10.3609 21.3954-15.274 35.4334-15.7809-.3561-2.8361.098-6.0617-.0985-8.8747-1.3544-19.3866 9.3785-35.968 29.8416-38.2861zm375.9989 442.7755c11.168-11.469 9.907-22.577 9.845-37.353-.012-2.837-.005-5.734-.007-8.573l-.004-49.748.026-189.931-312.123-.054-93.2453.002-28.8589.013c-3.212.002-10.8903.217-13.766-.086l-.0232 185.566-.0003 54.149-.0135 15.934c-.0006 3.854-.1516 8.062.417 11.837 1.7817 11.831 10.19 21.945 21.4447 25.965 5.2469 1.874 9.9131 1.985 15.3917 1.987l263.5738-.021h79.505l23.156.01c13.27.014 24.532.741 34.682-9.697zm-210.878-345.685c7.4-2.193 12.819-7.175 13.342-15.449.488-7.7147.062-15.5258.215-23.2566-.201-7.8817.411-18.0353-.113-25.644-.128-2.0543-.49-4.0873-1.078-6.0598-1.061-3.4456-4.671-7.2926-7.926-8.8739-3.767-1.8303-6.823-1.9192-10.919-1.5889-7.54 1.8216-13.038 7.0951-13.456 15.0532-.398 7.5836-.2 15.5353-.202 23.1388l.002 16.5418c.003 3.9099-.283 10.6474.677 14.1444 1.178 4.279 4.008 7.916 7.867 10.109 3.773 2.122 7.394 2.446 11.591 1.885zm-158.788-.002c7.343-2.239 13.177-7.524 13.344-15.688.293-16.5479.268-33.1659.012-49.7155-.019-1.2171-.393-3.3006-.826-4.4391-3.455-9.0853-10.127-11.5602-18.961-11.0255-3.8377.8754-6.1907 1.9661-9.0459 4.8337-4.1781 4.1965-4.6353 9.0984-4.6506 14.7838-.0162 6.03-.0132 12.1321-.014 18.1892l.0056 16.8556c.0076 9.2788-1.1303 18.4598 8.036 24.0298 3.8893 2.363 7.6586 2.781 12.0999 2.176zm317.552.006c7.287-2.13 12.666-6.946 13.321-15 .247-3.031.167-6.0093.169-9.0492l.004-14.5703-.005-17.0817c-.001-2.8788.104-6.6097-.096-9.4277-.133-1.7652-.45-3.5116-.946-5.2109-.953-3.2222-4.604-7.2213-7.627-8.7789-4.125-2.1253-6.908-2.0113-11.349-1.7431-3.906 1.0043-6.25 2.0826-9.105 5.0449-3.887 4.0325-4.388 8.6143-4.413 14.0181-.027 5.921-.017 11.897-.018 17.84l.005 16.8023c.007 9.6065-1.434 19.7445 8.551 25.2865 3.812 2.116 7.236 2.43 11.509 1.87z"/><path d="m216.41 223.568c3.18-.343 6.781 1.189 8.17 4.017 2.387 4.859-1.828 13.325-2.89 18.56-3.867 19.095-1.576 38.924 6.541 56.635 16.588 36.088 54.608 57.308 94.032 52.483 7.448-.876 13.594-2.816 20.674-4.88 2.924-.852 7.411 1.798 8.501 4.823 1.679 4.657-1.656 10.291-3.411 14.577-12.735 27.906-34.672 46.544-63.118 57.034-3.374 1.092-6.789 2.051-10.237 2.876-27.617 6.302-56.606 1.408-80.624-13.61-24.2-15.099-41.42-39.184-47.88-66.967-6.407-27.826-1.47-57.058 13.72-81.237 10.66-17.117 25.985-30.835 44.174-39.542 3.453-1.648 8.69-3.929 12.348-4.769z"/><path d="m311.113 206.551c8.238-.881 10.216 6.903 13.224 13.053l8.447 17.151c9.114 2.237 19.985 2.356 29.25 4.489 5.194 1.196 8.36 6.881 5.422 11.645-1.681 2.726-4.219 4.678-6.422 6.939-4.79 5.081-11.005 9.924-15.474 15.199l-.235.281 3.232 18.944c1.029 6.023 4.203 15.565-3.437 18.365-1.521.549-3.172.631-4.74.235-2.132-.545-6.975-3.264-9.115-4.373-5.722-2.966-11.35-6.186-17.16-9.004-2.162-.932-4.676.972-6.681 2.042l-13.242 7.025c-4.655 2.459-12.478 7.721-17.131 1.876-3.165-3.976-.814-10.667-.127-15.312.976-6.592 2.427-13.287 3.264-19.943-4.567-5.021-10.404-10.023-15.19-14.927-2.111-1.999-3.997-3.876-5.974-6.033-3.457-3.773-2.078-10.496 2.717-12.379 2.987-1.173 7.049-1.362 10.34-1.911 6.772-1.131 13.848-1.707 20.6-3.004 4.239-8.256 8.223-16.664 12.437-24.932 1.652-3.244 2.572-4.382 5.995-5.426z"/></svg>