<svg fill="none" height="352" viewBox="0 0 496 352" width="496" xmlns="http://www.w3.org/2000/svg"><path d="m220.746 349.66-2.34 2.34h-181.2398l-5.41-5.5-7.3-77c-4.01-42.35-11.09-116.83-15.73004-165.5-4.64-48.68-8.540001-90.9-8.6700008-93.84-.2100002-4.75.0700008-5.6 2.5700008-7.75l2.8-2.41h244.97984l2.46 2.45c1.61 1.62 2.45 3.59 2.45 5.77 0 1.81-2.93 32.1-6.52 67.29-3.58 35.19-10.55 108.54-15.49 162.99-4.93 54.45-9.25 101.21-9.6 103.91-.41 3.21-1.43 5.72-2.96 7.25zm-178.6798-63.91 4.73 50.25h80.7598c44.42 0 80.76-.18 80.76-.41 0-6.58 21.66-235.24 28.03-295.9 1.08-10.34 1.97-19.9 1.97-21.25v-2.44h-222.1898l.59 4.75c.85 6.92 13.26 136.62 25.35 265zm151.6798 32-.47 2.25h-65.98c-36.2898 0-65.9798-.34-65.9798-.76s-4.72-50.26-10.5-110.75c-5.77-60.5-10.5-110.55-10.5-111.24 0-.99 18.07-1.25 86.9998-1.25 72.43 0 87 .23 87 1.35 0 .75-1.32 14.58-2.94 30.75s-6.14 64.95-10.05 108.4-7.32 80.01-7.58 81.25zm263.87 32.65c-4.44.99-11.53 1.57-18.5 1.53-29.83-.2-46.9-11.72-53.36-36.01-2.32-8.69-2.33-30.26-.03-42.27 3.95-20.66 12.63-38.56 24.66-50.85 10.29-10.52 18.03-14.27 29.43-14.27 6.9 0 8.92.44 14.72 3.17 23.46 11.05 40.76 46.74 40.78 84.09.01 31.35-12.11 48.91-37.7 54.61zm-120.52-9.63c-7.59 3.1-19.98 3.96-26.46 1.85-15.42-5.04-31.66-20.32-41.23-38.82-11.44-22.1-5.37-43.34 17.67-61.88 9.2-7.4 13.32-10.06 23.47-15.15 26.17-13.12 54.47-15.38 71.38-5.71 3.02 1.73 5.35 3.44 5.18 3.79-.18.36-2.62 5.38-5.44 11.15-6.17 12.67-8.77 20.41-11.28 33.56-2.74 14.44-3.41 26.46-2.09 37.94l1.14 10-7.47 7c-8.25 7.73-15.38 12.4-24.87 16.27zm58.22-131.61c0 1.34-1.26.91-4.95-1.69-5.85-4.13-19.9-7.89-32.55-8.71l-4-.26-2.28-8c-1.26-4.4-2.65-12.61-3.1-18.25-.95-12.05-2.23-14.25-8.27-14.25-6.22 0-7.85 2.45-7.84 11.75.01 6.59 1.87 18.42 4.45 28.33.64 2.45.4 2.63-5.04 3.85-3.15.7-8.14 2.11-11.11 3.13l-5.39 1.86-.84-2.21c-.46-1.22-1.57-6.46-2.46-11.64-7.42-43.18 13.04-70.55 47.55-63.61 21.16 4.26 44.5 20.9 60.25 42.99 4.53 6.34 10.58 17.43 10.58 19.39 0 .59-1.91 1.59-4.25 2.21s-7.02 2.59-10.41 4.37l-6.16 3.25-2.26-4.08c-3.16-5.71-9.78-15.45-12.04-17.71-2.47-2.47-6.96-2.39-10.25.19-4.35 3.43-3.59 7.08 3.87 18.39 3.58 5.42 6.5 10.24 6.5 10.7zm15.31 92.42c3.51 3.03 7.11 3.09 10.05.15 1.9-1.89 2.46-4.12 3.5-13.75 1.42-13.1 6.06-28.44 11.64-38.42 4.14-7.4 4.39-10.76 1.05-14.11-5.26-5.25-10.95-1.92-16.84 9.82-7.29 14.56-11.62 31.03-12 45.66-.2 7.89-.1 8.32 2.6 10.65zm-107.86-30.03c3.56 3.55 6.81 3.08 13.97-2.03 10.21-7.29 22.89-13.04 36.38-16.52 2.37-.61 5.18-1.98 6.25-3.05 4.44-4.44.83-12.95-5.49-12.95-9.55 0-36.72 11.62-47.81 20.45-5.05 4.02-5.75 5.01-5.75 8.11 0 2.42.78 4.31 2.45 5.99zm148.91 63.28c4.15 2.01 6.82 1.31 10.75-2.83 5.8-6.09 8.02-14.27 8.64-31.69.27-7.8.21-15.35-.15-16.77-1.56-6.22-8.92-8.68-13.41-4.5-2.04 1.9-2.19 2.95-2.19 15.29 0 14.79-1.45 22.3-5.46 28.21-1.4 2.06-2.54 4.33-2.54 5.05 0 2.5 2.24 6.21 4.36 7.24zm-139.91-13.28c1.51 1.5 3.61 2.45 5.43 2.45 5.93 0 21.62-9.86 32.47-20.4 5.12-4.98 6.07-9.12 3.09-13.38-2.17-3.1-9.32-3.14-12.04-.07-4.16 4.71-17.25 14.33-23.11 17.01-3.42 1.55-6.68 3.7-7.25 4.77-1.73 3.23-1.18 7.02 1.41 9.62z" fill="#000"/></svg>