<svg width="367" height="367" viewBox="0 0 367 367" fill="none" xmlns="http://www.w3.org/2000/svg">
<path d="M184.5 87L205 183H164L184.5 87Z" fill="white"/>
<g clip-path="url(#clip0_191_335)">
<path d="M181.953 53.5825L168.766 46.6223C169.439 45.3198 170.485 44.2195 171.833 43.5068L180.607 38.8718C182.75 37.7408 185.309 37.7456 187.449 38.8807L196.209 43.5384C197.591 44.2736 198.656 45.4161 199.321 46.7671L186.06 53.5893C184.772 54.2685 183.238 54.2665 181.951 53.584L181.953 53.5825ZM194.889 56.2848L194.889 56.3213C194.887 57.4113 196.049 58.1083 197.01 57.5952L200.077 55.9642L200.071 61.1599C200.067 63.8717 198.575 66.3435 196.177 67.6101L187.406 72.245C186.334 72.8105 185.159 73.0939 183.983 73.0924C182.807 73.0909 181.634 72.8059 180.562 72.2361L171.803 67.5785C169.407 66.3042 167.923 63.8301 167.926 61.1183L167.933 55.9226L170.996 57.5615C171.956 58.0785 173.12 57.3831 173.121 56.2931L173.121 56.2566C173.122 55.7262 172.83 55.2378 172.363 54.9859L167.937 52.6146L167.941 49.9554C167.941 49.8035 167.963 49.6559 167.972 49.5055L180.583 56.164C181.653 56.7337 182.829 57.0173 184.004 57.0202C185.179 57.0218 186.354 56.7398 187.427 56.1729L200.055 49.547C200.064 49.6975 200.085 49.8451 200.085 49.9971L200.082 52.6563L195.65 55.0161C195.182 55.2668 194.889 55.7544 194.889 56.2848ZM182.537 61.238C182.538 60.7047 182.244 60.2134 181.772 59.9629L178.158 58.072C177.199 57.5623 176.041 58.2563 176.039 59.3433L176.039 59.3871C176.039 59.9204 176.333 60.4118 176.805 60.6622L180.419 62.5517C181.378 63.0614 182.536 62.3675 182.537 61.2804L182.537 61.238ZM191.962 59.364C191.964 58.2769 190.808 57.5799 189.847 58.0871L186.228 59.9687C185.756 60.218 185.46 60.7085 185.46 61.2418L185.46 61.2856C185.458 62.3727 186.614 63.0697 187.575 62.5625L191.194 60.6823C191.666 60.4331 191.962 59.9425 191.962 59.4092L191.962 59.364Z" fill="#CDAD80"/>
</g>
<circle cx="184" cy="183" r="26.5" fill="#CDAD80" stroke="white" stroke-width="3"/>
<defs>
<clipPath id="clip0_191_335">
<rect width="35.0665" height="35.0665" fill="white" transform="translate(166.495 38.0032) rotate(0.0742628)"/>
</clipPath>
</defs>
</svg>
