<svg width="367" height="367" viewBox="0 0 367 367" fill="none" xmlns="http://www.w3.org/2000/svg">
<path d="M184.5 87L205 183H164L184.5 87Z" fill="white"/>
<path d="M184.5 257L164 191L205 191L184.5 257Z" fill="white"/>
<circle cx="184" cy="183" r="26.5" fill="#CDAD80" stroke="#CDAD80" stroke-width="3"/>
<g clip-path="url(#clip0_192_367)">
<mask id="mask0_192_367" style="mask-type:luminance" maskUnits="userSpaceOnUse" x="144" y="143" width="80" height="80">
<path d="M224 143H144V223H224V143Z" fill="white"/>
</mask>
<g mask="url(#mask0_192_367)">
<path d="M185.403 179.561C185.778 179.889 186.129 180.216 186.456 180.544C186.784 180.871 187.111 181.222 187.439 181.596C187.439 182.064 187.462 182.532 187.509 183C187.462 183.468 187.439 183.936 187.439 184.404C187.111 184.778 186.784 185.129 186.456 185.456C186.129 185.784 185.778 186.111 185.403 186.439C184.936 186.439 184.468 186.462 184 186.509C183.532 186.462 183.064 186.439 182.596 186.439C182.222 186.111 181.871 185.784 181.544 185.456C181.216 185.129 180.889 184.778 180.561 184.404C180.561 183.936 180.538 183.468 180.491 183C180.538 182.532 180.561 182.064 180.561 181.596C180.889 181.222 181.216 180.871 181.544 180.544C181.871 180.216 182.222 179.889 182.596 179.561C183.064 179.561 183.532 179.538 184 179.491C184.468 179.538 184.936 179.561 185.403 179.561Z" fill="white"/>
<path d="M185.825 176.263C185.544 177.176 184.772 177.526 184 177.456C183.228 177.526 182.456 177.176 182.176 176.263C180.983 173.035 177.053 161.526 184 161.526C190.947 161.526 187.018 173.035 185.825 176.263Z" fill="white"/>
<path d="M190.035 179.561C189.193 179.982 188.421 179.632 187.93 179.07C187.369 178.579 187.018 177.807 187.439 176.965C188.912 173.807 194.246 162.93 199.158 167.842C204.07 172.754 193.193 178.088 190.035 179.561Z" fill="white"/>
<path d="M190.737 184.824C189.825 184.544 189.474 183.772 189.544 183C189.474 182.228 189.825 181.456 190.737 181.176C193.965 179.982 205.474 176.053 205.474 183C205.474 189.947 193.965 186.018 190.737 184.824Z" fill="white"/>
<path d="M187.439 189.035C187.018 188.193 187.369 187.421 187.93 186.93C188.421 186.368 189.193 186.018 190.035 186.439C193.193 187.912 204.07 193.246 199.158 198.158C194.246 203.07 188.912 192.193 187.439 189.035Z" fill="white"/>
<path d="M182.176 189.737C182.456 188.824 183.228 188.474 184 188.544C184.772 188.474 185.544 188.824 185.825 189.737C187.018 192.965 190.947 204.474 184 204.474C177.053 204.474 180.983 192.965 182.176 189.737Z" fill="white"/>
<path d="M177.965 186.439C178.807 186.018 179.579 186.368 180.07 186.93C180.632 187.421 180.983 188.193 180.562 189.035C179.088 192.193 173.755 203.07 168.842 198.158C163.93 193.246 174.807 187.912 177.965 186.439Z" fill="white"/>
<path d="M177.263 181.176C178.176 181.456 178.527 182.228 178.456 183C178.527 183.772 178.176 184.544 177.263 184.824C174.035 186.018 162.526 189.947 162.526 183C162.526 176.053 174.035 179.982 177.263 181.176Z" fill="white"/>
<path d="M180.562 176.965C180.983 177.807 180.632 178.579 180.07 179.07C179.579 179.632 178.807 179.982 177.965 179.561C174.807 178.088 163.93 172.754 168.842 167.842C173.755 162.93 179.088 173.807 180.562 176.965Z" fill="white"/>
<path fill-rule="evenodd" clip-rule="evenodd" d="M185.474 145.246C187.509 148.825 190.596 150.228 193.474 152.825C194.386 153.597 195.017 154.439 195.438 155.351C196.421 155 197.474 154.86 198.667 154.93C202.526 155.14 205.754 156.333 209.614 155.211C210.245 155.07 210.877 155.281 211.298 155.702C211.719 156.123 211.93 156.754 211.789 157.386C210.667 161.246 211.859 164.474 212.07 168.333C212.14 169.526 212 170.579 211.649 171.561C212.561 171.982 213.403 172.614 214.175 173.526C216.772 176.404 218.175 179.491 221.754 181.526C222.316 181.807 222.596 182.439 222.596 183C222.596 183.561 222.316 184.193 221.754 184.474C218.175 186.509 216.772 189.596 214.175 192.474C213.403 193.386 212.561 194.018 211.649 194.439C212 195.421 212.14 196.474 212.07 197.667C211.859 201.526 210.667 204.754 211.789 208.614C211.93 209.246 211.719 209.877 211.298 210.298C210.877 210.719 210.245 210.93 209.614 210.789C205.754 209.667 202.526 210.86 198.667 211.07C197.474 211.14 196.421 211 195.438 210.649C195.017 211.561 194.386 212.404 193.474 213.176C190.596 215.772 187.509 217.176 185.474 220.754C185.193 221.316 184.561 221.596 184 221.596C183.438 221.596 182.807 221.316 182.526 220.754C180.491 217.176 177.403 215.772 174.526 213.176C173.614 212.404 172.982 211.561 172.561 210.649C171.579 211 170.526 211.14 169.333 211.07C165.473 210.86 162.245 209.667 158.386 210.789C157.754 210.93 157.123 210.719 156.702 210.298C156.281 209.877 156.07 209.246 156.21 208.614C157.333 204.754 156.14 201.526 155.93 197.667C155.859 196.474 156 195.421 156.351 194.439C155.438 194.018 154.596 193.386 153.824 192.474C151.228 189.596 149.824 186.509 146.245 184.474C145.684 184.193 145.403 183.561 145.403 183C145.403 182.439 145.684 181.807 146.245 181.526C149.824 179.491 151.228 176.404 153.824 173.526C154.596 172.614 155.438 171.982 156.351 171.561C156 170.579 155.859 169.526 155.93 168.333C156.14 164.474 157.333 161.246 156.21 157.386C156.07 156.754 156.281 156.123 156.702 155.702C157.123 155.281 157.754 155.07 158.386 155.211C162.245 156.333 165.473 155.14 169.333 154.93C170.526 154.86 171.579 155 172.561 155.351C172.982 154.439 173.614 153.597 174.526 152.825C177.403 150.228 180.491 148.825 182.526 145.246C182.807 144.684 183.438 144.404 184 144.404C184.561 144.404 185.193 144.684 185.474 145.246ZM165.614 164.614C163.228 167 162.035 170.509 162.947 174.298C159.649 176.263 157.965 179.632 157.965 183C157.965 186.368 159.649 189.737 162.947 191.702C162.035 195.491 163.228 199 165.614 201.386C168 203.772 171.509 204.965 175.298 204.053C177.263 207.351 180.631 209.035 184 209.035C187.368 209.035 190.737 207.351 192.702 204.053C196.491 204.965 200 203.772 202.386 201.386C204.772 199 205.965 195.491 205.052 191.702C208.351 189.737 210.035 186.368 210.035 183C210.035 179.632 208.351 176.263 205.052 174.298C205.965 170.509 204.772 167 202.386 164.614C200 162.228 196.491 161.035 192.702 161.947C190.737 158.649 187.368 156.965 184 156.965C180.631 156.965 177.263 158.649 175.298 161.947C171.509 161.035 168 162.228 165.614 164.614ZM184.07 149.386C184.07 149.386 184.047 149.363 184 149.316C183.953 149.363 183.93 149.386 183.93 149.386C183.93 149.386 183.953 149.386 184 149.386C184.047 149.386 184.07 149.386 184.07 149.386ZM207.789 159.281C207.789 159.234 207.789 159.211 207.789 159.211C207.789 159.211 207.766 159.211 207.719 159.211C207.719 159.211 207.719 159.234 207.719 159.281C207.766 159.281 207.789 159.281 207.789 159.281ZM217.614 183.07C217.614 183.07 217.637 183.047 217.684 183C217.637 182.953 217.614 182.93 217.614 182.93C217.614 182.93 217.614 182.953 217.614 183C217.614 183.047 217.614 183.07 217.614 183.07ZM207.719 206.789C207.766 206.789 207.789 206.789 207.789 206.789C207.789 206.789 207.789 206.766 207.789 206.719C207.789 206.719 207.766 206.719 207.719 206.719C207.719 206.766 207.719 206.789 207.719 206.789ZM183.93 216.614C183.93 216.614 183.953 216.637 184 216.684C184.047 216.637 184.07 216.614 184.07 216.614C184.07 216.614 184.047 216.614 184 216.614C183.953 216.614 183.93 216.614 183.93 216.614ZM160.21 206.719C160.21 206.766 160.21 206.789 160.21 206.789C160.21 206.789 160.234 206.789 160.281 206.789C160.281 206.789 160.281 206.766 160.281 206.719C160.234 206.719 160.21 206.719 160.21 206.719ZM150.386 182.93C150.386 182.93 150.362 182.953 150.316 183C150.362 183.047 150.386 183.07 150.386 183.07C150.386 183.07 150.386 183.047 150.386 183C150.386 182.953 150.386 182.93 150.386 182.93ZM160.281 159.211C160.234 159.211 160.21 159.211 160.21 159.211C160.21 159.211 160.21 159.234 160.21 159.281C160.21 159.281 160.234 159.281 160.281 159.281C160.281 159.234 160.281 159.211 160.281 159.211Z" fill="#CDAD80"/>
</g>
</g>
<defs>
<clipPath id="clip0_192_367">
<rect width="80" height="80" fill="white" transform="translate(144 143)"/>
</clipPath>
</defs>
</svg>
