<svg width="367" height="367" viewBox="0 0 367 367" fill="none" xmlns="http://www.w3.org/2000/svg">
<g clip-path="url(#clip0_191_222)">
<path d="M181.663 55.7507L166.639 47.8203C167.405 46.3364 168.597 45.0827 170.133 44.2706L180.13 38.9897C182.572 37.701 185.487 37.7065 187.926 38.9998L197.906 44.3066C199.482 45.1444 200.695 46.4461 201.452 47.9853L186.343 55.7584C184.875 56.5323 183.127 56.53 181.662 55.7523L181.663 55.7507ZM196.402 58.8296L196.402 58.8712C196.401 60.1131 197.725 60.9072 198.819 60.3226L202.314 58.4643L202.307 64.3841C202.303 67.4739 200.603 70.2901 197.871 71.7332L187.877 77.0141C186.656 77.6585 185.317 77.9814 183.977 77.9796C182.637 77.9779 181.3 77.6532 180.079 77.004L170.099 71.6972C167.369 70.2453 165.678 67.4264 165.682 64.3367L165.69 58.4168L169.18 60.2842C170.273 60.8733 171.599 60.0809 171.601 58.839L171.601 58.7974C171.602 58.1931 171.27 57.6367 170.737 57.3496L165.695 54.6479L165.699 51.6181C165.699 51.4449 165.724 51.2768 165.735 51.1054L180.103 58.6919C181.322 59.3411 182.662 59.6641 184.001 59.6675C185.339 59.6692 186.678 59.348 187.901 58.702L202.289 51.1527C202.299 51.3242 202.323 51.4924 202.323 51.6655L202.319 54.6953L197.27 57.384C196.737 57.6697 196.403 58.2253 196.402 58.8296ZM182.33 64.4731C182.33 63.8655 181.995 63.3057 181.458 63.0203L177.34 60.8658C176.247 60.2851 174.928 61.0758 174.926 62.3143L174.926 62.3643C174.925 62.9719 175.261 63.5317 175.798 63.8171L179.916 65.9699C181.008 66.5507 182.328 65.7599 182.33 64.5214L182.33 64.4731ZM193.068 62.3378C193.07 61.0993 191.753 60.3052 190.658 60.8831L186.535 63.0269C185.997 63.3109 185.66 63.8698 185.659 64.4774L185.659 64.5274C185.657 65.7659 186.975 66.5601 188.069 65.9821L192.192 63.84C192.73 63.556 193.068 62.9971 193.068 62.3894L193.068 62.3378Z" fill="#CDAD80"/>
</g>
<defs>
<clipPath id="clip0_191_222">
<rect width="39.9538" height="39.9538" fill="white" transform="translate(164.052 38) rotate(0.0742628)"/>
</clipPath>
</defs>
</svg>
