<svg width="367" height="367" viewBox="0 0 367 367" fill="none" xmlns="http://www.w3.org/2000/svg">
<g clip-path="url(#clip0_192_367)">
<path d="M181.953 23.5825L168.766 16.6223C169.439 15.3198 170.485 14.2195 171.833 13.5068L180.607 8.87183C182.75 7.74079 185.309 7.74556 187.449 8.8807L196.209 13.5384C197.591 14.2736 198.656 15.4161 199.321 16.7671L186.06 23.5893C184.772 24.2685 183.238 24.2665 181.951 23.584L181.953 23.5825ZM194.889 26.2848L194.889 26.3213C194.887 27.4113 196.049 28.1083 197.01 27.5952L200.077 25.9642L200.071 31.1599C200.067 33.8717 198.575 36.3435 196.177 37.6101L187.406 42.245C186.334 42.8105 185.159 43.0939 183.983 43.0924C182.807 43.0909 181.634 42.8059 180.562 42.2361L171.803 37.5785C169.407 36.3042 167.923 33.8301 167.926 31.1183L167.933 25.9226L170.996 27.5615C171.956 28.0785 173.12 27.3831 173.121 26.2931L173.121 26.2566C173.122 25.7262 172.83 25.2378 172.363 24.9859L167.937 22.6146L167.941 19.9554C167.941 19.8035 167.963 19.6559 167.972 19.5055L180.583 26.164C181.653 26.7337 182.829 27.0173 184.004 27.0202C185.179 27.0218 186.354 26.7398 187.427 26.1729L200.055 19.547C200.064 19.6975 200.085 19.8451 200.085 19.9971L200.082 22.6563L195.65 25.0161C195.182 25.2668 194.889 25.7544 194.889 26.2848ZM182.537 31.238C182.538 30.7047 182.244 30.2134 181.772 29.9629L178.158 28.072C177.199 27.5623 176.041 28.2563 176.039 29.3433L176.039 29.3871C176.039 29.9204 176.333 30.4118 176.805 30.6622L180.419 32.5517C181.378 33.0614 182.536 32.3675 182.537 31.2804L182.537 31.238ZM191.962 29.364C191.964 28.2769 190.808 27.5799 189.847 28.0871L186.228 29.9687C185.756 30.218 185.46 30.7085 185.46 31.2418L185.46 31.2856C185.458 32.3727 186.614 33.0697 187.575 32.5625L191.194 30.6823C191.666 30.4331 191.962 29.9425 191.962 29.4092L191.962 29.364Z" fill="#CDAD80"/>
</g>
<defs>
<clipPath id="clip0_192_367">
<rect width="35.0665" height="35.0665" fill="white" transform="translate(166.495 8.00317) rotate(0.0742628)"/>
</clipPath>
</defs>
</svg>
