<svg height="900" viewBox="0 0 900 900" width="900" xmlns="http://www.w3.org/2000/svg"><path d="m804.6 48.5v790.9h-704.9v-790.9z" fill="#91a57d"/><path d="m804.6 72.9v-24.4h-704.9v521.3c146.4-257.8 404.6-446.6 704.9-496.9z" fill="#acc990"/><g fill="#232c13"><path d="m748.8 808.6h-14.7v-597.2c0-36.4-29.6-66.1-66.1-66.1h-431.7c-36.4 0-66 29.7-66 66.1v597.2h-14.7v-597.2c0-44.5 36.2-80.8 80.7-80.8h431.7c44.6 0 80.8 36.3 80.8 80.8z"/><path d="m145 0v48.5h-29.4v-48.5z"/><path d="m216.6 0v48.5h-29.4v-48.5z"/><path d="m288.1 0v48.5h-29.4v-48.5z"/><path d="m359.6 0v48.5h-29.4v-48.5z"/><path d="m431.1 0v48.5h-29.4v-48.5z"/><path d="m502.6 0v48.5h-29.3v-48.5z"/><path d="m574.2 0v48.5h-29.4v-48.5z"/><path d="m645.7 0v48.5h-29.4v-48.5z"/><path d="m717.2 0v48.5h-29.4v-48.5z"/><path d="m788.7 0v48.5h-29.4v-48.5z"/><path d="m804.6 48.5v34.3h-704.9v-34.3z"/></g><path d="m99.7 900h704.9c0-13.2 0-13.2 0-29.4v-85.3h-704.9v85.3z" fill="#91a57d"/><path d="m804.6 785.3v20.3h-704.9v-20.3z" fill="#b9d89a"/><path d="m804.6 805.6v52.5h-704.9v-52.5z" fill="#acc990"/><path d="m99.7 900s0-13.2 0-29.4v-85.3h274.5l118.1 114.7z" fill="#212121"/><path d="m99.7 900c-10.3 0-18.7-25.6-18.7-57.3 0-31.8 8.4-57.4 18.7-57.4 10.4 0 18.7 25.6 18.7 57.4 0 31.7-8.3 57.3-18.7 57.3z" fill="#acc990"/><path d="m118.4 842.7c0-18.5-2.9-34.8-7.3-45.3-1.5-1.4-3-2.4-4.7-2.4-8.6 0-15.5 21.3-15.5 47.7 0 26.3 6.9 47.6 15.5 47.6 1.7 0 3.2-1 4.7-2.4 4.4-10.5 7.3-26.8 7.3-45.2z" fill="#91a57d"/><path d="m736 416.7v347.5c0 11.7-14 21.8-30.3 21.8h-509.5c-16.2 0-30.2-10.1-30.2-21.8v-349.2c0-11.8 14-21.8 30.2-21.8h14c-4.7-13.5-7-28.6-7-42 0-55.4 58.2-89 116.3-120.9 37.3-21.8 79.1-45.3 107.1-77.2 6.9-6.7 16.3-10.1 25.6-10.1 0 0 16.3 0 25.6 10.1 27.9 31.9 67.4 55.4 107 77.2 58.1 33.6 116.3 67.2 116.3 122.6 0 15.1-2.3 28.5-7 41.9h14c16.2 0 27.9 10.1 27.9 21.9zm-60.5 18.4h-25.6c-20.9 0-34.9-16.8-25.6-30.2 11.6-16.8 16.3-35.2 16.3-53.7 0-33.6-34.9-55.4-93.1-89-32.5-16.8-67.4-36.9-95.3-62.1-30.3 25.2-65.2 45.3-97.7 63.8-58.2 33.6-93.1 55.4-93.1 89 0 18.4 4.7 36.9 16.3 53.7 9.3 15.1-4.7 30.2-25.6 30.2h-25.6v308.9h51.2v-201.4c0-11.8 9.3-21.9 25.6-21.9 16.2 0 30.2 10.1 30.2 21.9v201.4h232.7v-201.4c0-11.8 13.9-21.9 30.2-21.9s30.2 10.1 30.2 21.9v201.4h51.2z" fill="#232c13" fill-rule="evenodd" opacity=".2"/></svg>