<svg width="367" height="367" viewBox="0 0 367 367" fill="none" xmlns="http://www.w3.org/2000/svg">
<circle cx="183" cy="183" r="159" stroke="#CDAD80" stroke-opacity="0.35" stroke-width="4" stroke-dasharray="8 8"/>
<path d="M176.777 64.1063L176.776 46.8575L181.322 46.8572L186.854 58.9789L187.308 58.9789L187.307 46.8568L190.792 46.8566L190.794 64.1053L186.298 64.1056L180.716 51.7819L180.262 51.7819L180.263 64.106L176.777 64.1063Z" fill="#232C13"/>
<g opacity="0.2" clip-path="url(#clip0_192_367)">
<mask id="mask0_192_367" style="mask-type:luminance" maskUnits="userSpaceOnUse" x="84" y="83" width="200" height="200">
<path d="M284 83H84V283H284V83Z" fill="white"/>
</mask>
<g mask="url(#mask0_192_367)">
<path d="M187.509 174.404C188.445 175.222 189.322 176.041 190.141 176.859C190.959 177.678 191.778 178.555 192.597 179.491C192.597 180.661 192.655 181.831 192.772 183C192.655 184.169 192.597 185.339 192.597 186.509C191.778 187.445 190.959 188.322 190.141 189.141C189.322 189.959 188.445 190.778 187.509 191.596C186.339 191.596 185.169 191.655 184 191.772C182.831 191.655 181.661 191.596 180.491 191.596C179.556 190.778 178.678 189.959 177.86 189.141C177.041 188.322 176.222 187.445 175.404 186.509C175.404 185.339 175.345 184.169 175.228 183C175.345 181.831 175.404 180.661 175.404 179.491C176.222 178.555 177.041 177.678 177.86 176.859C178.678 176.041 179.556 175.222 180.491 174.404C181.661 174.404 182.831 174.345 184 174.228C185.169 174.345 186.339 174.404 187.509 174.404Z" fill="#232C13"/>
<path d="M188.562 166.158C187.86 168.439 185.931 169.316 184.001 169.141C182.071 169.316 180.141 168.439 179.439 166.158C176.456 158.088 166.632 129.316 184.001 129.316C201.369 129.316 191.545 158.088 188.562 166.158Z" fill="#232C13"/>
<path d="M199.088 174.404C196.983 175.456 195.054 174.579 193.825 173.175C192.422 171.948 191.545 170.018 192.597 167.912C196.281 160.018 209.615 132.825 221.895 145.105C234.176 157.386 206.983 170.719 199.088 174.404Z" fill="#232C13"/>
<path d="M200.842 187.561C198.562 186.859 197.685 184.93 197.86 183C197.685 181.07 198.562 179.141 200.842 178.439C208.913 175.456 237.685 165.632 237.685 183C237.685 200.368 208.913 190.544 200.842 187.561Z" fill="#232C13"/>
<path d="M192.597 198.088C191.545 195.982 192.422 194.053 193.825 192.825C195.054 191.421 196.983 190.544 199.088 191.596C206.983 195.281 234.176 208.614 221.895 220.895C209.615 233.175 196.281 205.982 192.597 198.088Z" fill="#232C13"/>
<path d="M179.439 199.842C180.141 197.561 182.071 196.684 184.001 196.859C185.931 196.684 187.86 197.561 188.562 199.842C191.545 207.912 201.369 236.684 184.001 236.684C166.632 236.684 176.456 207.912 179.439 199.842Z" fill="#232C13"/>
<path d="M168.913 191.596C171.018 190.544 172.948 191.421 174.176 192.825C175.58 194.053 176.457 195.982 175.404 198.088C171.72 205.982 158.387 233.175 146.106 220.895C133.825 208.614 161.018 195.281 168.913 191.596Z" fill="#232C13"/>
<path d="M167.158 178.439C169.439 179.141 170.316 181.07 170.141 183C170.316 184.93 169.439 186.859 167.158 187.561C159.088 190.544 130.316 200.368 130.316 183C130.316 165.632 159.088 175.456 167.158 178.439Z" fill="#232C13"/>
<path d="M175.404 167.912C176.457 170.018 175.58 171.948 174.176 173.175C172.948 174.579 171.018 175.456 168.913 174.404C161.018 170.719 133.825 157.386 146.106 145.105C158.387 132.825 171.72 160.018 175.404 167.912Z" fill="#232C13"/>
<path fill-rule="evenodd" clip-rule="evenodd" d="M187.684 88.6141C192.772 97.5614 200.491 101.07 207.684 107.561C209.965 109.491 211.544 111.597 212.596 113.877C215.052 113 217.684 112.649 220.666 112.825C230.315 113.351 238.386 116.333 248.035 113.526C249.614 113.175 251.193 113.702 252.245 114.754C253.298 115.807 253.824 117.386 253.473 118.965C250.666 128.614 253.649 136.684 254.175 146.334C254.351 149.316 253.999 151.948 253.122 154.404C255.403 155.456 257.508 157.035 259.438 159.316C265.929 166.509 269.438 174.228 278.386 179.316C279.789 180.018 280.491 181.596 280.491 183C280.491 184.404 279.789 185.982 278.386 186.684C269.438 191.772 265.929 199.491 259.438 206.684C257.508 208.965 255.403 210.544 253.122 211.596C253.999 214.053 254.351 216.684 254.175 219.666C253.649 229.316 250.666 237.386 253.473 247.035C253.824 248.614 253.298 250.193 252.245 251.246C251.193 252.298 249.614 252.825 248.035 252.474C238.386 249.666 230.315 252.649 220.666 253.175C217.684 253.351 215.052 253 212.596 252.123C211.544 254.404 209.965 256.509 207.684 258.439C200.491 264.93 192.772 268.439 187.684 277.386C186.982 278.789 185.403 279.491 183.999 279.491C182.596 279.491 181.017 278.789 180.315 277.386C175.228 268.439 167.508 264.93 160.315 258.439C158.035 256.509 156.456 254.404 155.403 252.123C152.947 253 150.315 253.351 147.333 253.175C137.684 252.649 129.614 249.666 119.965 252.474C118.386 252.825 116.807 252.298 115.754 251.246C114.701 250.193 114.175 248.614 114.526 247.035C117.333 237.386 114.351 229.316 113.824 219.666C113.649 216.684 114 214.053 114.877 211.596C112.596 210.544 110.491 208.965 108.561 206.684C102.07 199.491 98.561 191.772 89.6137 186.684C88.2102 185.982 87.5084 184.404 87.5084 183C87.5084 181.596 88.2102 180.018 89.6137 179.316C98.561 174.228 102.07 166.509 108.561 159.316C110.491 157.035 112.596 155.456 114.877 154.404C114 151.948 113.649 149.316 113.824 146.334C114.351 136.684 117.333 128.614 114.526 118.965C114.175 117.386 114.701 115.807 115.754 114.754C116.807 113.702 118.386 113.175 119.965 113.526C129.614 116.333 137.684 113.351 147.333 112.825C150.315 112.649 152.947 113 155.403 113.877C156.456 111.597 158.035 109.491 160.315 107.561C167.508 101.07 175.228 97.5614 180.315 88.6141C181.017 87.2106 182.596 86.5088 183.999 86.5088C185.403 86.5088 186.982 87.2106 187.684 88.6141ZM138.035 137.035C132.07 143 129.087 151.772 131.368 161.246C123.122 166.158 118.912 174.579 118.912 183C118.912 191.421 123.122 199.842 131.368 204.755C129.087 214.228 132.07 223 138.035 228.965C143.999 234.93 152.772 237.912 162.245 235.632C167.158 243.877 175.579 248.088 183.999 248.088C192.421 248.088 200.842 243.877 205.754 235.632C215.228 237.912 223.999 234.93 229.965 228.965C235.929 223 238.912 214.228 236.631 204.755C244.877 199.842 249.088 191.421 249.088 183C249.088 174.579 244.877 166.158 236.631 161.246C238.912 151.772 235.929 143 229.965 137.035C223.999 131.07 215.228 128.088 205.754 130.368C200.842 122.123 192.421 117.912 183.999 117.912C175.579 117.912 167.158 122.123 162.245 130.368C152.772 128.088 143.999 131.07 138.035 137.035ZM184.175 98.965C184.175 98.965 184.116 98.9065 183.999 98.7895C183.883 98.9065 183.824 98.965 183.824 98.965C183.824 98.965 183.883 98.965 183.999 98.965C184.116 98.965 184.175 98.965 184.175 98.965ZM243.474 123.702C243.474 123.585 243.474 123.526 243.474 123.526C243.474 123.526 243.415 123.526 243.298 123.526C243.298 123.526 243.298 123.585 243.298 123.702C243.415 123.702 243.474 123.702 243.474 123.702ZM268.035 183.175C268.035 183.175 268.094 183.117 268.21 183C268.094 182.883 268.035 182.825 268.035 182.825C268.035 182.825 268.035 182.883 268.035 183C268.035 183.117 268.035 183.175 268.035 183.175ZM243.298 242.474C243.415 242.474 243.474 242.474 243.474 242.474C243.474 242.474 243.474 242.415 243.474 242.298C243.474 242.298 243.415 242.298 243.298 242.298C243.298 242.415 243.298 242.474 243.298 242.474ZM183.824 267.035C183.824 267.035 183.883 267.094 183.999 267.211C184.116 267.094 184.175 267.035 184.175 267.035C184.175 267.035 184.116 267.035 183.999 267.035C183.883 267.035 183.824 267.035 183.824 267.035ZM124.526 242.298C124.526 242.415 124.526 242.474 124.526 242.474C124.526 242.474 124.584 242.474 124.701 242.474C124.701 242.474 124.701 242.415 124.701 242.298C124.584 242.298 124.526 242.298 124.526 242.298ZM99.9646 182.825C99.9646 182.825 99.9061 182.883 99.7891 183C99.9061 183.117 99.9646 183.175 99.9646 183.175C99.9646 183.175 99.9646 183.117 99.9646 183C99.9646 182.883 99.9646 182.825 99.9646 182.825ZM124.701 123.526C124.584 123.526 124.526 123.526 124.526 123.526C124.526 123.526 124.526 123.585 124.526 123.702C124.526 123.702 124.584 123.702 124.701 123.702C124.701 123.585 124.701 123.526 124.701 123.526Z" fill="#CDAD80"/>
</g>
</g>
<ellipse cx="53.7627" cy="183.204" rx="12.5" ry="3" transform="rotate(0.0716844 53.7627 183.204)" fill="#CDAD80"/>
<ellipse cx="312.007" cy="183.333" rx="12.5" ry="3" transform="rotate(0.0435902 312.007 183.333)" fill="#CDAD80"/>
<ellipse cx="184.32" cy="308.891" rx="12.5" ry="3" transform="rotate(89.9901 184.32 308.891)" fill="#CDAD80"/>
<defs>
<clipPath id="clip0_192_367">
<rect width="200" height="200" fill="white" transform="translate(84 83)"/>
</clipPath>
</defs>
</svg>
