<svg width="367" height="367" viewBox="0 0 367 367" fill="none" xmlns="http://www.w3.org/2000/svg">
<circle cx="183" cy="183" r="159" stroke="#CDAD80" stroke-width="4"/>
<path d="M176.778 64.1063L176.776 46.8575L181.322 46.8572L186.854 58.9789L187.308 58.9789L187.307 46.8568L190.793 46.8566L190.794 64.1053L186.298 64.1056L180.716 51.7819L180.262 51.7819L180.263 64.106L176.778 64.1063Z" fill="white"/>
<path d="M183.574 317.245C182.934 317.245 182.236 317.203 181.478 317.119C180.721 317.051 179.98 316.967 179.256 316.866C178.549 316.749 177.943 316.648 177.437 316.563L177.665 313.811C178.186 313.878 178.793 313.954 179.483 314.038C180.173 314.105 180.855 314.164 181.528 314.214C182.219 314.265 182.816 314.29 183.322 314.29C183.961 314.29 184.483 314.206 184.887 314.037C185.291 313.869 185.586 313.617 185.771 313.28C185.973 312.926 186.074 312.48 186.074 311.941C186.074 311.504 185.981 311.158 185.796 310.906C185.628 310.636 185.316 310.426 184.862 310.275C184.407 310.106 183.776 309.946 182.968 309.795C181.957 309.61 181.09 309.391 180.366 309.138C179.659 308.886 179.078 308.575 178.624 308.204C178.169 307.817 177.832 307.329 177.614 306.739C177.411 306.15 177.31 305.435 177.31 304.593C177.31 303.28 177.554 302.253 178.042 301.512C178.531 300.754 179.229 300.215 180.138 299.895C181.048 299.575 182.117 299.415 183.346 299.415C183.901 299.415 184.533 299.449 185.24 299.516C185.964 299.567 186.671 299.634 187.361 299.718C188.068 299.802 188.666 299.895 189.154 299.996L189.003 302.774C188.498 302.706 187.909 302.648 187.235 302.597C186.579 302.53 185.922 302.471 185.265 302.42C184.626 302.37 184.078 302.345 183.624 302.345C183.001 302.345 182.479 302.412 182.058 302.547C181.637 302.682 181.326 302.892 181.124 303.178C180.922 303.465 180.821 303.827 180.821 304.264C180.821 304.769 180.922 305.157 181.124 305.426C181.326 305.695 181.663 305.914 182.134 306.083C182.622 306.251 183.287 306.428 184.129 306.613C185.122 306.832 185.964 307.067 186.655 307.32C187.362 307.572 187.926 307.875 188.347 308.229C188.784 308.582 189.104 309.037 189.306 309.592C189.509 310.148 189.61 310.847 189.61 311.688C189.61 313.035 189.366 314.121 188.878 314.946C188.406 315.755 187.716 316.344 186.807 316.714C185.914 317.068 184.837 317.245 183.574 317.245Z" fill="white"/>
<path d="M51.9623 191.537L49.0316 174.289L52.542 174.288L54.6643 188.178L55.2704 188.178L57.8959 174.465L61.8103 174.465L64.4883 188.178L65.0944 188.177L67.0885 174.287L70.6241 174.287L67.7463 191.536L62.2156 191.537L59.765 177.849L59.8912 177.849L57.4173 191.537L51.9623 191.537Z" fill="white"/>
<path d="M305.903 191.508L305.902 174.259L317.368 174.258L317.368 177.162L309.387 177.163L309.388 181.355L315.853 181.355L315.853 184.209L309.388 184.209L309.388 188.603L317.369 188.603L317.369 191.507L305.903 191.508Z" fill="white"/>
<circle cx="98.5" cy="96.5" r="4.5" fill="white"/>
<circle cx="98.5" cy="268.5" r="4.5" fill="white"/>
<circle cx="270.5" cy="96.5" r="4.5" fill="white"/>
<circle cx="270.5" cy="268.5" r="4.5" fill="white"/>
<circle cx="137.841" cy="67.8904" r="3" transform="rotate(22.8631 137.841 67.8904)" fill="#CDAD80"/>
<circle cx="71.0138" cy="226.377" r="3" transform="rotate(22.8631 71.0138 226.377)" fill="#CDAD80"/>
<circle cx="296.328" cy="134.718" r="3" transform="rotate(22.8631 296.328 134.718)" fill="#CDAD80"/>
<circle cx="229.501" cy="293.205" r="3" transform="rotate(22.8631 229.501 293.205)" fill="#CDAD80"/>
<circle cx="71.1751" cy="134.323" r="3" transform="rotate(-22.6621 71.1751 134.323)" fill="#CDAD80"/>
<circle cx="137.446" cy="293.043" r="3" transform="rotate(-22.6621 137.446 293.043)" fill="#CDAD80"/>
<circle cx="229.895" cy="68.0518" r="3" transform="rotate(-22.6621 229.895 68.0518)" fill="#CDAD80"/>
<circle cx="296.166" cy="226.772" r="3" transform="rotate(-22.6621 296.166 226.772)" fill="#CDAD80"/>
</svg>
