<svg width="367" height="367" viewBox="0 0 367 367" fill="none" xmlns="http://www.w3.org/2000/svg">
<circle cx="183.5" cy="182.5" r="116" stroke="white" stroke-width="21"/>
<path d="M174.473 24.9425C178.093 17.3453 188.907 17.3453 192.527 24.9425L214 70H153L174.473 24.9425Z" fill="#CDAD80"/>
<circle cx="183.5" cy="183.5" r="116.5" stroke="#CDAD80" stroke-width="6"/>
<g clip-path="url(#clip0_191_322)">
<path d="M178.085 177.313L138.886 156.622C140.885 152.75 143.995 149.479 148.002 147.361L174.085 133.582C180.457 130.22 188.062 130.234 194.425 133.609L220.463 147.454C224.574 149.64 227.74 153.036 229.715 157.052L190.294 177.333C186.465 179.352 181.904 179.346 178.081 177.317L178.085 177.313ZM216.54 185.346L216.54 185.454C216.535 188.694 219.99 190.766 222.846 189.241L231.964 184.393L231.944 199.838C231.934 207.899 227.499 215.247 220.37 219.012L194.296 232.79C191.111 234.471 187.617 235.314 184.121 235.309C180.624 235.305 177.138 234.458 173.952 232.764L147.914 218.918C140.791 215.13 136.379 207.775 136.389 199.714L136.409 184.269L145.516 189.141C148.367 190.678 151.827 188.611 151.832 185.37L151.832 185.262C151.834 183.685 150.967 182.233 149.578 181.484L136.422 174.435L136.432 166.53C136.433 166.079 136.499 165.64 136.525 165.193L174.014 184.986C177.195 186.68 180.691 187.523 184.183 187.532C187.675 187.536 191.168 186.698 194.358 185.013L231.898 165.316C231.923 165.764 231.988 166.203 231.987 166.654L231.977 174.559L218.803 181.574C217.412 182.319 216.542 183.769 216.54 185.346ZM179.823 200.07C179.825 198.485 178.95 197.024 177.548 196.28L166.805 190.658C163.953 189.143 160.511 191.206 160.507 194.438L160.506 194.568C160.504 196.153 161.38 197.614 162.782 198.358L173.524 203.975C176.376 205.49 179.819 203.427 179.823 200.196L179.823 200.07ZM207.841 194.499C207.845 191.267 204.408 189.196 201.552 190.703L190.795 196.297C189.391 197.038 188.512 198.496 188.51 200.081L188.51 200.212C188.506 203.443 191.943 205.515 194.799 204.007L205.556 198.418C206.96 197.677 207.839 196.219 207.841 194.634L207.841 194.499Z" fill="#CDAD80"/>
</g>
<defs>
<clipPath id="clip0_191_322">
<rect width="104.242" height="104.242" fill="white" transform="translate(132.135 131) rotate(0.0742628)"/>
</clipPath>
</defs>
</svg>
