<svg width="367" height="367" viewBox="0 0 367 367" fill="none" xmlns="http://www.w3.org/2000/svg">
<path d="M179.198 26.0119L179.197 13.0349L182.617 13.0346L186.778 22.1544L187.12 22.1543L187.12 13.0343L189.742 13.0341L189.743 26.0111L186.361 26.0114L182.161 16.7397L181.819 16.7397L181.82 26.0117L179.198 26.0119Z" fill="white"/>
<path d="M184.311 351.067C183.829 351.067 183.304 351.036 182.734 350.972C182.164 350.922 181.606 350.858 181.062 350.782C180.53 350.694 180.074 350.618 179.694 350.554L179.865 348.483C180.257 348.534 180.713 348.591 181.233 348.654C181.752 348.705 182.265 348.749 182.772 348.787C183.291 348.825 183.741 348.844 184.121 348.844C184.602 348.844 184.995 348.781 185.299 348.654C185.603 348.527 185.824 348.337 185.964 348.084C186.116 347.818 186.192 347.482 186.192 347.077C186.192 346.748 186.122 346.488 185.982 346.298C185.856 346.095 185.621 345.937 185.279 345.823C184.937 345.696 184.462 345.576 183.854 345.462C183.094 345.323 182.442 345.158 181.897 344.968C181.365 344.778 180.928 344.544 180.586 344.265C180.244 343.974 179.991 343.607 179.826 343.163C179.674 342.72 179.598 342.182 179.598 341.548C179.598 340.56 179.782 339.788 180.149 339.23C180.516 338.66 181.042 338.255 181.726 338.014C182.41 337.774 183.214 337.653 184.139 337.653C184.557 337.653 185.032 337.678 185.564 337.729C186.109 337.767 186.641 337.818 187.16 337.881C187.692 337.944 188.142 338.014 188.509 338.09L188.395 340.18C188.015 340.129 187.572 340.085 187.065 340.047C186.571 339.996 186.077 339.952 185.583 339.914C185.102 339.876 184.69 339.857 184.348 339.857C183.879 339.857 183.487 339.908 183.17 340.009C182.853 340.111 182.619 340.269 182.467 340.484C182.315 340.7 182.239 340.972 182.239 341.301C182.239 341.681 182.315 341.973 182.467 342.175C182.619 342.378 182.873 342.543 183.227 342.669C183.595 342.796 184.095 342.929 184.728 343.068C185.476 343.233 186.109 343.41 186.628 343.6C187.16 343.79 187.585 344.018 187.901 344.284C188.231 344.55 188.471 344.892 188.623 345.31C188.775 345.728 188.851 346.253 188.852 346.887C188.852 347.9 188.668 348.717 188.301 349.338C187.946 349.946 187.427 350.389 186.743 350.668C186.071 350.934 185.261 351.067 184.311 351.067Z" fill="white"/>
<path d="M20.2462 189.188L18.0413 176.211L20.6823 176.211L22.279 186.661L22.735 186.661L24.7103 176.344L27.6553 176.343L29.67 186.66L30.126 186.66L31.6263 176.21L34.2863 176.21L32.1212 189.187L27.9602 189.187L26.1164 178.889L26.2114 178.889L24.3502 189.188L20.2462 189.188Z" fill="white"/>
<path d="M341.391 189.166L341.391 176.189L350.017 176.188L350.017 178.373L344.013 178.373L344.013 181.527L348.877 181.527L348.877 183.674L344.013 183.674L344.013 186.98L350.017 186.98L350.017 189.165L341.391 189.166Z" fill="white"/>
<path fill-rule="evenodd" clip-rule="evenodd" d="M185.733 45.17V68.6548H181.652V45.17H185.733Z" fill="#DEDEDE"/>
<path d="M175.78 68.9054L171.735 69.2634L169.694 45.886L173.74 45.528L175.78 68.9054Z" fill="#DEDEDE"/>
<path d="M165.9 70.051L161.89 70.767L157.809 47.6044L161.818 46.9242L165.9 70.051Z" fill="#DEDEDE"/>
<path d="M156.162 72.02L152.188 73.094L146.138 50.3968L150.076 49.3228L156.162 72.02Z" fill="#DEDEDE"/>
<path d="M146.603 74.8482L142.773 76.2444L134.718 54.1558L138.584 52.7596L146.603 74.8482Z" fill="#DEDEDE"/>
<path d="M137.331 78.4998L133.644 80.2182L123.727 58.9172L127.415 57.1988L137.331 78.4998Z" fill="#DEDEDE"/>
<path d="M128.417 82.939L124.909 84.9796L113.166 64.6094L116.675 62.5688L128.417 82.939Z" fill="#DEDEDE"/>
<path d="M119.932 88.13L116.603 90.457L103.106 71.2324L106.472 68.8696L119.932 88.13Z" fill="#DEDEDE"/>
<path d="M111.949 94.037L108.799 96.6504L93.7268 78.6788L96.8414 76.0654L111.949 94.037Z" fill="#DEDEDE"/>
<path d="M104.467 100.624L101.603 103.524L84.9916 86.9128L87.8556 84.013L104.467 100.624Z" fill="#DEDEDE"/>
<path d="M97.629 107.856L94.9798 110.97L77.0082 95.8628L79.6216 92.7482L97.629 107.856Z" fill="#DEDEDE"/>
<path d="M91.4356 115.624L89.0727 118.99L69.8481 105.493L72.1751 102.164L91.4356 115.624Z" fill="#DEDEDE"/>
<path d="M85.9224 123.93L83.8818 127.474L63.5474 115.732L65.588 112.188L85.9224 123.93Z" fill="#DEDEDE"/>
<path d="M81.161 132.665L79.4426 136.388L58.1416 126.472L59.8958 122.749L81.161 132.665Z" fill="#DEDEDE"/>
<path d="M77.1872 141.794L75.791 145.661L53.7382 137.606L55.1344 133.775L77.1872 141.794Z" fill="#DEDEDE"/>
<path d="M74.0368 151.245L72.9628 155.183L50.3014 149.097L51.3396 145.159L74.0368 151.245Z" fill="#DEDEDE"/>
<path d="M71.7097 160.911L70.9937 164.957L47.8669 160.876L48.5829 156.83L71.7097 160.911Z" fill="#DEDEDE"/>
<path d="M70.2419 170.756L69.8839 174.838L46.4707 172.797L46.8287 168.716L70.2419 170.756Z" fill="#DEDEDE"/>
<path fill-rule="evenodd" clip-rule="evenodd" d="M69.6334 180.709V184.79H46.1486V180.709H69.6334Z" fill="#DEDEDE"/>
<path d="M69.8839 190.661L70.2419 194.707L46.8287 196.783L46.4707 192.702L69.8839 190.661Z" fill="#DEDEDE"/>
<path d="M70.9937 200.542L71.7097 204.552L48.5829 208.633L47.8669 204.623L70.9937 200.542Z" fill="#DEDEDE"/>
<path d="M72.9628 210.315L74.0368 214.253L51.3396 220.339L50.3014 216.366L72.9628 210.315Z" fill="#DEDEDE"/>
<path d="M75.791 219.838L77.1872 223.669L55.1344 231.724L53.7382 227.893L75.791 219.838Z" fill="#DEDEDE"/>
<path d="M79.4426 229.11L81.161 232.798L59.8958 242.75L58.1416 239.027L79.4426 229.11Z" fill="#DEDEDE"/>
<path d="M83.8818 238.025L85.9224 241.569L65.588 253.311L63.5474 249.767L83.8818 238.025Z" fill="#DEDEDE"/>
<path d="M89.0727 246.509L91.4356 249.839L72.1751 263.335L69.8481 259.97L89.0727 246.509Z" fill="#DEDEDE"/>
<path d="M94.9798 254.528L97.629 257.643L79.6216 272.751L77.0082 269.6L94.9798 254.528Z" fill="#DEDEDE"/>
<path d="M101.603 261.975L104.467 264.839L87.8556 281.45L84.9916 278.586L101.603 261.975Z" fill="#DEDEDE"/>
<path d="M108.799 268.813L111.949 271.462L96.8414 289.433L93.7268 286.82L108.799 268.813Z" fill="#DEDEDE"/>
<path d="M116.603 275.042L119.932 277.369L106.472 296.593L103.106 294.266L116.603 275.042Z" fill="#DEDEDE"/>
<path d="M124.909 280.519L128.417 282.56L116.675 302.894L113.166 300.854L124.909 280.519Z" fill="#DEDEDE"/>
<path d="M133.644 285.281L137.331 286.999L127.415 308.3L123.727 306.546L133.644 285.281Z" fill="#DEDEDE"/>
<path d="M142.773 289.254L146.603 290.651L138.584 312.703L134.718 311.307L142.773 289.254Z" fill="#DEDEDE"/>
<path d="M152.188 292.405L156.162 293.479L150.076 316.14L146.138 315.102L152.188 292.405Z" fill="#DEDEDE"/>
<path d="M161.89 294.732L165.9 295.448L161.818 318.575L157.809 317.859L161.89 294.732Z" fill="#DEDEDE"/>
<path d="M171.735 296.2L175.78 296.558L173.74 319.971L169.694 319.613L171.735 296.2Z" fill="#DEDEDE"/>
<path fill-rule="evenodd" clip-rule="evenodd" d="M185.733 296.844V320.329H181.652V296.844H185.733Z" fill="#DEDEDE"/>
<path d="M191.604 296.558L195.685 296.2L197.726 319.613L193.645 319.971L191.604 296.558Z" fill="#DEDEDE"/>
<path d="M201.485 295.448L205.53 294.732L209.611 317.859L205.566 318.575L201.485 295.448Z" fill="#DEDEDE"/>
<path d="M211.258 293.479L215.196 292.405L221.282 315.102L217.344 316.14L211.258 293.479Z" fill="#DEDEDE"/>
<path d="M220.817 290.651L224.647 289.254L232.667 311.307L228.836 312.703L220.817 290.651Z" fill="#DEDEDE"/>
<path d="M230.053 286.999L233.776 285.281L243.693 306.546L240.006 308.3L230.053 286.999Z" fill="#DEDEDE"/>
<path d="M238.967 282.56L242.511 280.519L254.254 300.854L250.71 302.894L238.967 282.56Z" fill="#DEDEDE"/>
<path d="M247.452 277.369L250.817 275.042L264.278 294.266L260.949 296.593L247.452 277.369Z" fill="#DEDEDE"/>
<path d="M255.471 271.462L258.586 268.813L273.693 286.82L270.579 289.433L255.471 271.462Z" fill="#DEDEDE"/>
<path d="M262.918 264.839L265.817 261.975L282.429 278.586L279.529 281.45L262.918 264.839Z" fill="#DEDEDE"/>
<path d="M269.791 257.643L272.405 254.528L290.412 269.6L287.763 272.751L269.791 257.643Z" fill="#DEDEDE"/>
<path d="M275.985 249.839L278.312 246.509L297.572 259.97L295.209 263.335L275.985 249.839Z" fill="#DEDEDE"/>
<path d="M281.462 241.569L283.503 238.025L303.873 249.767L301.832 253.311L281.462 241.569Z" fill="#DEDEDE"/>
<path d="M286.223 232.798L287.942 229.11L309.243 239.027L307.524 242.75L286.223 232.798Z" fill="#DEDEDE"/>
<path d="M290.197 223.669L291.593 219.838L313.682 227.893L312.286 231.724L290.197 223.669Z" fill="#DEDEDE"/>
<path d="M293.383 214.253L294.422 210.315L317.119 216.366L316.045 220.339L293.383 214.253Z" fill="#DEDEDE"/>
<path d="M295.71 204.552L296.391 200.542L319.517 204.623L318.837 208.633L295.71 204.552Z" fill="#DEDEDE"/>
<path d="M297.178 194.707L297.536 190.661L320.914 192.702L320.556 196.783L297.178 194.707Z" fill="#DEDEDE"/>
<path fill-rule="evenodd" clip-rule="evenodd" d="M321.272 180.709V184.79H297.787V180.709H321.272Z" fill="#DEDEDE"/>
<path d="M297.536 174.838L297.178 170.756L320.556 168.716L320.914 172.797L297.536 174.838Z" fill="#DEDEDE"/>
<path d="M296.391 164.957L295.71 160.911L318.837 156.83L319.517 160.876L296.391 164.957Z" fill="#DEDEDE"/>
<path d="M294.422 155.183L293.383 151.245L316.045 145.159L317.119 149.097L294.422 155.183Z" fill="#DEDEDE"/>
<path d="M291.593 145.661L290.197 141.794L312.286 133.775L313.682 137.606L291.593 145.661Z" fill="#DEDEDE"/>
<path d="M287.942 136.388L286.223 132.665L307.524 122.749L309.243 126.472L287.942 136.388Z" fill="#DEDEDE"/>
<path d="M283.503 127.474L281.462 123.93L301.832 112.188L303.873 115.732L283.503 127.474Z" fill="#DEDEDE"/>
<path d="M278.312 118.99L275.985 115.624L295.209 102.164L297.572 105.493L278.312 118.99Z" fill="#DEDEDE"/>
<path d="M272.405 110.97L269.791 107.856L287.763 92.7482L290.412 95.8628L272.405 110.97Z" fill="#DEDEDE"/>
<path d="M265.817 103.524L262.918 100.624L279.529 84.013L282.429 86.9128L265.817 103.524Z" fill="#DEDEDE"/>
<path d="M258.586 96.6504L255.471 94.037L270.579 76.0654L273.693 78.6788L258.586 96.6504Z" fill="#DEDEDE"/>
<path d="M250.817 90.457L247.452 88.13L260.949 68.8696L264.278 71.2324L250.817 90.457Z" fill="#DEDEDE"/>
<path d="M242.511 84.9796L238.967 82.939L250.71 62.5688L254.254 64.6094L242.511 84.9796Z" fill="#DEDEDE"/>
<path d="M233.776 80.2182L230.053 78.4998L240.006 57.1988L243.693 58.9172L233.776 80.2182Z" fill="#DEDEDE"/>
<path d="M224.647 76.2444L220.817 74.8482L228.836 52.7596L232.667 54.1558L224.647 76.2444Z" fill="#DEDEDE"/>
<path d="M215.196 73.094L211.258 72.02L217.344 49.3228L221.282 50.3968L215.196 73.094Z" fill="#DEDEDE"/>
<path d="M205.53 70.767L201.485 70.051L205.566 46.9242L209.611 47.6044L205.53 70.767Z" fill="#DEDEDE"/>
<path d="M195.685 69.2634L191.604 68.9054L193.645 45.528L197.726 45.886L195.685 69.2634Z" fill="#DEDEDE"/>
<path d="M28.2844 149.563L24.0242 148.668C30.7188 117.235 46.435 88.667 69.526 66.0772C92.6528 43.4516 121.615 28.3082 153.226 22.3654L154.05 26.6256C91.006 38.547 41.6378 86.7696 28.2844 149.563Z" fill="#DEDEDE"/>
<path d="M339.1 149.563C325.782 86.7696 276.414 38.547 213.37 26.6256L214.158 22.3654C245.805 28.3082 274.732 43.4516 297.858 66.0772C320.949 88.667 336.701 117.235 343.36 148.668L339.1 149.563Z" fill="#DEDEDE"/>
<path d="M214.158 343.133L213.37 338.873C278.526 326.558 329.613 274.326 340.425 208.883L344.756 209.599C333.623 276.832 281.14 330.496 214.158 343.133Z" fill="#DEDEDE"/>
<path d="M153.226 343.133C86.2446 330.496 33.7976 276.832 22.6638 209.599L26.9598 208.883C37.7714 274.326 88.858 326.558 154.05 338.873L153.226 343.133Z" fill="#DEDEDE"/>
</svg>
