<svg width="290" height="288" viewBox="0 0 290 288" fill="none" xmlns="http://www.w3.org/2000/svg">
<path d="M135 54C138.975 45.6576 151.025 45.6576 155 54L178 103.734H112L135 54Z" fill="#7A9E7E"/>
<mask id="mask0_16_109" style="mask-type:luminance" maskUnits="userSpaceOnUse" x="87" y="81" width="116" height="116">
<path d="M202.564 81.9985L88.0964 81.8502L87.9481 196.317L202.415 196.466L202.564 81.9985Z" fill="white"/>
</mask>
<g mask="url(#mask0_16_109)">
<path d="M138.554 132.706L95.5098 109.985C97.7049 105.734 101.12 102.142 105.52 99.816L134.162 84.6854C141.159 80.9936 149.51 81.009 156.497 84.7151L185.089 99.9182C189.603 102.319 193.08 106.048 195.248 110.458L151.961 132.728C147.756 134.945 142.748 134.939 138.55 132.711L138.554 132.706ZM180.781 141.527V141.646C180.776 145.204 184.569 147.479 187.706 145.804L197.718 140.481L197.696 157.441C197.685 166.292 192.815 174.361 184.987 178.495L156.355 193.625C152.858 195.471 149.021 196.397 145.182 196.391C141.342 196.387 137.514 195.457 134.015 193.596L105.423 178.392C97.6016 174.233 92.7569 166.156 92.7678 157.304L92.7898 140.344L102.79 145.694C105.921 147.382 109.72 145.112 109.726 141.553V141.435C109.728 139.703 108.776 138.109 107.251 137.286L92.8041 129.546L92.8151 120.865C92.8162 120.37 92.8886 119.888 92.9172 119.397L134.084 141.132C137.577 142.992 141.416 143.918 145.25 143.928C149.085 143.932 152.92 143.012 156.423 141.161L197.646 119.532C197.673 120.024 197.744 120.506 197.743 121.002L197.732 129.682L183.266 137.385C181.739 138.203 180.783 139.795 180.781 141.527ZM140.462 157.695C140.465 155.955 139.504 154.351 137.964 153.534L126.167 147.36C123.036 145.697 119.256 147.962 119.252 151.511L119.251 151.654C119.248 153.394 120.21 154.998 121.75 155.815L133.546 161.983C136.677 163.647 140.458 161.382 140.462 157.834V157.695ZM171.229 151.578C171.233 148.029 167.459 145.755 164.323 147.41L152.511 153.552C150.969 154.366 150.004 155.967 150.002 157.707V157.851C149.997 161.399 153.771 163.675 156.907 162.019L168.72 155.881C170.261 155.068 171.227 153.467 171.229 151.726V151.578Z" fill="white" fill-opacity="0.29"/>
</g>
<mask id="mask1_16_109" style="mask-type:luminance" maskUnits="userSpaceOnUse" x="87" y="86" width="116" height="116">
<path d="M202.564 86.9985L88.0964 86.8502L87.9481 201.317L202.415 201.466L202.564 86.9985Z" fill="white"/>
</mask>
<g mask="url(#mask1_16_109)">
<path d="M138.554 137.706L95.5098 114.985C97.7049 110.734 101.12 107.142 105.52 104.816L134.162 89.6854C141.159 85.9936 149.51 86.009 156.497 89.7151L185.089 104.918C189.603 107.319 193.08 111.048 195.248 115.458L151.961 137.728C147.756 139.945 142.748 139.939 138.55 137.711L138.554 137.706ZM180.781 146.527V146.646C180.776 150.204 184.569 152.479 187.706 150.804L197.718 145.481L197.696 162.441C197.685 171.292 192.815 179.361 184.987 183.495L156.355 198.625C152.858 200.471 149.021 201.397 145.182 201.391C141.342 201.387 137.514 200.457 134.015 198.596L105.423 183.392C97.6016 179.233 92.7569 171.156 92.7678 162.304L92.7898 145.344L102.79 150.694C105.921 152.382 109.72 150.112 109.726 146.553V146.435C109.728 144.703 108.776 143.109 107.251 142.286L92.8041 134.546L92.8151 125.865C92.8162 125.37 92.8886 124.888 92.9172 124.397L134.084 146.132C137.577 147.992 141.416 148.918 145.25 148.928C149.085 148.932 152.92 148.012 156.423 146.161L197.646 124.532C197.673 125.024 197.744 125.506 197.743 126.002L197.732 134.682L183.266 142.385C181.739 143.203 180.783 144.795 180.781 146.527ZM140.462 162.695C140.465 160.955 139.504 159.351 137.964 158.534L126.167 152.36C123.036 150.697 119.256 152.962 119.252 156.511L119.251 156.654C119.248 158.394 120.21 159.998 121.75 160.815L133.546 166.983C136.677 168.647 140.458 166.382 140.462 162.834V162.695ZM171.229 156.578C171.233 153.029 167.459 150.755 164.323 152.41L152.511 158.552C150.969 159.366 150.004 160.967 150.002 162.707V162.851C149.997 166.399 153.771 168.675 156.907 167.019L168.72 160.881C170.261 160.068 171.227 158.467 171.229 156.726V156.578Z" fill="#7A9E7E"/>
</g>
<path d="M145 8.5C219.835 8.5 280.5 69.1654 280.5 144C280.5 218.835 219.835 279.5 145 279.5C70.1654 279.5 9.5 218.835 9.5 144C9.5 69.1654 70.1654 8.5 145 8.5Z" stroke="#7A9E7E" stroke-opacity="0.2" stroke-width="5"/>
<path d="M145.5 21C213.707 21 269 76.2928 269 144.5C269 212.707 213.707 268 145.5 268C77.2928 268 22 212.707 22 144.5C22 76.2928 77.2928 21 145.5 21Z" stroke="#7A9E7E" stroke-opacity="0.4" stroke-width="10"/>
<path d="M145.5 38.5C204.042 38.5 251.5 85.9578 251.5 144.5C251.5 203.042 204.042 250.5 145.5 250.5C86.9578 250.5 39.5 203.042 39.5 144.5C39.5 85.9578 86.9578 38.5 145.5 38.5Z" stroke="#7A9E7E" stroke-opacity="0.6" stroke-width="15"/>
</svg>
